G04 #@! TF.GenerationSoftware,KiCad,Pcbnew,5.1.5*
G04 #@! TF.CreationDate,2020-03-06T22:13:42+01:00*
G04 #@! TF.ProjectId,himudev,68696d75-6465-4762-9e6b-696361645f70,rev?*
G04 #@! TF.SameCoordinates,Original*
G04 #@! TF.FileFunction,Profile,NP*
%FSLAX46Y46*%
G04 Gerber Fmt 4.6, Leading zero omitted, Abs format (unit mm)*
G04 Created by KiCad (PCBNEW 5.1.5) date 2020-03-06 22:13:42*
%MOMM*%
%LPD*%
G04 APERTURE LIST*
%ADD10C,0.050000*%
%ADD11C,0.010000*%
G04 APERTURE END LIST*
D10*
X176400000Y-123415000D02*
X191400000Y-123415000D01*
X137400000Y-123415000D02*
X167400000Y-123415000D01*
X113400000Y-123415000D02*
X128400000Y-123415000D01*
X137400000Y-79785000D02*
X167400000Y-79785000D01*
X176400000Y-79785000D02*
X191400000Y-79785000D01*
X137400000Y-80785000D02*
X137400000Y-79785000D01*
X128400000Y-80785000D02*
X137400000Y-80785000D01*
X128400000Y-80785000D02*
X128400000Y-79785000D01*
X137400000Y-122415000D02*
X137400000Y-123415000D01*
X128400000Y-122415000D02*
X128400000Y-123415000D01*
X128400000Y-122415000D02*
X137400000Y-122415000D01*
X176400000Y-122415000D02*
X176400000Y-123415000D01*
X167400000Y-122415000D02*
X176400000Y-122415000D01*
X167400000Y-122415000D02*
X167400000Y-123415000D01*
X167400000Y-80785000D02*
X167400000Y-79785000D01*
X176400000Y-80785000D02*
X176400000Y-79785000D01*
X167400000Y-80785000D02*
X176400000Y-80785000D01*
X113400000Y-119507500D02*
X113400000Y-123415000D01*
X109492500Y-115600000D02*
X105585000Y-115600000D01*
X113400000Y-119507500D02*
G75*
G03X109492500Y-115600000I-3907500J0D01*
G01*
X113400000Y-83692500D02*
X113400000Y-79785000D01*
X109492500Y-87600000D02*
X105585000Y-87600000D01*
X113400000Y-83692500D02*
G75*
G02X109492500Y-87600000I-3907500J0D01*
G01*
X191400000Y-119507500D02*
X191400000Y-123415000D01*
X195307500Y-115600000D02*
G75*
G03X191400000Y-119507500I0J-3907500D01*
G01*
X195307500Y-115600000D02*
X199215000Y-115600000D01*
X195307500Y-87600000D02*
X199215000Y-87600000D01*
X191400000Y-83692500D02*
X191400000Y-79785000D01*
X195307500Y-87600000D02*
G75*
G02X191400000Y-83692500I0J3907500D01*
G01*
X105585000Y-87600000D02*
X105585000Y-115600000D01*
X199215000Y-87600000D02*
X199215000Y-115600000D01*
X113400000Y-79785000D02*
X128400000Y-79785000D01*
D11*
X106573000Y-96980000D02*
X107193000Y-96980000D01*
X106573000Y-97580000D02*
X107193000Y-97580000D01*
X107193000Y-97580000D02*
G75*
G03X107193000Y-96980000I0J300000D01*
G01*
X106573000Y-96980000D02*
G75*
G03X106573000Y-97580000I0J-300000D01*
G01*
X110508000Y-96980000D02*
X111608000Y-96980000D01*
X110508000Y-97580000D02*
X111608000Y-97580000D01*
X110508000Y-96980000D02*
G75*
G03X110508000Y-97580000I0J-300000D01*
G01*
X111608000Y-97580000D02*
G75*
G03X111608000Y-96980000I0J300000D01*
G01*
X106573000Y-105620000D02*
X107193000Y-105620000D01*
X106573000Y-106220000D02*
X107193000Y-106220000D01*
X107193000Y-106220000D02*
G75*
G03X107193000Y-105620000I0J300000D01*
G01*
X106573000Y-105620000D02*
G75*
G03X106573000Y-106220000I0J-300000D01*
G01*
X110508000Y-105620000D02*
X111608000Y-105620000D01*
X110508000Y-106220000D02*
X111608000Y-106220000D01*
X110508000Y-105620000D02*
G75*
G03X110508000Y-106220000I0J-300000D01*
G01*
X111608000Y-106220000D02*
G75*
G03X111608000Y-105620000I0J300000D01*
G01*
M02*
