G04 #@! TF.GenerationSoftware,KiCad,Pcbnew,5.1.5*
G04 #@! TF.CreationDate,2020-03-07T11:26:49+01:00*
G04 #@! TF.ProjectId,himudev,68696d75-6465-4762-9e6b-696361645f70,rev?*
G04 #@! TF.SameCoordinates,Original*
G04 #@! TF.FileFunction,Legend,Bot*
G04 #@! TF.FilePolarity,Positive*
%FSLAX46Y46*%
G04 Gerber Fmt 4.6, Leading zero omitted, Abs format (unit mm)*
G04 Created by KiCad (PCBNEW 5.1.5) date 2020-03-07 11:26:49*
%MOMM*%
%LPD*%
G04 APERTURE LIST*
%ADD10C,0.150000*%
%ADD11C,0.120000*%
G04 APERTURE END LIST*
D10*
X157019047Y-81367380D02*
X157019047Y-82081666D01*
X157066666Y-82224523D01*
X157161904Y-82319761D01*
X157304761Y-82367380D01*
X157400000Y-82367380D01*
X156066666Y-82367380D02*
X156542857Y-82367380D01*
X156542857Y-81367380D01*
X155161904Y-82272142D02*
X155209523Y-82319761D01*
X155352380Y-82367380D01*
X155447619Y-82367380D01*
X155590476Y-82319761D01*
X155685714Y-82224523D01*
X155733333Y-82129285D01*
X155780952Y-81938809D01*
X155780952Y-81795952D01*
X155733333Y-81605476D01*
X155685714Y-81510238D01*
X155590476Y-81415000D01*
X155447619Y-81367380D01*
X155352380Y-81367380D01*
X155209523Y-81415000D01*
X155161904Y-81462619D01*
X154447619Y-81367380D02*
X154447619Y-82081666D01*
X154495238Y-82224523D01*
X154590476Y-82319761D01*
X154733333Y-82367380D01*
X154828571Y-82367380D01*
X153495238Y-82367380D02*
X153971428Y-82367380D01*
X153971428Y-81367380D01*
X152590476Y-82272142D02*
X152638095Y-82319761D01*
X152780952Y-82367380D01*
X152876190Y-82367380D01*
X153019047Y-82319761D01*
X153114285Y-82224523D01*
X153161904Y-82129285D01*
X153209523Y-81938809D01*
X153209523Y-81795952D01*
X153161904Y-81605476D01*
X153114285Y-81510238D01*
X153019047Y-81415000D01*
X152876190Y-81367380D01*
X152780952Y-81367380D01*
X152638095Y-81415000D01*
X152590476Y-81462619D01*
X151876190Y-81367380D02*
X151876190Y-82081666D01*
X151923809Y-82224523D01*
X152019047Y-82319761D01*
X152161904Y-82367380D01*
X152257142Y-82367380D01*
X150923809Y-82367380D02*
X151400000Y-82367380D01*
X151400000Y-81367380D01*
X150019047Y-82272142D02*
X150066666Y-82319761D01*
X150209523Y-82367380D01*
X150304761Y-82367380D01*
X150447619Y-82319761D01*
X150542857Y-82224523D01*
X150590476Y-82129285D01*
X150638095Y-81938809D01*
X150638095Y-81795952D01*
X150590476Y-81605476D01*
X150542857Y-81510238D01*
X150447619Y-81415000D01*
X150304761Y-81367380D01*
X150209523Y-81367380D01*
X150066666Y-81415000D01*
X150019047Y-81462619D01*
X149304761Y-81367380D02*
X149304761Y-82081666D01*
X149352380Y-82224523D01*
X149447619Y-82319761D01*
X149590476Y-82367380D01*
X149685714Y-82367380D01*
X148352380Y-82367380D02*
X148828571Y-82367380D01*
X148828571Y-81367380D01*
X147447619Y-82272142D02*
X147495238Y-82319761D01*
X147638095Y-82367380D01*
X147733333Y-82367380D01*
X147876190Y-82319761D01*
X147971428Y-82224523D01*
X148019047Y-82129285D01*
X148066666Y-81938809D01*
X148066666Y-81795952D01*
X148019047Y-81605476D01*
X147971428Y-81510238D01*
X147876190Y-81415000D01*
X147733333Y-81367380D01*
X147638095Y-81367380D01*
X147495238Y-81415000D01*
X147447619Y-81462619D01*
D11*
X177336267Y-107825000D02*
X176993733Y-107825000D01*
X177336267Y-106805000D02*
X176993733Y-106805000D01*
X164702000Y-89834000D02*
X164702000Y-88424000D01*
X167022000Y-88424000D02*
X167022000Y-90454000D01*
X167022000Y-88424000D02*
X166362000Y-88424000D01*
X165362000Y-88424000D02*
X164702000Y-88424000D01*
X168766000Y-89834000D02*
X168766000Y-88424000D01*
X171086000Y-88424000D02*
X171086000Y-90454000D01*
X171086000Y-88424000D02*
X170426000Y-88424000D01*
X169426000Y-88424000D02*
X168766000Y-88424000D01*
X172830000Y-89707000D02*
X172830000Y-88297000D01*
X175150000Y-88297000D02*
X175150000Y-90327000D01*
X175150000Y-88297000D02*
X174490000Y-88297000D01*
X173490000Y-88297000D02*
X172830000Y-88297000D01*
X176894000Y-89707000D02*
X176894000Y-88297000D01*
X179214000Y-88297000D02*
X179214000Y-90327000D01*
X179214000Y-88297000D02*
X178554000Y-88297000D01*
X177554000Y-88297000D02*
X176894000Y-88297000D01*
X163150733Y-105158000D02*
X163493267Y-105158000D01*
X163150733Y-104138000D02*
X163493267Y-104138000D01*
X160526000Y-99396733D02*
X160526000Y-99739267D01*
X161546000Y-99396733D02*
X161546000Y-99739267D01*
X168065267Y-100455000D02*
X167722733Y-100455000D01*
X168065267Y-101475000D02*
X167722733Y-101475000D01*
X166245000Y-105708267D02*
X166245000Y-105365733D01*
X165225000Y-105708267D02*
X165225000Y-105365733D01*
X168065267Y-103634000D02*
X167722733Y-103634000D01*
X168065267Y-102614000D02*
X167722733Y-102614000D01*
X158070733Y-104646000D02*
X158413267Y-104646000D01*
X158070733Y-105666000D02*
X158413267Y-105666000D01*
X161292000Y-102698733D02*
X161292000Y-103041267D01*
X160272000Y-102698733D02*
X160272000Y-103041267D01*
X158070733Y-107190000D02*
X158413267Y-107190000D01*
X158070733Y-106170000D02*
X158413267Y-106170000D01*
X164166733Y-98042000D02*
X164509267Y-98042000D01*
X164166733Y-99062000D02*
X164509267Y-99062000D01*
X177336267Y-109349000D02*
X176993733Y-109349000D01*
X177336267Y-108329000D02*
X176993733Y-108329000D01*
X177336267Y-114425000D02*
X176993733Y-114425000D01*
X177336267Y-115445000D02*
X176993733Y-115445000D01*
X177336267Y-109853000D02*
X176993733Y-109853000D01*
X177336267Y-110873000D02*
X176993733Y-110873000D01*
X177336267Y-112397000D02*
X176993733Y-112397000D01*
X177336267Y-111377000D02*
X176993733Y-111377000D01*
X177336267Y-112901000D02*
X176993733Y-112901000D01*
X177336267Y-113921000D02*
X176993733Y-113921000D01*
X157609000Y-100920733D02*
X157609000Y-101263267D01*
X156589000Y-100920733D02*
X156589000Y-101263267D01*
X177336267Y-103634000D02*
X176993733Y-103634000D01*
X177336267Y-102614000D02*
X176993733Y-102614000D01*
X177336267Y-101090000D02*
X176993733Y-101090000D01*
X177336267Y-102110000D02*
X176993733Y-102110000D01*
X165352000Y-92792733D02*
X165352000Y-93135267D01*
X166372000Y-92792733D02*
X166372000Y-93135267D01*
X161880733Y-90930000D02*
X162223267Y-90930000D01*
X161880733Y-91950000D02*
X162223267Y-91950000D01*
X170309000Y-92792733D02*
X170309000Y-93135267D01*
X169289000Y-92792733D02*
X169289000Y-93135267D01*
X161880733Y-88009000D02*
X162223267Y-88009000D01*
X161880733Y-89029000D02*
X162223267Y-89029000D01*
X173480000Y-92665733D02*
X173480000Y-93008267D01*
X174500000Y-92665733D02*
X174500000Y-93008267D01*
X161880733Y-85088000D02*
X162223267Y-85088000D01*
X161880733Y-86108000D02*
X162223267Y-86108000D01*
X177798000Y-92665733D02*
X177798000Y-93008267D01*
X178818000Y-92665733D02*
X178818000Y-93008267D01*
X161880733Y-82167000D02*
X162223267Y-82167000D01*
X161880733Y-83187000D02*
X162223267Y-83187000D01*
D10*
X174791666Y-107767380D02*
X175125000Y-107291190D01*
X175363095Y-107767380D02*
X175363095Y-106767380D01*
X174982142Y-106767380D01*
X174886904Y-106815000D01*
X174839285Y-106862619D01*
X174791666Y-106957857D01*
X174791666Y-107100714D01*
X174839285Y-107195952D01*
X174886904Y-107243571D01*
X174982142Y-107291190D01*
X175363095Y-107291190D01*
X173839285Y-107767380D02*
X174410714Y-107767380D01*
X174125000Y-107767380D02*
X174125000Y-106767380D01*
X174220238Y-106910238D01*
X174315476Y-107005476D01*
X174410714Y-107053095D01*
X168359619Y-89108761D02*
X168312000Y-89013523D01*
X168216761Y-88918285D01*
X168073904Y-88775428D01*
X168026285Y-88680190D01*
X168026285Y-88584952D01*
X168264380Y-88632571D02*
X168216761Y-88537333D01*
X168121523Y-88442095D01*
X167931047Y-88394476D01*
X167597714Y-88394476D01*
X167407238Y-88442095D01*
X167312000Y-88537333D01*
X167264380Y-88632571D01*
X167264380Y-88823047D01*
X167312000Y-88918285D01*
X167407238Y-89013523D01*
X167597714Y-89061142D01*
X167931047Y-89061142D01*
X168121523Y-89013523D01*
X168216761Y-88918285D01*
X168264380Y-88823047D01*
X168264380Y-88632571D01*
X167264380Y-89394476D02*
X167264380Y-90013523D01*
X167645333Y-89680190D01*
X167645333Y-89823047D01*
X167692952Y-89918285D01*
X167740571Y-89965904D01*
X167835809Y-90013523D01*
X168073904Y-90013523D01*
X168169142Y-89965904D01*
X168216761Y-89918285D01*
X168264380Y-89823047D01*
X168264380Y-89537333D01*
X168216761Y-89442095D01*
X168169142Y-89394476D01*
X172423619Y-89108761D02*
X172376000Y-89013523D01*
X172280761Y-88918285D01*
X172137904Y-88775428D01*
X172090285Y-88680190D01*
X172090285Y-88584952D01*
X172328380Y-88632571D02*
X172280761Y-88537333D01*
X172185523Y-88442095D01*
X171995047Y-88394476D01*
X171661714Y-88394476D01*
X171471238Y-88442095D01*
X171376000Y-88537333D01*
X171328380Y-88632571D01*
X171328380Y-88823047D01*
X171376000Y-88918285D01*
X171471238Y-89013523D01*
X171661714Y-89061142D01*
X171995047Y-89061142D01*
X172185523Y-89013523D01*
X172280761Y-88918285D01*
X172328380Y-88823047D01*
X172328380Y-88632571D01*
X171661714Y-89918285D02*
X172328380Y-89918285D01*
X171280761Y-89680190D02*
X171995047Y-89442095D01*
X171995047Y-90061142D01*
X176487619Y-88981761D02*
X176440000Y-88886523D01*
X176344761Y-88791285D01*
X176201904Y-88648428D01*
X176154285Y-88553190D01*
X176154285Y-88457952D01*
X176392380Y-88505571D02*
X176344761Y-88410333D01*
X176249523Y-88315095D01*
X176059047Y-88267476D01*
X175725714Y-88267476D01*
X175535238Y-88315095D01*
X175440000Y-88410333D01*
X175392380Y-88505571D01*
X175392380Y-88696047D01*
X175440000Y-88791285D01*
X175535238Y-88886523D01*
X175725714Y-88934142D01*
X176059047Y-88934142D01*
X176249523Y-88886523D01*
X176344761Y-88791285D01*
X176392380Y-88696047D01*
X176392380Y-88505571D01*
X175392380Y-89838904D02*
X175392380Y-89362714D01*
X175868571Y-89315095D01*
X175820952Y-89362714D01*
X175773333Y-89457952D01*
X175773333Y-89696047D01*
X175820952Y-89791285D01*
X175868571Y-89838904D01*
X175963809Y-89886523D01*
X176201904Y-89886523D01*
X176297142Y-89838904D01*
X176344761Y-89791285D01*
X176392380Y-89696047D01*
X176392380Y-89457952D01*
X176344761Y-89362714D01*
X176297142Y-89315095D01*
X180551619Y-88981761D02*
X180504000Y-88886523D01*
X180408761Y-88791285D01*
X180265904Y-88648428D01*
X180218285Y-88553190D01*
X180218285Y-88457952D01*
X180456380Y-88505571D02*
X180408761Y-88410333D01*
X180313523Y-88315095D01*
X180123047Y-88267476D01*
X179789714Y-88267476D01*
X179599238Y-88315095D01*
X179504000Y-88410333D01*
X179456380Y-88505571D01*
X179456380Y-88696047D01*
X179504000Y-88791285D01*
X179599238Y-88886523D01*
X179789714Y-88934142D01*
X180123047Y-88934142D01*
X180313523Y-88886523D01*
X180408761Y-88791285D01*
X180456380Y-88696047D01*
X180456380Y-88505571D01*
X179456380Y-89791285D02*
X179456380Y-89600809D01*
X179504000Y-89505571D01*
X179551619Y-89457952D01*
X179694476Y-89362714D01*
X179884952Y-89315095D01*
X180265904Y-89315095D01*
X180361142Y-89362714D01*
X180408761Y-89410333D01*
X180456380Y-89505571D01*
X180456380Y-89696047D01*
X180408761Y-89791285D01*
X180361142Y-89838904D01*
X180265904Y-89886523D01*
X180027809Y-89886523D01*
X179932571Y-89838904D01*
X179884952Y-89791285D01*
X179837333Y-89696047D01*
X179837333Y-89505571D01*
X179884952Y-89410333D01*
X179932571Y-89362714D01*
X180027809Y-89315095D01*
X163964857Y-106435142D02*
X164012476Y-106482761D01*
X164155333Y-106530380D01*
X164250571Y-106530380D01*
X164393428Y-106482761D01*
X164488666Y-106387523D01*
X164536285Y-106292285D01*
X164583904Y-106101809D01*
X164583904Y-105958952D01*
X164536285Y-105768476D01*
X164488666Y-105673238D01*
X164393428Y-105578000D01*
X164250571Y-105530380D01*
X164155333Y-105530380D01*
X164012476Y-105578000D01*
X163964857Y-105625619D01*
X163012476Y-106530380D02*
X163583904Y-106530380D01*
X163298190Y-106530380D02*
X163298190Y-105530380D01*
X163393428Y-105673238D01*
X163488666Y-105768476D01*
X163583904Y-105816095D01*
X162536285Y-106530380D02*
X162345809Y-106530380D01*
X162250571Y-106482761D01*
X162202952Y-106435142D01*
X162107714Y-106292285D01*
X162060095Y-106101809D01*
X162060095Y-105720857D01*
X162107714Y-105625619D01*
X162155333Y-105578000D01*
X162250571Y-105530380D01*
X162441047Y-105530380D01*
X162536285Y-105578000D01*
X162583904Y-105625619D01*
X162631523Y-105720857D01*
X162631523Y-105958952D01*
X162583904Y-106054190D01*
X162536285Y-106101809D01*
X162441047Y-106149428D01*
X162250571Y-106149428D01*
X162155333Y-106101809D01*
X162107714Y-106054190D01*
X162060095Y-105958952D01*
X159963142Y-98925142D02*
X160010761Y-98877523D01*
X160058380Y-98734666D01*
X160058380Y-98639428D01*
X160010761Y-98496571D01*
X159915523Y-98401333D01*
X159820285Y-98353714D01*
X159629809Y-98306095D01*
X159486952Y-98306095D01*
X159296476Y-98353714D01*
X159201238Y-98401333D01*
X159106000Y-98496571D01*
X159058380Y-98639428D01*
X159058380Y-98734666D01*
X159106000Y-98877523D01*
X159153619Y-98925142D01*
X159153619Y-99306095D02*
X159106000Y-99353714D01*
X159058380Y-99448952D01*
X159058380Y-99687047D01*
X159106000Y-99782285D01*
X159153619Y-99829904D01*
X159248857Y-99877523D01*
X159344095Y-99877523D01*
X159486952Y-99829904D01*
X160058380Y-99258476D01*
X160058380Y-99877523D01*
X159058380Y-100496571D02*
X159058380Y-100591809D01*
X159106000Y-100687047D01*
X159153619Y-100734666D01*
X159248857Y-100782285D01*
X159439333Y-100829904D01*
X159677428Y-100829904D01*
X159867904Y-100782285D01*
X159963142Y-100734666D01*
X160010761Y-100687047D01*
X160058380Y-100591809D01*
X160058380Y-100496571D01*
X160010761Y-100401333D01*
X159963142Y-100353714D01*
X159867904Y-100306095D01*
X159677428Y-100258476D01*
X159439333Y-100258476D01*
X159248857Y-100306095D01*
X159153619Y-100353714D01*
X159106000Y-100401333D01*
X159058380Y-100496571D01*
X168536857Y-99892142D02*
X168584476Y-99939761D01*
X168727333Y-99987380D01*
X168822571Y-99987380D01*
X168965428Y-99939761D01*
X169060666Y-99844523D01*
X169108285Y-99749285D01*
X169155904Y-99558809D01*
X169155904Y-99415952D01*
X169108285Y-99225476D01*
X169060666Y-99130238D01*
X168965428Y-99035000D01*
X168822571Y-98987380D01*
X168727333Y-98987380D01*
X168584476Y-99035000D01*
X168536857Y-99082619D01*
X168155904Y-99082619D02*
X168108285Y-99035000D01*
X168013047Y-98987380D01*
X167774952Y-98987380D01*
X167679714Y-99035000D01*
X167632095Y-99082619D01*
X167584476Y-99177857D01*
X167584476Y-99273095D01*
X167632095Y-99415952D01*
X168203523Y-99987380D01*
X167584476Y-99987380D01*
X166632095Y-99987380D02*
X167203523Y-99987380D01*
X166917809Y-99987380D02*
X166917809Y-98987380D01*
X167013047Y-99130238D01*
X167108285Y-99225476D01*
X167203523Y-99273095D01*
X167489142Y-105910142D02*
X167536761Y-105862523D01*
X167584380Y-105719666D01*
X167584380Y-105624428D01*
X167536761Y-105481571D01*
X167441523Y-105386333D01*
X167346285Y-105338714D01*
X167155809Y-105291095D01*
X167012952Y-105291095D01*
X166822476Y-105338714D01*
X166727238Y-105386333D01*
X166632000Y-105481571D01*
X166584380Y-105624428D01*
X166584380Y-105719666D01*
X166632000Y-105862523D01*
X166679619Y-105910142D01*
X166679619Y-106291095D02*
X166632000Y-106338714D01*
X166584380Y-106433952D01*
X166584380Y-106672047D01*
X166632000Y-106767285D01*
X166679619Y-106814904D01*
X166774857Y-106862523D01*
X166870095Y-106862523D01*
X167012952Y-106814904D01*
X167584380Y-106243476D01*
X167584380Y-106862523D01*
X166679619Y-107243476D02*
X166632000Y-107291095D01*
X166584380Y-107386333D01*
X166584380Y-107624428D01*
X166632000Y-107719666D01*
X166679619Y-107767285D01*
X166774857Y-107814904D01*
X166870095Y-107814904D01*
X167012952Y-107767285D01*
X167584380Y-107195857D01*
X167584380Y-107814904D01*
X168663857Y-105005142D02*
X168711476Y-105052761D01*
X168854333Y-105100380D01*
X168949571Y-105100380D01*
X169092428Y-105052761D01*
X169187666Y-104957523D01*
X169235285Y-104862285D01*
X169282904Y-104671809D01*
X169282904Y-104528952D01*
X169235285Y-104338476D01*
X169187666Y-104243238D01*
X169092428Y-104148000D01*
X168949571Y-104100380D01*
X168854333Y-104100380D01*
X168711476Y-104148000D01*
X168663857Y-104195619D01*
X168282904Y-104195619D02*
X168235285Y-104148000D01*
X168140047Y-104100380D01*
X167901952Y-104100380D01*
X167806714Y-104148000D01*
X167759095Y-104195619D01*
X167711476Y-104290857D01*
X167711476Y-104386095D01*
X167759095Y-104528952D01*
X168330523Y-105100380D01*
X167711476Y-105100380D01*
X167378142Y-104100380D02*
X166759095Y-104100380D01*
X167092428Y-104481333D01*
X166949571Y-104481333D01*
X166854333Y-104528952D01*
X166806714Y-104576571D01*
X166759095Y-104671809D01*
X166759095Y-104909904D01*
X166806714Y-105005142D01*
X166854333Y-105052761D01*
X166949571Y-105100380D01*
X167235285Y-105100380D01*
X167330523Y-105052761D01*
X167378142Y-105005142D01*
X157995857Y-104116142D02*
X158043476Y-104163761D01*
X158186333Y-104211380D01*
X158281571Y-104211380D01*
X158424428Y-104163761D01*
X158519666Y-104068523D01*
X158567285Y-103973285D01*
X158614904Y-103782809D01*
X158614904Y-103639952D01*
X158567285Y-103449476D01*
X158519666Y-103354238D01*
X158424428Y-103259000D01*
X158281571Y-103211380D01*
X158186333Y-103211380D01*
X158043476Y-103259000D01*
X157995857Y-103306619D01*
X157614904Y-103306619D02*
X157567285Y-103259000D01*
X157472047Y-103211380D01*
X157233952Y-103211380D01*
X157138714Y-103259000D01*
X157091095Y-103306619D01*
X157043476Y-103401857D01*
X157043476Y-103497095D01*
X157091095Y-103639952D01*
X157662523Y-104211380D01*
X157043476Y-104211380D01*
X156186333Y-103544714D02*
X156186333Y-104211380D01*
X156424428Y-103163761D02*
X156662523Y-103878047D01*
X156043476Y-103878047D01*
X159709142Y-102227142D02*
X159756761Y-102179523D01*
X159804380Y-102036666D01*
X159804380Y-101941428D01*
X159756761Y-101798571D01*
X159661523Y-101703333D01*
X159566285Y-101655714D01*
X159375809Y-101608095D01*
X159232952Y-101608095D01*
X159042476Y-101655714D01*
X158947238Y-101703333D01*
X158852000Y-101798571D01*
X158804380Y-101941428D01*
X158804380Y-102036666D01*
X158852000Y-102179523D01*
X158899619Y-102227142D01*
X158899619Y-102608095D02*
X158852000Y-102655714D01*
X158804380Y-102750952D01*
X158804380Y-102989047D01*
X158852000Y-103084285D01*
X158899619Y-103131904D01*
X158994857Y-103179523D01*
X159090095Y-103179523D01*
X159232952Y-103131904D01*
X159804380Y-102560476D01*
X159804380Y-103179523D01*
X158804380Y-104084285D02*
X158804380Y-103608095D01*
X159280571Y-103560476D01*
X159232952Y-103608095D01*
X159185333Y-103703333D01*
X159185333Y-103941428D01*
X159232952Y-104036666D01*
X159280571Y-104084285D01*
X159375809Y-104131904D01*
X159613904Y-104131904D01*
X159709142Y-104084285D01*
X159756761Y-104036666D01*
X159804380Y-103941428D01*
X159804380Y-103703333D01*
X159756761Y-103608095D01*
X159709142Y-103560476D01*
X158884857Y-108467142D02*
X158932476Y-108514761D01*
X159075333Y-108562380D01*
X159170571Y-108562380D01*
X159313428Y-108514761D01*
X159408666Y-108419523D01*
X159456285Y-108324285D01*
X159503904Y-108133809D01*
X159503904Y-107990952D01*
X159456285Y-107800476D01*
X159408666Y-107705238D01*
X159313428Y-107610000D01*
X159170571Y-107562380D01*
X159075333Y-107562380D01*
X158932476Y-107610000D01*
X158884857Y-107657619D01*
X158503904Y-107657619D02*
X158456285Y-107610000D01*
X158361047Y-107562380D01*
X158122952Y-107562380D01*
X158027714Y-107610000D01*
X157980095Y-107657619D01*
X157932476Y-107752857D01*
X157932476Y-107848095D01*
X157980095Y-107990952D01*
X158551523Y-108562380D01*
X157932476Y-108562380D01*
X157075333Y-107562380D02*
X157265809Y-107562380D01*
X157361047Y-107610000D01*
X157408666Y-107657619D01*
X157503904Y-107800476D01*
X157551523Y-107990952D01*
X157551523Y-108371904D01*
X157503904Y-108467142D01*
X157456285Y-108514761D01*
X157361047Y-108562380D01*
X157170571Y-108562380D01*
X157075333Y-108514761D01*
X157027714Y-108467142D01*
X156980095Y-108371904D01*
X156980095Y-108133809D01*
X157027714Y-108038571D01*
X157075333Y-107990952D01*
X157170571Y-107943333D01*
X157361047Y-107943333D01*
X157456285Y-107990952D01*
X157503904Y-108038571D01*
X157551523Y-108133809D01*
X164980857Y-97512142D02*
X165028476Y-97559761D01*
X165171333Y-97607380D01*
X165266571Y-97607380D01*
X165409428Y-97559761D01*
X165504666Y-97464523D01*
X165552285Y-97369285D01*
X165599904Y-97178809D01*
X165599904Y-97035952D01*
X165552285Y-96845476D01*
X165504666Y-96750238D01*
X165409428Y-96655000D01*
X165266571Y-96607380D01*
X165171333Y-96607380D01*
X165028476Y-96655000D01*
X164980857Y-96702619D01*
X164599904Y-96702619D02*
X164552285Y-96655000D01*
X164457047Y-96607380D01*
X164218952Y-96607380D01*
X164123714Y-96655000D01*
X164076095Y-96702619D01*
X164028476Y-96797857D01*
X164028476Y-96893095D01*
X164076095Y-97035952D01*
X164647523Y-97607380D01*
X164028476Y-97607380D01*
X163695142Y-96607380D02*
X163028476Y-96607380D01*
X163457047Y-97607380D01*
X174791666Y-109291380D02*
X175125000Y-108815190D01*
X175363095Y-109291380D02*
X175363095Y-108291380D01*
X174982142Y-108291380D01*
X174886904Y-108339000D01*
X174839285Y-108386619D01*
X174791666Y-108481857D01*
X174791666Y-108624714D01*
X174839285Y-108719952D01*
X174886904Y-108767571D01*
X174982142Y-108815190D01*
X175363095Y-108815190D01*
X174410714Y-108386619D02*
X174363095Y-108339000D01*
X174267857Y-108291380D01*
X174029761Y-108291380D01*
X173934523Y-108339000D01*
X173886904Y-108386619D01*
X173839285Y-108481857D01*
X173839285Y-108577095D01*
X173886904Y-108719952D01*
X174458333Y-109291380D01*
X173839285Y-109291380D01*
X174791666Y-115387380D02*
X175125000Y-114911190D01*
X175363095Y-115387380D02*
X175363095Y-114387380D01*
X174982142Y-114387380D01*
X174886904Y-114435000D01*
X174839285Y-114482619D01*
X174791666Y-114577857D01*
X174791666Y-114720714D01*
X174839285Y-114815952D01*
X174886904Y-114863571D01*
X174982142Y-114911190D01*
X175363095Y-114911190D01*
X174458333Y-114387380D02*
X173839285Y-114387380D01*
X174172619Y-114768333D01*
X174029761Y-114768333D01*
X173934523Y-114815952D01*
X173886904Y-114863571D01*
X173839285Y-114958809D01*
X173839285Y-115196904D01*
X173886904Y-115292142D01*
X173934523Y-115339761D01*
X174029761Y-115387380D01*
X174315476Y-115387380D01*
X174410714Y-115339761D01*
X174458333Y-115292142D01*
X174791666Y-110815380D02*
X175125000Y-110339190D01*
X175363095Y-110815380D02*
X175363095Y-109815380D01*
X174982142Y-109815380D01*
X174886904Y-109863000D01*
X174839285Y-109910619D01*
X174791666Y-110005857D01*
X174791666Y-110148714D01*
X174839285Y-110243952D01*
X174886904Y-110291571D01*
X174982142Y-110339190D01*
X175363095Y-110339190D01*
X173934523Y-110148714D02*
X173934523Y-110815380D01*
X174172619Y-109767761D02*
X174410714Y-110482047D01*
X173791666Y-110482047D01*
X174791666Y-112339380D02*
X175125000Y-111863190D01*
X175363095Y-112339380D02*
X175363095Y-111339380D01*
X174982142Y-111339380D01*
X174886904Y-111387000D01*
X174839285Y-111434619D01*
X174791666Y-111529857D01*
X174791666Y-111672714D01*
X174839285Y-111767952D01*
X174886904Y-111815571D01*
X174982142Y-111863190D01*
X175363095Y-111863190D01*
X173886904Y-111339380D02*
X174363095Y-111339380D01*
X174410714Y-111815571D01*
X174363095Y-111767952D01*
X174267857Y-111720333D01*
X174029761Y-111720333D01*
X173934523Y-111767952D01*
X173886904Y-111815571D01*
X173839285Y-111910809D01*
X173839285Y-112148904D01*
X173886904Y-112244142D01*
X173934523Y-112291761D01*
X174029761Y-112339380D01*
X174267857Y-112339380D01*
X174363095Y-112291761D01*
X174410714Y-112244142D01*
X174791666Y-113800379D02*
X175125000Y-113324189D01*
X175363095Y-113800379D02*
X175363095Y-112800379D01*
X174982142Y-112800379D01*
X174886904Y-112847999D01*
X174839285Y-112895618D01*
X174791666Y-112990856D01*
X174791666Y-113133713D01*
X174839285Y-113228951D01*
X174886904Y-113276570D01*
X174982142Y-113324189D01*
X175363095Y-113324189D01*
X173934523Y-112800379D02*
X174125000Y-112800379D01*
X174220238Y-112847999D01*
X174267857Y-112895618D01*
X174363095Y-113038475D01*
X174410714Y-113228951D01*
X174410714Y-113609903D01*
X174363095Y-113705141D01*
X174315476Y-113752760D01*
X174220238Y-113800379D01*
X174029761Y-113800379D01*
X173934523Y-113752760D01*
X173886904Y-113705141D01*
X173839285Y-113609903D01*
X173839285Y-113371808D01*
X173886904Y-113276570D01*
X173934523Y-113228951D01*
X174029761Y-113181332D01*
X174220238Y-113181332D01*
X174315476Y-113228951D01*
X174363095Y-113276570D01*
X174410714Y-113371808D01*
X156121380Y-100449142D02*
X155645190Y-100115809D01*
X156121380Y-99877714D02*
X155121380Y-99877714D01*
X155121380Y-100258666D01*
X155169000Y-100353904D01*
X155216619Y-100401523D01*
X155311857Y-100449142D01*
X155454714Y-100449142D01*
X155549952Y-100401523D01*
X155597571Y-100353904D01*
X155645190Y-100258666D01*
X155645190Y-99877714D01*
X155121380Y-100782476D02*
X155121380Y-101401523D01*
X155502333Y-101068190D01*
X155502333Y-101211047D01*
X155549952Y-101306285D01*
X155597571Y-101353904D01*
X155692809Y-101401523D01*
X155930904Y-101401523D01*
X156026142Y-101353904D01*
X156073761Y-101306285D01*
X156121380Y-101211047D01*
X156121380Y-100925333D01*
X156073761Y-100830095D01*
X156026142Y-100782476D01*
X155549952Y-101972952D02*
X155502333Y-101877714D01*
X155454714Y-101830095D01*
X155359476Y-101782476D01*
X155311857Y-101782476D01*
X155216619Y-101830095D01*
X155169000Y-101877714D01*
X155121380Y-101972952D01*
X155121380Y-102163428D01*
X155169000Y-102258666D01*
X155216619Y-102306285D01*
X155311857Y-102353904D01*
X155359476Y-102353904D01*
X155454714Y-102306285D01*
X155502333Y-102258666D01*
X155549952Y-102163428D01*
X155549952Y-101972952D01*
X155597571Y-101877714D01*
X155645190Y-101830095D01*
X155740428Y-101782476D01*
X155930904Y-101782476D01*
X156026142Y-101830095D01*
X156073761Y-101877714D01*
X156121380Y-101972952D01*
X156121380Y-102163428D01*
X156073761Y-102258666D01*
X156026142Y-102306285D01*
X155930904Y-102353904D01*
X155740428Y-102353904D01*
X155645190Y-102306285D01*
X155597571Y-102258666D01*
X155549952Y-102163428D01*
X174759857Y-103576380D02*
X175093190Y-103100190D01*
X175331285Y-103576380D02*
X175331285Y-102576380D01*
X174950333Y-102576380D01*
X174855095Y-102624000D01*
X174807476Y-102671619D01*
X174759857Y-102766857D01*
X174759857Y-102909714D01*
X174807476Y-103004952D01*
X174855095Y-103052571D01*
X174950333Y-103100190D01*
X175331285Y-103100190D01*
X174426523Y-102576380D02*
X173807476Y-102576380D01*
X174140809Y-102957333D01*
X173997952Y-102957333D01*
X173902714Y-103004952D01*
X173855095Y-103052571D01*
X173807476Y-103147809D01*
X173807476Y-103385904D01*
X173855095Y-103481142D01*
X173902714Y-103528761D01*
X173997952Y-103576380D01*
X174283666Y-103576380D01*
X174378904Y-103528761D01*
X174426523Y-103481142D01*
X173331285Y-103576380D02*
X173140809Y-103576380D01*
X173045571Y-103528761D01*
X172997952Y-103481142D01*
X172902714Y-103338285D01*
X172855095Y-103147809D01*
X172855095Y-102766857D01*
X172902714Y-102671619D01*
X172950333Y-102624000D01*
X173045571Y-102576380D01*
X173236047Y-102576380D01*
X173331285Y-102624000D01*
X173378904Y-102671619D01*
X173426523Y-102766857D01*
X173426523Y-103004952D01*
X173378904Y-103100190D01*
X173331285Y-103147809D01*
X173236047Y-103195428D01*
X173045571Y-103195428D01*
X172950333Y-103147809D01*
X172902714Y-103100190D01*
X172855095Y-103004952D01*
X174759857Y-102052380D02*
X175093190Y-101576190D01*
X175331285Y-102052380D02*
X175331285Y-101052380D01*
X174950333Y-101052380D01*
X174855095Y-101100000D01*
X174807476Y-101147619D01*
X174759857Y-101242857D01*
X174759857Y-101385714D01*
X174807476Y-101480952D01*
X174855095Y-101528571D01*
X174950333Y-101576190D01*
X175331285Y-101576190D01*
X173902714Y-101385714D02*
X173902714Y-102052380D01*
X174140809Y-101004761D02*
X174378904Y-101719047D01*
X173759857Y-101719047D01*
X173188428Y-101052380D02*
X173093190Y-101052380D01*
X172997952Y-101100000D01*
X172950333Y-101147619D01*
X172902714Y-101242857D01*
X172855095Y-101433333D01*
X172855095Y-101671428D01*
X172902714Y-101861904D01*
X172950333Y-101957142D01*
X172997952Y-102004761D01*
X173093190Y-102052380D01*
X173188428Y-102052380D01*
X173283666Y-102004761D01*
X173331285Y-101957142D01*
X173378904Y-101861904D01*
X173426523Y-101671428D01*
X173426523Y-101433333D01*
X173378904Y-101242857D01*
X173331285Y-101147619D01*
X173283666Y-101100000D01*
X173188428Y-101052380D01*
X164884380Y-92321142D02*
X164408190Y-91987809D01*
X164884380Y-91749714D02*
X163884380Y-91749714D01*
X163884380Y-92130666D01*
X163932000Y-92225904D01*
X163979619Y-92273523D01*
X164074857Y-92321142D01*
X164217714Y-92321142D01*
X164312952Y-92273523D01*
X164360571Y-92225904D01*
X164408190Y-92130666D01*
X164408190Y-91749714D01*
X164217714Y-93178285D02*
X164884380Y-93178285D01*
X163836761Y-92940190D02*
X164551047Y-92702095D01*
X164551047Y-93321142D01*
X164884380Y-94225904D02*
X164884380Y-93654476D01*
X164884380Y-93940190D02*
X163884380Y-93940190D01*
X164027238Y-93844952D01*
X164122476Y-93749714D01*
X164170095Y-93654476D01*
X162694857Y-93322380D02*
X163028190Y-92846190D01*
X163266285Y-93322380D02*
X163266285Y-92322380D01*
X162885333Y-92322380D01*
X162790095Y-92370000D01*
X162742476Y-92417619D01*
X162694857Y-92512857D01*
X162694857Y-92655714D01*
X162742476Y-92750952D01*
X162790095Y-92798571D01*
X162885333Y-92846190D01*
X163266285Y-92846190D01*
X161837714Y-92655714D02*
X161837714Y-93322380D01*
X162075809Y-92274761D02*
X162313904Y-92989047D01*
X161694857Y-92989047D01*
X161361523Y-92417619D02*
X161313904Y-92370000D01*
X161218666Y-92322380D01*
X160980571Y-92322380D01*
X160885333Y-92370000D01*
X160837714Y-92417619D01*
X160790095Y-92512857D01*
X160790095Y-92608095D01*
X160837714Y-92750952D01*
X161409142Y-93322380D01*
X160790095Y-93322380D01*
X168821380Y-92321142D02*
X168345190Y-91987809D01*
X168821380Y-91749714D02*
X167821380Y-91749714D01*
X167821380Y-92130666D01*
X167869000Y-92225904D01*
X167916619Y-92273523D01*
X168011857Y-92321142D01*
X168154714Y-92321142D01*
X168249952Y-92273523D01*
X168297571Y-92225904D01*
X168345190Y-92130666D01*
X168345190Y-91749714D01*
X168154714Y-93178285D02*
X168821380Y-93178285D01*
X167773761Y-92940190D02*
X168488047Y-92702095D01*
X168488047Y-93321142D01*
X167821380Y-93606857D02*
X167821380Y-94225904D01*
X168202333Y-93892571D01*
X168202333Y-94035428D01*
X168249952Y-94130666D01*
X168297571Y-94178285D01*
X168392809Y-94225904D01*
X168630904Y-94225904D01*
X168726142Y-94178285D01*
X168773761Y-94130666D01*
X168821380Y-94035428D01*
X168821380Y-93749714D01*
X168773761Y-93654476D01*
X168726142Y-93606857D01*
X162694857Y-90401380D02*
X163028190Y-89925190D01*
X163266285Y-90401380D02*
X163266285Y-89401380D01*
X162885333Y-89401380D01*
X162790095Y-89449000D01*
X162742476Y-89496619D01*
X162694857Y-89591857D01*
X162694857Y-89734714D01*
X162742476Y-89829952D01*
X162790095Y-89877571D01*
X162885333Y-89925190D01*
X163266285Y-89925190D01*
X161837714Y-89734714D02*
X161837714Y-90401380D01*
X162075809Y-89353761D02*
X162313904Y-90068047D01*
X161694857Y-90068047D01*
X160885333Y-89734714D02*
X160885333Y-90401380D01*
X161123428Y-89353761D02*
X161361523Y-90068047D01*
X160742476Y-90068047D01*
X173012380Y-92194142D02*
X172536190Y-91860809D01*
X173012380Y-91622714D02*
X172012380Y-91622714D01*
X172012380Y-92003666D01*
X172060000Y-92098904D01*
X172107619Y-92146523D01*
X172202857Y-92194142D01*
X172345714Y-92194142D01*
X172440952Y-92146523D01*
X172488571Y-92098904D01*
X172536190Y-92003666D01*
X172536190Y-91622714D01*
X172345714Y-93051285D02*
X173012380Y-93051285D01*
X171964761Y-92813190D02*
X172679047Y-92575095D01*
X172679047Y-93194142D01*
X172012380Y-94051285D02*
X172012380Y-93575095D01*
X172488571Y-93527476D01*
X172440952Y-93575095D01*
X172393333Y-93670333D01*
X172393333Y-93908428D01*
X172440952Y-94003666D01*
X172488571Y-94051285D01*
X172583809Y-94098904D01*
X172821904Y-94098904D01*
X172917142Y-94051285D01*
X172964761Y-94003666D01*
X173012380Y-93908428D01*
X173012380Y-93670333D01*
X172964761Y-93575095D01*
X172917142Y-93527476D01*
X162694857Y-87480380D02*
X163028190Y-87004190D01*
X163266285Y-87480380D02*
X163266285Y-86480380D01*
X162885333Y-86480380D01*
X162790095Y-86528000D01*
X162742476Y-86575619D01*
X162694857Y-86670857D01*
X162694857Y-86813714D01*
X162742476Y-86908952D01*
X162790095Y-86956571D01*
X162885333Y-87004190D01*
X163266285Y-87004190D01*
X161837714Y-86813714D02*
X161837714Y-87480380D01*
X162075809Y-86432761D02*
X162313904Y-87147047D01*
X161694857Y-87147047D01*
X160885333Y-86480380D02*
X161075809Y-86480380D01*
X161171047Y-86528000D01*
X161218666Y-86575619D01*
X161313904Y-86718476D01*
X161361523Y-86908952D01*
X161361523Y-87289904D01*
X161313904Y-87385142D01*
X161266285Y-87432761D01*
X161171047Y-87480380D01*
X160980571Y-87480380D01*
X160885333Y-87432761D01*
X160837714Y-87385142D01*
X160790095Y-87289904D01*
X160790095Y-87051809D01*
X160837714Y-86956571D01*
X160885333Y-86908952D01*
X160980571Y-86861333D01*
X161171047Y-86861333D01*
X161266285Y-86908952D01*
X161313904Y-86956571D01*
X161361523Y-87051809D01*
X177330380Y-92194142D02*
X176854190Y-91860809D01*
X177330380Y-91622714D02*
X176330380Y-91622714D01*
X176330380Y-92003666D01*
X176378000Y-92098904D01*
X176425619Y-92146523D01*
X176520857Y-92194142D01*
X176663714Y-92194142D01*
X176758952Y-92146523D01*
X176806571Y-92098904D01*
X176854190Y-92003666D01*
X176854190Y-91622714D01*
X176663714Y-93051285D02*
X177330380Y-93051285D01*
X176282761Y-92813190D02*
X176997047Y-92575095D01*
X176997047Y-93194142D01*
X176330380Y-93479857D02*
X176330380Y-94146523D01*
X177330380Y-93717952D01*
X162694857Y-84559380D02*
X163028190Y-84083190D01*
X163266285Y-84559380D02*
X163266285Y-83559380D01*
X162885333Y-83559380D01*
X162790095Y-83607000D01*
X162742476Y-83654619D01*
X162694857Y-83749857D01*
X162694857Y-83892714D01*
X162742476Y-83987952D01*
X162790095Y-84035571D01*
X162885333Y-84083190D01*
X163266285Y-84083190D01*
X161837714Y-83892714D02*
X161837714Y-84559380D01*
X162075809Y-83511761D02*
X162313904Y-84226047D01*
X161694857Y-84226047D01*
X161171047Y-83987952D02*
X161266285Y-83940333D01*
X161313904Y-83892714D01*
X161361523Y-83797476D01*
X161361523Y-83749857D01*
X161313904Y-83654619D01*
X161266285Y-83607000D01*
X161171047Y-83559380D01*
X160980571Y-83559380D01*
X160885333Y-83607000D01*
X160837714Y-83654619D01*
X160790095Y-83749857D01*
X160790095Y-83797476D01*
X160837714Y-83892714D01*
X160885333Y-83940333D01*
X160980571Y-83987952D01*
X161171047Y-83987952D01*
X161266285Y-84035571D01*
X161313904Y-84083190D01*
X161361523Y-84178428D01*
X161361523Y-84368904D01*
X161313904Y-84464142D01*
X161266285Y-84511761D01*
X161171047Y-84559380D01*
X160980571Y-84559380D01*
X160885333Y-84511761D01*
X160837714Y-84464142D01*
X160790095Y-84368904D01*
X160790095Y-84178428D01*
X160837714Y-84083190D01*
X160885333Y-84035571D01*
X160980571Y-83987952D01*
M02*
