G04 #@! TF.GenerationSoftware,KiCad,Pcbnew,5.1.5*
G04 #@! TF.CreationDate,2020-03-07T11:26:49+01:00*
G04 #@! TF.ProjectId,himudev,68696d75-6465-4762-9e6b-696361645f70,rev?*
G04 #@! TF.SameCoordinates,Original*
G04 #@! TF.FileFunction,Legend,Top*
G04 #@! TF.FilePolarity,Positive*
%FSLAX46Y46*%
G04 Gerber Fmt 4.6, Leading zero omitted, Abs format (unit mm)*
G04 Created by KiCad (PCBNEW 5.1.5) date 2020-03-07 11:26:49*
%MOMM*%
%LPD*%
G04 APERTURE LIST*
%ADD10C,0.300000*%
%ADD11C,0.120000*%
%ADD12C,0.152400*%
%ADD13C,0.100000*%
%ADD14C,0.150000*%
%ADD15C,0.060960*%
G04 APERTURE END LIST*
D10*
X138271428Y-100778571D02*
X139271428Y-100778571D01*
X138271428Y-102278571D01*
X139271428Y-102278571D01*
X140271428Y-101135714D02*
X140557142Y-101135714D01*
X140842857Y-101278571D01*
X140985714Y-101564285D01*
X140985714Y-101850000D01*
X140842857Y-102135714D01*
X140557142Y-102278571D01*
X140271428Y-102278571D01*
X139985714Y-102135714D01*
X139842857Y-101850000D01*
X139842857Y-101564285D01*
X139985714Y-101278571D01*
X140271428Y-101135714D01*
X140414285Y-101635714D02*
X140342857Y-101707142D01*
X140414285Y-101778571D01*
X140485714Y-101707142D01*
X140414285Y-101635714D01*
X140414285Y-101778571D01*
X141827428Y-100778571D02*
X142827428Y-102278571D01*
X142827428Y-100778571D02*
X141827428Y-102278571D01*
X143398857Y-101421428D02*
X143398857Y-101992857D01*
X144541714Y-101707142D02*
X143398857Y-101707142D01*
X144256000Y-101992857D02*
X144541714Y-101707142D01*
X144256000Y-101421428D01*
X140462000Y-97955571D02*
X140462000Y-96812714D01*
X140747714Y-97955571D02*
X140176285Y-97955571D01*
X140176285Y-97098428D02*
X140462000Y-96812714D01*
X140747714Y-97098428D01*
X140462000Y-99791285D02*
X140462000Y-100505571D01*
X139962000Y-99005571D02*
X140462000Y-99791285D01*
X140962000Y-99005571D01*
X140400000Y-83101571D02*
X140400000Y-81601571D01*
X141042857Y-83101571D02*
X141042857Y-82315857D01*
X140971428Y-82173000D01*
X140828571Y-82101571D01*
X140614285Y-82101571D01*
X140471428Y-82173000D01*
X140400000Y-82244428D01*
X141757142Y-83101571D02*
X141757142Y-81601571D01*
X142471428Y-83101571D02*
X142471428Y-81601571D01*
X142971428Y-82673000D01*
X143471428Y-81601571D01*
X143471428Y-83101571D01*
X144185714Y-81601571D02*
X144185714Y-82815857D01*
X144257142Y-82958714D01*
X144328571Y-83030142D01*
X144471428Y-83101571D01*
X144757142Y-83101571D01*
X144900000Y-83030142D01*
X144971428Y-82958714D01*
X145042857Y-82815857D01*
X145042857Y-81601571D01*
X146400000Y-83101571D02*
X146400000Y-81601571D01*
X146400000Y-83030142D02*
X146257142Y-83101571D01*
X145971428Y-83101571D01*
X145828571Y-83030142D01*
X145757142Y-82958714D01*
X145685714Y-82815857D01*
X145685714Y-82387285D01*
X145757142Y-82244428D01*
X145828571Y-82173000D01*
X145971428Y-82101571D01*
X146257142Y-82101571D01*
X146400000Y-82173000D01*
X147685714Y-83030142D02*
X147542857Y-83101571D01*
X147257142Y-83101571D01*
X147114285Y-83030142D01*
X147042857Y-82887285D01*
X147042857Y-82315857D01*
X147114285Y-82173000D01*
X147257142Y-82101571D01*
X147542857Y-82101571D01*
X147685714Y-82173000D01*
X147757142Y-82315857D01*
X147757142Y-82458714D01*
X147042857Y-82601571D01*
X148257142Y-82101571D02*
X148614285Y-83101571D01*
X148971428Y-82101571D01*
X151471428Y-83101571D02*
X150614285Y-83101571D01*
X151042857Y-83101571D02*
X151042857Y-81601571D01*
X150900000Y-81815857D01*
X150757142Y-81958714D01*
X150614285Y-82030142D01*
X152114285Y-82958714D02*
X152185714Y-83030142D01*
X152114285Y-83101571D01*
X152042857Y-83030142D01*
X152114285Y-82958714D01*
X152114285Y-83101571D01*
X153114285Y-81601571D02*
X153257142Y-81601571D01*
X153400000Y-81673000D01*
X153471428Y-81744428D01*
X153542857Y-81887285D01*
X153614285Y-82173000D01*
X153614285Y-82530142D01*
X153542857Y-82815857D01*
X153471428Y-82958714D01*
X153400000Y-83030142D01*
X153257142Y-83101571D01*
X153114285Y-83101571D01*
X152971428Y-83030142D01*
X152900000Y-82958714D01*
X152828571Y-82815857D01*
X152757142Y-82530142D01*
X152757142Y-82173000D01*
X152828571Y-81887285D01*
X152900000Y-81744428D01*
X152971428Y-81673000D01*
X153114285Y-81601571D01*
X155400000Y-83101571D02*
X155400000Y-81601571D01*
X155900000Y-82673000D01*
X156400000Y-81601571D01*
X156400000Y-83101571D01*
X156900000Y-81601571D02*
X157757142Y-81601571D01*
X157328571Y-83101571D02*
X157328571Y-81601571D01*
X159328571Y-81744428D02*
X159400000Y-81673000D01*
X159542857Y-81601571D01*
X159900000Y-81601571D01*
X160042857Y-81673000D01*
X160114285Y-81744428D01*
X160185714Y-81887285D01*
X160185714Y-82030142D01*
X160114285Y-82244428D01*
X159257142Y-83101571D01*
X160185714Y-83101571D01*
X161114285Y-81601571D02*
X161257142Y-81601571D01*
X161400000Y-81673000D01*
X161471428Y-81744428D01*
X161542857Y-81887285D01*
X161614285Y-82173000D01*
X161614285Y-82530142D01*
X161542857Y-82815857D01*
X161471428Y-82958714D01*
X161400000Y-83030142D01*
X161257142Y-83101571D01*
X161114285Y-83101571D01*
X160971428Y-83030142D01*
X160900000Y-82958714D01*
X160828571Y-82815857D01*
X160757142Y-82530142D01*
X160757142Y-82173000D01*
X160828571Y-81887285D01*
X160900000Y-81744428D01*
X160971428Y-81673000D01*
X161114285Y-81601571D01*
X162185714Y-81744428D02*
X162257142Y-81673000D01*
X162400000Y-81601571D01*
X162757142Y-81601571D01*
X162900000Y-81673000D01*
X162971428Y-81744428D01*
X163042857Y-81887285D01*
X163042857Y-82030142D01*
X162971428Y-82244428D01*
X162114285Y-83101571D01*
X163042857Y-83101571D01*
X163971428Y-81601571D02*
X164114285Y-81601571D01*
X164257142Y-81673000D01*
X164328571Y-81744428D01*
X164400000Y-81887285D01*
X164471428Y-82173000D01*
X164471428Y-82530142D01*
X164400000Y-82815857D01*
X164328571Y-82958714D01*
X164257142Y-83030142D01*
X164114285Y-83101571D01*
X163971428Y-83101571D01*
X163828571Y-83030142D01*
X163757142Y-82958714D01*
X163685714Y-82815857D01*
X163614285Y-82530142D01*
X163614285Y-82173000D01*
X163685714Y-81887285D01*
X163757142Y-81744428D01*
X163828571Y-81673000D01*
X163971428Y-81601571D01*
D11*
X128695267Y-93089000D02*
X128352733Y-93089000D01*
X128695267Y-94109000D02*
X128352733Y-94109000D01*
X141041000Y-93935000D02*
X141041000Y-91075000D01*
X139121000Y-93935000D02*
X141041000Y-93935000D01*
X139121000Y-91075000D02*
X139121000Y-93935000D01*
X166517000Y-98490000D02*
X167067000Y-98490000D01*
X167067000Y-98490000D02*
X167067000Y-99040000D01*
X161397000Y-104710000D02*
X160847000Y-104710000D01*
X160847000Y-104710000D02*
X160847000Y-104160000D01*
X166517000Y-104710000D02*
X167067000Y-104710000D01*
X167067000Y-104710000D02*
X167067000Y-104160000D01*
X161397000Y-98500000D02*
X160857000Y-99040000D01*
D12*
X109773000Y-97280000D02*
X107973000Y-97280000D01*
X109773000Y-105920000D02*
X107973000Y-105920000D01*
D11*
X187258000Y-118870000D02*
X187258000Y-119890000D01*
X182058000Y-118870000D02*
X182058000Y-119890000D01*
X187258000Y-116330000D02*
X187258000Y-117350000D01*
X182058000Y-116330000D02*
X182058000Y-117350000D01*
X187258000Y-113790000D02*
X187258000Y-114810000D01*
X182058000Y-113790000D02*
X182058000Y-114810000D01*
X187258000Y-111250000D02*
X187258000Y-112270000D01*
X182058000Y-111250000D02*
X182058000Y-112270000D01*
X187258000Y-108710000D02*
X187258000Y-109730000D01*
X182058000Y-108710000D02*
X182058000Y-109730000D01*
X187258000Y-106170000D02*
X187258000Y-107190000D01*
X182058000Y-106170000D02*
X182058000Y-107190000D01*
X187258000Y-103630000D02*
X187258000Y-104650000D01*
X182058000Y-103630000D02*
X182058000Y-104650000D01*
X187258000Y-101090000D02*
X187258000Y-102110000D01*
X182058000Y-101090000D02*
X182058000Y-102110000D01*
X187258000Y-98550000D02*
X187258000Y-99570000D01*
X182058000Y-98550000D02*
X182058000Y-99570000D01*
X187258000Y-96010000D02*
X187258000Y-97030000D01*
X182058000Y-96010000D02*
X182058000Y-97030000D01*
X187258000Y-93470000D02*
X187258000Y-94490000D01*
X182058000Y-93470000D02*
X182058000Y-94490000D01*
X187258000Y-90930000D02*
X187258000Y-91950000D01*
X182058000Y-90930000D02*
X182058000Y-91950000D01*
X187258000Y-88390000D02*
X187258000Y-89410000D01*
X182058000Y-88390000D02*
X182058000Y-89410000D01*
X187258000Y-85850000D02*
X187258000Y-86870000D01*
X182058000Y-85850000D02*
X182058000Y-86870000D01*
X187258000Y-83310000D02*
X187258000Y-84330000D01*
X182058000Y-83310000D02*
X182058000Y-84330000D01*
X187258000Y-121410000D02*
X187258000Y-121980000D01*
X182058000Y-121410000D02*
X182058000Y-121980000D01*
X187258000Y-81220000D02*
X187258000Y-81790000D01*
X182058000Y-81220000D02*
X182058000Y-81790000D01*
X180618000Y-81790000D02*
X182058000Y-81790000D01*
X182058000Y-121980000D02*
X187258000Y-121980000D01*
X182058000Y-81220000D02*
X187258000Y-81220000D01*
X114108000Y-89062000D02*
X115958000Y-89062000D01*
X114108000Y-90262000D02*
X115958000Y-90262000D01*
X115958000Y-90262000D02*
X115958000Y-89062000D01*
X123442000Y-90353000D02*
X121982000Y-90353000D01*
X123442000Y-87193000D02*
X121282000Y-87193000D01*
X123442000Y-87193000D02*
X123442000Y-88123000D01*
X123442000Y-90353000D02*
X123442000Y-89423000D01*
X115641000Y-113112000D02*
X115641000Y-110252000D01*
X113721000Y-113112000D02*
X115641000Y-113112000D01*
X113721000Y-110252000D02*
X113721000Y-113112000D01*
X121991000Y-113112000D02*
X121991000Y-110252000D01*
X120071000Y-113112000D02*
X121991000Y-113112000D01*
X120071000Y-110252000D02*
X120071000Y-113112000D01*
X147899000Y-93935000D02*
X147899000Y-91075000D01*
X145979000Y-93935000D02*
X147899000Y-93935000D01*
X145979000Y-91075000D02*
X145979000Y-93935000D01*
X137612000Y-93935000D02*
X137612000Y-91075000D01*
X135692000Y-93935000D02*
X137612000Y-93935000D01*
X135692000Y-91075000D02*
X135692000Y-93935000D01*
X144470000Y-93935000D02*
X144470000Y-91075000D01*
X142550000Y-93935000D02*
X144470000Y-93935000D01*
X142550000Y-91075000D02*
X142550000Y-93935000D01*
X115089000Y-119498000D02*
X115089000Y-121958000D01*
X116559000Y-119498000D02*
X115089000Y-119498000D01*
X116559000Y-121958000D02*
X116559000Y-119498000D01*
X165508000Y-119498000D02*
X165508000Y-121958000D01*
X166978000Y-119498000D02*
X165508000Y-119498000D01*
X166978000Y-121958000D02*
X166978000Y-119498000D01*
X167838000Y-90760000D02*
X167838000Y-87900000D01*
X165918000Y-90760000D02*
X167838000Y-90760000D01*
X165918000Y-87900000D02*
X165918000Y-90760000D01*
X171267000Y-90760000D02*
X171267000Y-87900000D01*
X169347000Y-90760000D02*
X171267000Y-90760000D01*
X169347000Y-87900000D02*
X169347000Y-90760000D01*
X174696000Y-90760000D02*
X174696000Y-87900000D01*
X172776000Y-90760000D02*
X174696000Y-90760000D01*
X172776000Y-87900000D02*
X172776000Y-90760000D01*
X178125000Y-90760000D02*
X178125000Y-87900000D01*
X176205000Y-90760000D02*
X178125000Y-90760000D01*
X176205000Y-87900000D02*
X176205000Y-90760000D01*
X119260252Y-90476000D02*
X118737748Y-90476000D01*
X119260252Y-91896000D02*
X118737748Y-91896000D01*
X108271000Y-91692000D02*
X108271000Y-94802000D01*
X110931000Y-94232000D02*
X110931000Y-94802000D01*
X108271000Y-89602000D02*
X108271000Y-90172000D01*
X108271000Y-90172000D02*
X106751000Y-90172000D01*
X110931000Y-89602000D02*
X110931000Y-92712000D01*
X108271000Y-94802000D02*
X110931000Y-94802000D01*
X108271000Y-89602000D02*
X110931000Y-89602000D01*
X115891000Y-82675000D02*
X115891000Y-86235000D01*
X118551000Y-85215000D02*
X118551000Y-88325000D01*
X118551000Y-87755000D02*
X118551000Y-88325000D01*
X115891000Y-80585000D02*
X115891000Y-81155000D01*
X115891000Y-81155000D02*
X114371000Y-81155000D01*
X118551000Y-80585000D02*
X118551000Y-83695000D01*
X115891000Y-88325000D02*
X118551000Y-88325000D01*
X115891000Y-80585000D02*
X118551000Y-80585000D01*
D13*
X144294000Y-115064000D02*
X143994000Y-115064000D01*
X144294000Y-115364000D02*
X144294000Y-115064000D01*
X144294000Y-121664000D02*
X143994000Y-121664000D01*
X144294000Y-121364000D02*
X144294000Y-121664000D01*
X140694000Y-121664000D02*
X140994000Y-121664000D01*
X140694000Y-121364000D02*
X140694000Y-121664000D01*
X140694000Y-115064000D02*
X140994000Y-115064000D01*
X140694000Y-115364000D02*
X140694000Y-115064000D01*
D11*
X121737000Y-93343000D02*
X121737000Y-91883000D01*
X124897000Y-93343000D02*
X124897000Y-91183000D01*
X124897000Y-93343000D02*
X123967000Y-93343000D01*
X121737000Y-93343000D02*
X122667000Y-93343000D01*
X144227000Y-97934000D02*
X145637000Y-97934000D01*
X145637000Y-95614000D02*
X143607000Y-95614000D01*
X145637000Y-95614000D02*
X145637000Y-96274000D01*
X145637000Y-97274000D02*
X145637000Y-97934000D01*
D13*
X118734000Y-119582000D02*
X118734000Y-119082000D01*
X118734000Y-119582000D02*
X118734000Y-120082000D01*
X124934000Y-119582000D02*
X124934000Y-119082000D01*
X124934000Y-119582000D02*
X124934000Y-120082000D01*
X121834000Y-122682000D02*
X121334000Y-122682000D01*
X121834000Y-122682000D02*
X122334000Y-122682000D01*
X121834000Y-116482000D02*
X122334000Y-116482000D01*
X121834000Y-116482000D02*
X121334000Y-116482000D01*
X118434000Y-116582000D02*
X117234000Y-116582000D01*
X118734000Y-116582000D02*
X118434000Y-116582000D01*
X118734000Y-116482000D02*
X118734000Y-116582000D01*
X119234000Y-116482000D02*
X118734000Y-116482000D01*
X157166000Y-119582000D02*
X157166000Y-119082000D01*
X157166000Y-119582000D02*
X157166000Y-120082000D01*
X163366000Y-119582000D02*
X163366000Y-119082000D01*
X163366000Y-119582000D02*
X163366000Y-120082000D01*
X160266000Y-122682000D02*
X159766000Y-122682000D01*
X160266000Y-122682000D02*
X160766000Y-122682000D01*
X160266000Y-116482000D02*
X160766000Y-116482000D01*
X160266000Y-116482000D02*
X159766000Y-116482000D01*
X156866000Y-116582000D02*
X155666000Y-116582000D01*
X157166000Y-116582000D02*
X156866000Y-116582000D01*
X157166000Y-116482000D02*
X157166000Y-116582000D01*
X157666000Y-116482000D02*
X157166000Y-116482000D01*
D11*
X108773000Y-109728000D02*
G75*
G03X108773000Y-109728000I-950000J0D01*
G01*
X123251000Y-82550000D02*
G75*
G03X123251000Y-82550000I-950000J0D01*
G01*
X136967000Y-95631000D02*
G75*
G03X136967000Y-95631000I-950000J0D01*
G01*
X126807000Y-103759000D02*
G75*
G03X126807000Y-103759000I-950000J0D01*
G01*
X125156000Y-110109000D02*
G75*
G03X125156000Y-110109000I-950000J0D01*
G01*
X134935000Y-114300000D02*
G75*
G03X134935000Y-114300000I-950000J0D01*
G01*
X151572000Y-86741000D02*
G75*
G03X151572000Y-86741000I-950000J0D01*
G01*
X145984000Y-109601000D02*
G75*
G03X145984000Y-109601000I-950000J0D01*
G01*
X169987000Y-110490000D02*
G75*
G03X169987000Y-110490000I-950000J0D01*
G01*
D14*
X127323000Y-110463000D02*
X127323000Y-105188000D01*
X132723000Y-109188000D02*
X132723000Y-105188000D01*
D11*
X132347999Y-88773000D02*
X132347999Y-85323000D01*
X132347999Y-88773000D02*
X132347999Y-90723000D01*
X127227999Y-88773000D02*
X127227999Y-86823000D01*
X127227999Y-88773000D02*
X127227999Y-90723000D01*
X142104000Y-105043000D02*
X139674000Y-105043000D01*
X140344000Y-108113000D02*
X142104000Y-108113000D01*
X153797000Y-89007000D02*
X150347000Y-89007000D01*
X153797000Y-89007000D02*
X155747000Y-89007000D01*
X153797000Y-94127000D02*
X151847000Y-94127000D01*
X153797000Y-94127000D02*
X155747000Y-94127000D01*
D14*
X150800000Y-100000000D02*
X151200000Y-100000000D01*
X154000000Y-100000000D02*
X153600000Y-100000000D01*
X154000000Y-100000000D02*
X154000000Y-100400000D01*
X154000000Y-103200000D02*
X153600000Y-103200000D01*
X154000000Y-103200000D02*
X154000000Y-102800000D01*
X150800000Y-103200000D02*
X151200000Y-103200000D01*
X150800000Y-103200000D02*
X150800000Y-102800000D01*
D13*
X194734000Y-102200000D02*
X194734000Y-102700000D01*
X194734000Y-102700000D02*
X195084000Y-102700000D01*
X196584000Y-102700000D02*
X196934000Y-102700000D01*
X196934000Y-102700000D02*
X196934000Y-102150000D01*
X196584000Y-100500000D02*
X196934000Y-100500000D01*
X196934000Y-100500000D02*
X196934000Y-101150000D01*
X195184000Y-100500000D02*
X195034000Y-100500000D01*
X195034000Y-100500000D02*
X194734000Y-100800000D01*
X194734000Y-100800000D02*
X194734000Y-101050000D01*
X194734000Y-101050000D02*
X194634000Y-101050000D01*
D11*
X163449000Y-112496600D02*
X163449000Y-109245400D01*
X167233600Y-112496600D02*
X163449000Y-112496600D01*
X167233600Y-109245400D02*
X167233600Y-112496600D01*
X163449000Y-109245400D02*
X167233600Y-109245400D01*
X155677000Y-113692000D02*
X156997000Y-113692000D01*
X156997000Y-108812000D02*
X155677000Y-108812000D01*
X154387000Y-112102000D02*
X154387000Y-110402000D01*
X158287000Y-112102000D02*
X158287000Y-110402000D01*
X115652733Y-94109000D02*
X115995267Y-94109000D01*
X115652733Y-93089000D02*
X115995267Y-93089000D01*
X116922733Y-105539000D02*
X117265267Y-105539000D01*
X116922733Y-104519000D02*
X117265267Y-104519000D01*
X123065000Y-97745733D02*
X123065000Y-98088267D01*
X122045000Y-97745733D02*
X122045000Y-98088267D01*
X116922733Y-98681000D02*
X117265267Y-98681000D01*
X116922733Y-97661000D02*
X117265267Y-97661000D01*
X124716000Y-97745733D02*
X124716000Y-98088267D01*
X123696000Y-97745733D02*
X123696000Y-98088267D01*
X133221000Y-100755267D02*
X133221000Y-100412733D01*
X134241000Y-100755267D02*
X134241000Y-100412733D01*
X125986000Y-83902733D02*
X125986000Y-84245267D01*
X124966000Y-83902733D02*
X124966000Y-84245267D01*
X129796000Y-113239733D02*
X129796000Y-113582267D01*
X128776000Y-113239733D02*
X128776000Y-113582267D01*
X132332000Y-94316733D02*
X132332000Y-94659267D01*
X133352000Y-94316733D02*
X133352000Y-94659267D01*
X124758267Y-95760000D02*
X124415733Y-95760000D01*
X124758267Y-94740000D02*
X124415733Y-94740000D01*
X137539000Y-106381733D02*
X137539000Y-106724267D01*
X138559000Y-106381733D02*
X138559000Y-106724267D01*
X142157267Y-108710000D02*
X141814733Y-108710000D01*
X142157267Y-109730000D02*
X141814733Y-109730000D01*
X144909000Y-106381733D02*
X144909000Y-106724267D01*
X143889000Y-106381733D02*
X143889000Y-106724267D01*
X159260000Y-90252733D02*
X159260000Y-90595267D01*
X158240000Y-90252733D02*
X158240000Y-90595267D01*
X152779000Y-111080733D02*
X152779000Y-111423267D01*
X153799000Y-111080733D02*
X153799000Y-111423267D01*
X164801733Y-108714000D02*
X165144267Y-108714000D01*
X164801733Y-107694000D02*
X165144267Y-107694000D01*
X158875000Y-111423267D02*
X158875000Y-111080733D01*
X159895000Y-111423267D02*
X159895000Y-111080733D01*
X153799000Y-105492733D02*
X153799000Y-105835267D01*
X152779000Y-105492733D02*
X152779000Y-105835267D01*
X149985000Y-105492733D02*
X149985000Y-105835267D01*
X151005000Y-105492733D02*
X151005000Y-105835267D01*
X155958000Y-101771267D02*
X155958000Y-101428733D01*
X154938000Y-101771267D02*
X154938000Y-101428733D01*
X156589000Y-101771267D02*
X156589000Y-101428733D01*
X157609000Y-101771267D02*
X157609000Y-101428733D01*
X192576267Y-103884000D02*
X192233733Y-103884000D01*
X192576267Y-104904000D02*
X192233733Y-104904000D01*
X195789733Y-96899000D02*
X196132267Y-96899000D01*
X195789733Y-97919000D02*
X196132267Y-97919000D01*
X195789733Y-94490000D02*
X196132267Y-94490000D01*
X195789733Y-93470000D02*
X196132267Y-93470000D01*
X127252000Y-113239733D02*
X127252000Y-113582267D01*
X128272000Y-113239733D02*
X128272000Y-113582267D01*
X192487733Y-109349000D02*
X192830267Y-109349000D01*
X192487733Y-108329000D02*
X192830267Y-108329000D01*
X131320000Y-113239733D02*
X131320000Y-113582267D01*
X130300000Y-113239733D02*
X130300000Y-113582267D01*
X192487733Y-110615000D02*
X192830267Y-110615000D01*
X192487733Y-111635000D02*
X192830267Y-111635000D01*
X192487733Y-113921000D02*
X192830267Y-113921000D01*
X192487733Y-112901000D02*
X192830267Y-112901000D01*
X116922733Y-106805000D02*
X117265267Y-106805000D01*
X116922733Y-107825000D02*
X117265267Y-107825000D01*
X116922733Y-95375000D02*
X117265267Y-95375000D01*
X116922733Y-96395000D02*
X117265267Y-96395000D01*
X117265267Y-103253000D02*
X116922733Y-103253000D01*
X117265267Y-102233000D02*
X116922733Y-102233000D01*
X117265267Y-99947000D02*
X116922733Y-99947000D01*
X117265267Y-100967000D02*
X116922733Y-100967000D01*
X128225733Y-98296000D02*
X128568267Y-98296000D01*
X128225733Y-99316000D02*
X128568267Y-99316000D01*
X124966000Y-88690267D02*
X124966000Y-88347733D01*
X125986000Y-88690267D02*
X125986000Y-88347733D01*
X126367000Y-98088267D02*
X126367000Y-97745733D01*
X125347000Y-98088267D02*
X125347000Y-97745733D01*
X128568267Y-100967000D02*
X128225733Y-100967000D01*
X128568267Y-99947000D02*
X128225733Y-99947000D01*
X112016000Y-111423267D02*
X112016000Y-111080733D01*
X110996000Y-111423267D02*
X110996000Y-111080733D01*
X118366000Y-111423267D02*
X118366000Y-111080733D01*
X117346000Y-111423267D02*
X117346000Y-111080733D01*
X126998000Y-95967733D02*
X126998000Y-96310267D01*
X128018000Y-95967733D02*
X128018000Y-96310267D01*
X147957000Y-98634733D02*
X147957000Y-98977267D01*
X146937000Y-98634733D02*
X146937000Y-98977267D01*
X138601267Y-108710000D02*
X138258733Y-108710000D01*
X138601267Y-109730000D02*
X138258733Y-109730000D01*
X147449000Y-87839733D02*
X147449000Y-88182267D01*
X146429000Y-87839733D02*
X146429000Y-88182267D01*
X137162000Y-87839733D02*
X137162000Y-88182267D01*
X136142000Y-87839733D02*
X136142000Y-88182267D01*
X139571000Y-87839733D02*
X139571000Y-88182267D01*
X140591000Y-87839733D02*
X140591000Y-88182267D01*
X144020000Y-87839733D02*
X144020000Y-88182267D01*
X143000000Y-87839733D02*
X143000000Y-88182267D01*
X115314000Y-117430733D02*
X115314000Y-117773267D01*
X116334000Y-117430733D02*
X116334000Y-117773267D01*
X156508267Y-108333000D02*
X156165733Y-108333000D01*
X156508267Y-107313000D02*
X156165733Y-107313000D01*
X153625733Y-87501000D02*
X153968267Y-87501000D01*
X153625733Y-88521000D02*
X153968267Y-88521000D01*
X161288000Y-91268733D02*
X161288000Y-91611267D01*
X162308000Y-91268733D02*
X162308000Y-91611267D01*
X149142267Y-114425000D02*
X148799733Y-114425000D01*
X149142267Y-115445000D02*
X148799733Y-115445000D01*
X152698267Y-118874000D02*
X152355733Y-118874000D01*
X152698267Y-117854000D02*
X152355733Y-117854000D01*
X149142267Y-116203000D02*
X148799733Y-116203000D01*
X149142267Y-117223000D02*
X148799733Y-117223000D01*
X149142267Y-120144000D02*
X148799733Y-120144000D01*
X149142267Y-119124000D02*
X148799733Y-119124000D01*
X166753000Y-117430733D02*
X166753000Y-117773267D01*
X165733000Y-117430733D02*
X165733000Y-117773267D01*
X148164733Y-102360000D02*
X148507267Y-102360000D01*
X148164733Y-103380000D02*
X148507267Y-103380000D01*
X192407000Y-99523733D02*
X192407000Y-99866267D01*
X191387000Y-99523733D02*
X191387000Y-99866267D01*
X195662733Y-107190000D02*
X196005267Y-107190000D01*
X195662733Y-106170000D02*
X196005267Y-106170000D01*
X193757733Y-91061000D02*
X194100267Y-91061000D01*
X193757733Y-90041000D02*
X194100267Y-90041000D01*
D14*
X130897333Y-93956142D02*
X130849714Y-94003761D01*
X130706857Y-94051380D01*
X130611619Y-94051380D01*
X130468761Y-94003761D01*
X130373523Y-93908523D01*
X130325904Y-93813285D01*
X130278285Y-93622809D01*
X130278285Y-93479952D01*
X130325904Y-93289476D01*
X130373523Y-93194238D01*
X130468761Y-93099000D01*
X130611619Y-93051380D01*
X130706857Y-93051380D01*
X130849714Y-93099000D01*
X130897333Y-93146619D01*
X131468761Y-93479952D02*
X131373523Y-93432333D01*
X131325904Y-93384714D01*
X131278285Y-93289476D01*
X131278285Y-93241857D01*
X131325904Y-93146619D01*
X131373523Y-93099000D01*
X131468761Y-93051380D01*
X131659238Y-93051380D01*
X131754476Y-93099000D01*
X131802095Y-93146619D01*
X131849714Y-93241857D01*
X131849714Y-93289476D01*
X131802095Y-93384714D01*
X131754476Y-93432333D01*
X131659238Y-93479952D01*
X131468761Y-93479952D01*
X131373523Y-93527571D01*
X131325904Y-93575190D01*
X131278285Y-93670428D01*
X131278285Y-93860904D01*
X131325904Y-93956142D01*
X131373523Y-94003761D01*
X131468761Y-94051380D01*
X131659238Y-94051380D01*
X131754476Y-94003761D01*
X131802095Y-93956142D01*
X131849714Y-93860904D01*
X131849714Y-93670428D01*
X131802095Y-93575190D01*
X131754476Y-93527571D01*
X131659238Y-93479952D01*
X138883380Y-92813095D02*
X137883380Y-92813095D01*
X137883380Y-92575000D01*
X137931000Y-92432142D01*
X138026238Y-92336904D01*
X138121476Y-92289285D01*
X138311952Y-92241666D01*
X138454809Y-92241666D01*
X138645285Y-92289285D01*
X138740523Y-92336904D01*
X138835761Y-92432142D01*
X138883380Y-92575000D01*
X138883380Y-92813095D01*
X137883380Y-91908333D02*
X137883380Y-91241666D01*
X138883380Y-91670238D01*
X163195095Y-96732380D02*
X163195095Y-97541904D01*
X163242714Y-97637142D01*
X163290333Y-97684761D01*
X163385571Y-97732380D01*
X163576047Y-97732380D01*
X163671285Y-97684761D01*
X163718904Y-97637142D01*
X163766523Y-97541904D01*
X163766523Y-96732380D01*
X164718904Y-96732380D02*
X164242714Y-96732380D01*
X164195095Y-97208571D01*
X164242714Y-97160952D01*
X164337952Y-97113333D01*
X164576047Y-97113333D01*
X164671285Y-97160952D01*
X164718904Y-97208571D01*
X164766523Y-97303809D01*
X164766523Y-97541904D01*
X164718904Y-97637142D01*
X164671285Y-97684761D01*
X164576047Y-97732380D01*
X164337952Y-97732380D01*
X164242714Y-97684761D01*
X164195095Y-97637142D01*
D15*
X107876578Y-103323571D02*
X108462592Y-103323571D01*
X108531535Y-103289100D01*
X108566007Y-103254628D01*
X108600478Y-103185685D01*
X108600478Y-103047800D01*
X108566007Y-102978857D01*
X108531535Y-102944385D01*
X108462592Y-102909914D01*
X107876578Y-102909914D01*
X108566007Y-102599671D02*
X108600478Y-102496257D01*
X108600478Y-102323900D01*
X108566007Y-102254957D01*
X108531535Y-102220485D01*
X108462592Y-102186014D01*
X108393650Y-102186014D01*
X108324707Y-102220485D01*
X108290235Y-102254957D01*
X108255764Y-102323900D01*
X108221292Y-102461785D01*
X108186821Y-102530728D01*
X108152350Y-102565200D01*
X108083407Y-102599671D01*
X108014464Y-102599671D01*
X107945521Y-102565200D01*
X107911050Y-102530728D01*
X107876578Y-102461785D01*
X107876578Y-102289428D01*
X107911050Y-102186014D01*
X108221292Y-101634471D02*
X108255764Y-101531057D01*
X108290235Y-101496585D01*
X108359178Y-101462114D01*
X108462592Y-101462114D01*
X108531535Y-101496585D01*
X108566007Y-101531057D01*
X108600478Y-101600000D01*
X108600478Y-101875771D01*
X107876578Y-101875771D01*
X107876578Y-101634471D01*
X107911050Y-101565528D01*
X107945521Y-101531057D01*
X108014464Y-101496585D01*
X108083407Y-101496585D01*
X108152350Y-101531057D01*
X108186821Y-101565528D01*
X108221292Y-101634471D01*
X108221292Y-101875771D01*
X108324707Y-101151871D02*
X108324707Y-100600328D01*
X108531535Y-99841957D02*
X108566007Y-99876428D01*
X108600478Y-99979842D01*
X108600478Y-100048785D01*
X108566007Y-100152200D01*
X108497064Y-100221142D01*
X108428121Y-100255614D01*
X108290235Y-100290085D01*
X108186821Y-100290085D01*
X108048935Y-100255614D01*
X107979992Y-100221142D01*
X107911050Y-100152200D01*
X107876578Y-100048785D01*
X107876578Y-99979842D01*
X107911050Y-99876428D01*
X107945521Y-99841957D01*
D14*
X177212666Y-81367380D02*
X177212666Y-82081666D01*
X177165047Y-82224523D01*
X177069809Y-82319761D01*
X176926952Y-82367380D01*
X176831714Y-82367380D01*
X178165047Y-81367380D02*
X177688857Y-81367380D01*
X177641238Y-81843571D01*
X177688857Y-81795952D01*
X177784095Y-81748333D01*
X178022190Y-81748333D01*
X178117428Y-81795952D01*
X178165047Y-81843571D01*
X178212666Y-81938809D01*
X178212666Y-82176904D01*
X178165047Y-82272142D01*
X178117428Y-82319761D01*
X178022190Y-82367380D01*
X177784095Y-82367380D01*
X177688857Y-82319761D01*
X177641238Y-82272142D01*
X114069904Y-91414380D02*
X114069904Y-90414380D01*
X114308000Y-90414380D01*
X114450857Y-90462000D01*
X114546095Y-90557238D01*
X114593714Y-90652476D01*
X114641333Y-90842952D01*
X114641333Y-90985809D01*
X114593714Y-91176285D01*
X114546095Y-91271523D01*
X114450857Y-91366761D01*
X114308000Y-91414380D01*
X114069904Y-91414380D01*
X115593714Y-91414380D02*
X115022285Y-91414380D01*
X115308000Y-91414380D02*
X115308000Y-90414380D01*
X115212761Y-90557238D01*
X115117523Y-90652476D01*
X115022285Y-90700095D01*
X121943904Y-86725380D02*
X121943904Y-85725380D01*
X122182000Y-85725380D01*
X122324857Y-85773000D01*
X122420095Y-85868238D01*
X122467714Y-85963476D01*
X122515333Y-86153952D01*
X122515333Y-86296809D01*
X122467714Y-86487285D01*
X122420095Y-86582523D01*
X122324857Y-86677761D01*
X122182000Y-86725380D01*
X121943904Y-86725380D01*
X122896285Y-85820619D02*
X122943904Y-85773000D01*
X123039142Y-85725380D01*
X123277238Y-85725380D01*
X123372476Y-85773000D01*
X123420095Y-85820619D01*
X123467714Y-85915857D01*
X123467714Y-86011095D01*
X123420095Y-86153952D01*
X122848666Y-86725380D01*
X123467714Y-86725380D01*
X113483380Y-111990095D02*
X112483380Y-111990095D01*
X112483380Y-111752000D01*
X112531000Y-111609142D01*
X112626238Y-111513904D01*
X112721476Y-111466285D01*
X112911952Y-111418666D01*
X113054809Y-111418666D01*
X113245285Y-111466285D01*
X113340523Y-111513904D01*
X113435761Y-111609142D01*
X113483380Y-111752000D01*
X113483380Y-111990095D01*
X112483380Y-111085333D02*
X112483380Y-110466285D01*
X112864333Y-110799619D01*
X112864333Y-110656761D01*
X112911952Y-110561523D01*
X112959571Y-110513904D01*
X113054809Y-110466285D01*
X113292904Y-110466285D01*
X113388142Y-110513904D01*
X113435761Y-110561523D01*
X113483380Y-110656761D01*
X113483380Y-110942476D01*
X113435761Y-111037714D01*
X113388142Y-111085333D01*
X119833380Y-111990095D02*
X118833380Y-111990095D01*
X118833380Y-111752000D01*
X118881000Y-111609142D01*
X118976238Y-111513904D01*
X119071476Y-111466285D01*
X119261952Y-111418666D01*
X119404809Y-111418666D01*
X119595285Y-111466285D01*
X119690523Y-111513904D01*
X119785761Y-111609142D01*
X119833380Y-111752000D01*
X119833380Y-111990095D01*
X119166714Y-110561523D02*
X119833380Y-110561523D01*
X118785761Y-110799619D02*
X119500047Y-111037714D01*
X119500047Y-110418666D01*
X145741380Y-92813095D02*
X144741380Y-92813095D01*
X144741380Y-92575000D01*
X144789000Y-92432142D01*
X144884238Y-92336904D01*
X144979476Y-92289285D01*
X145169952Y-92241666D01*
X145312809Y-92241666D01*
X145503285Y-92289285D01*
X145598523Y-92336904D01*
X145693761Y-92432142D01*
X145741380Y-92575000D01*
X145741380Y-92813095D01*
X144741380Y-91336904D02*
X144741380Y-91813095D01*
X145217571Y-91860714D01*
X145169952Y-91813095D01*
X145122333Y-91717857D01*
X145122333Y-91479761D01*
X145169952Y-91384523D01*
X145217571Y-91336904D01*
X145312809Y-91289285D01*
X145550904Y-91289285D01*
X145646142Y-91336904D01*
X145693761Y-91384523D01*
X145741380Y-91479761D01*
X145741380Y-91717857D01*
X145693761Y-91813095D01*
X145646142Y-91860714D01*
X135454380Y-92813095D02*
X134454380Y-92813095D01*
X134454380Y-92575000D01*
X134502000Y-92432142D01*
X134597238Y-92336904D01*
X134692476Y-92289285D01*
X134882952Y-92241666D01*
X135025809Y-92241666D01*
X135216285Y-92289285D01*
X135311523Y-92336904D01*
X135406761Y-92432142D01*
X135454380Y-92575000D01*
X135454380Y-92813095D01*
X134454380Y-91384523D02*
X134454380Y-91575000D01*
X134502000Y-91670238D01*
X134549619Y-91717857D01*
X134692476Y-91813095D01*
X134882952Y-91860714D01*
X135263904Y-91860714D01*
X135359142Y-91813095D01*
X135406761Y-91765476D01*
X135454380Y-91670238D01*
X135454380Y-91479761D01*
X135406761Y-91384523D01*
X135359142Y-91336904D01*
X135263904Y-91289285D01*
X135025809Y-91289285D01*
X134930571Y-91336904D01*
X134882952Y-91384523D01*
X134835333Y-91479761D01*
X134835333Y-91670238D01*
X134882952Y-91765476D01*
X134930571Y-91813095D01*
X135025809Y-91860714D01*
X142312380Y-92813095D02*
X141312380Y-92813095D01*
X141312380Y-92575000D01*
X141360000Y-92432142D01*
X141455238Y-92336904D01*
X141550476Y-92289285D01*
X141740952Y-92241666D01*
X141883809Y-92241666D01*
X142074285Y-92289285D01*
X142169523Y-92336904D01*
X142264761Y-92432142D01*
X142312380Y-92575000D01*
X142312380Y-92813095D01*
X141740952Y-91670238D02*
X141693333Y-91765476D01*
X141645714Y-91813095D01*
X141550476Y-91860714D01*
X141502857Y-91860714D01*
X141407619Y-91813095D01*
X141360000Y-91765476D01*
X141312380Y-91670238D01*
X141312380Y-91479761D01*
X141360000Y-91384523D01*
X141407619Y-91336904D01*
X141502857Y-91289285D01*
X141550476Y-91289285D01*
X141645714Y-91336904D01*
X141693333Y-91384523D01*
X141740952Y-91479761D01*
X141740952Y-91670238D01*
X141788571Y-91765476D01*
X141836190Y-91813095D01*
X141931428Y-91860714D01*
X142121904Y-91860714D01*
X142217142Y-91813095D01*
X142264761Y-91765476D01*
X142312380Y-91670238D01*
X142312380Y-91479761D01*
X142264761Y-91384523D01*
X142217142Y-91336904D01*
X142121904Y-91289285D01*
X141931428Y-91289285D01*
X141836190Y-91336904D01*
X141788571Y-91384523D01*
X141740952Y-91479761D01*
X114879380Y-121896095D02*
X113879380Y-121896095D01*
X113879380Y-121658000D01*
X113927000Y-121515142D01*
X114022238Y-121419904D01*
X114117476Y-121372285D01*
X114307952Y-121324666D01*
X114450809Y-121324666D01*
X114641285Y-121372285D01*
X114736523Y-121419904D01*
X114831761Y-121515142D01*
X114879380Y-121658000D01*
X114879380Y-121896095D01*
X114879380Y-120848476D02*
X114879380Y-120658000D01*
X114831761Y-120562761D01*
X114784142Y-120515142D01*
X114641285Y-120419904D01*
X114450809Y-120372285D01*
X114069857Y-120372285D01*
X113974619Y-120419904D01*
X113927000Y-120467523D01*
X113879380Y-120562761D01*
X113879380Y-120753238D01*
X113927000Y-120848476D01*
X113974619Y-120896095D01*
X114069857Y-120943714D01*
X114307952Y-120943714D01*
X114403190Y-120896095D01*
X114450809Y-120848476D01*
X114498428Y-120753238D01*
X114498428Y-120562761D01*
X114450809Y-120467523D01*
X114403190Y-120419904D01*
X114307952Y-120372285D01*
X168219380Y-121991285D02*
X167219380Y-121991285D01*
X167219380Y-121753190D01*
X167267000Y-121610333D01*
X167362238Y-121515095D01*
X167457476Y-121467476D01*
X167647952Y-121419857D01*
X167790809Y-121419857D01*
X167981285Y-121467476D01*
X168076523Y-121515095D01*
X168171761Y-121610333D01*
X168219380Y-121753190D01*
X168219380Y-121991285D01*
X168219380Y-120467476D02*
X168219380Y-121038904D01*
X168219380Y-120753190D02*
X167219380Y-120753190D01*
X167362238Y-120848428D01*
X167457476Y-120943666D01*
X167505095Y-121038904D01*
X167219380Y-119848428D02*
X167219380Y-119753190D01*
X167267000Y-119657952D01*
X167314619Y-119610333D01*
X167409857Y-119562714D01*
X167600333Y-119515095D01*
X167838428Y-119515095D01*
X168028904Y-119562714D01*
X168124142Y-119610333D01*
X168171761Y-119657952D01*
X168219380Y-119753190D01*
X168219380Y-119848428D01*
X168171761Y-119943666D01*
X168124142Y-119991285D01*
X168028904Y-120038904D01*
X167838428Y-120086523D01*
X167600333Y-120086523D01*
X167409857Y-120038904D01*
X167314619Y-119991285D01*
X167267000Y-119943666D01*
X167219380Y-119848428D01*
X165680380Y-90114285D02*
X164680380Y-90114285D01*
X164680380Y-89876190D01*
X164728000Y-89733333D01*
X164823238Y-89638095D01*
X164918476Y-89590476D01*
X165108952Y-89542857D01*
X165251809Y-89542857D01*
X165442285Y-89590476D01*
X165537523Y-89638095D01*
X165632761Y-89733333D01*
X165680380Y-89876190D01*
X165680380Y-90114285D01*
X165680380Y-88590476D02*
X165680380Y-89161904D01*
X165680380Y-88876190D02*
X164680380Y-88876190D01*
X164823238Y-88971428D01*
X164918476Y-89066666D01*
X164966095Y-89161904D01*
X165680380Y-87638095D02*
X165680380Y-88209523D01*
X165680380Y-87923809D02*
X164680380Y-87923809D01*
X164823238Y-88019047D01*
X164918476Y-88114285D01*
X164966095Y-88209523D01*
X169109380Y-90114285D02*
X168109380Y-90114285D01*
X168109380Y-89876190D01*
X168157000Y-89733333D01*
X168252238Y-89638095D01*
X168347476Y-89590476D01*
X168537952Y-89542857D01*
X168680809Y-89542857D01*
X168871285Y-89590476D01*
X168966523Y-89638095D01*
X169061761Y-89733333D01*
X169109380Y-89876190D01*
X169109380Y-90114285D01*
X169109380Y-88590476D02*
X169109380Y-89161904D01*
X169109380Y-88876190D02*
X168109380Y-88876190D01*
X168252238Y-88971428D01*
X168347476Y-89066666D01*
X168395095Y-89161904D01*
X168204619Y-88209523D02*
X168157000Y-88161904D01*
X168109380Y-88066666D01*
X168109380Y-87828571D01*
X168157000Y-87733333D01*
X168204619Y-87685714D01*
X168299857Y-87638095D01*
X168395095Y-87638095D01*
X168537952Y-87685714D01*
X169109380Y-88257142D01*
X169109380Y-87638095D01*
X172538380Y-90114285D02*
X171538380Y-90114285D01*
X171538380Y-89876190D01*
X171586000Y-89733333D01*
X171681238Y-89638095D01*
X171776476Y-89590476D01*
X171966952Y-89542857D01*
X172109809Y-89542857D01*
X172300285Y-89590476D01*
X172395523Y-89638095D01*
X172490761Y-89733333D01*
X172538380Y-89876190D01*
X172538380Y-90114285D01*
X172538380Y-88590476D02*
X172538380Y-89161904D01*
X172538380Y-88876190D02*
X171538380Y-88876190D01*
X171681238Y-88971428D01*
X171776476Y-89066666D01*
X171824095Y-89161904D01*
X171538380Y-88257142D02*
X171538380Y-87638095D01*
X171919333Y-87971428D01*
X171919333Y-87828571D01*
X171966952Y-87733333D01*
X172014571Y-87685714D01*
X172109809Y-87638095D01*
X172347904Y-87638095D01*
X172443142Y-87685714D01*
X172490761Y-87733333D01*
X172538380Y-87828571D01*
X172538380Y-88114285D01*
X172490761Y-88209523D01*
X172443142Y-88257142D01*
X175967380Y-90114285D02*
X174967380Y-90114285D01*
X174967380Y-89876190D01*
X175015000Y-89733333D01*
X175110238Y-89638095D01*
X175205476Y-89590476D01*
X175395952Y-89542857D01*
X175538809Y-89542857D01*
X175729285Y-89590476D01*
X175824523Y-89638095D01*
X175919761Y-89733333D01*
X175967380Y-89876190D01*
X175967380Y-90114285D01*
X175967380Y-88590476D02*
X175967380Y-89161904D01*
X175967380Y-88876190D02*
X174967380Y-88876190D01*
X175110238Y-88971428D01*
X175205476Y-89066666D01*
X175253095Y-89161904D01*
X175300714Y-87733333D02*
X175967380Y-87733333D01*
X174919761Y-87971428D02*
X175634047Y-88209523D01*
X175634047Y-87590476D01*
X118165666Y-92764571D02*
X117832333Y-92764571D01*
X117832333Y-93288380D02*
X117832333Y-92288380D01*
X118308523Y-92288380D01*
X119022809Y-92764571D02*
X119165666Y-92812190D01*
X119213285Y-92859809D01*
X119260904Y-92955047D01*
X119260904Y-93097904D01*
X119213285Y-93193142D01*
X119165666Y-93240761D01*
X119070428Y-93288380D01*
X118689476Y-93288380D01*
X118689476Y-92288380D01*
X119022809Y-92288380D01*
X119118047Y-92336000D01*
X119165666Y-92383619D01*
X119213285Y-92478857D01*
X119213285Y-92574095D01*
X119165666Y-92669333D01*
X119118047Y-92716952D01*
X119022809Y-92764571D01*
X118689476Y-92764571D01*
X120213285Y-93288380D02*
X119641857Y-93288380D01*
X119927571Y-93288380D02*
X119927571Y-92288380D01*
X119832333Y-92431238D01*
X119737095Y-92526476D01*
X119641857Y-92574095D01*
X109267666Y-88054380D02*
X109267666Y-88768666D01*
X109220047Y-88911523D01*
X109124809Y-89006761D01*
X108981952Y-89054380D01*
X108886714Y-89054380D01*
X109696238Y-88149619D02*
X109743857Y-88102000D01*
X109839095Y-88054380D01*
X110077190Y-88054380D01*
X110172428Y-88102000D01*
X110220047Y-88149619D01*
X110267666Y-88244857D01*
X110267666Y-88340095D01*
X110220047Y-88482952D01*
X109648619Y-89054380D01*
X110267666Y-89054380D01*
X114474666Y-83907380D02*
X114474666Y-84621666D01*
X114427047Y-84764523D01*
X114331809Y-84859761D01*
X114188952Y-84907380D01*
X114093714Y-84907380D01*
X114855619Y-83907380D02*
X115474666Y-83907380D01*
X115141333Y-84288333D01*
X115284190Y-84288333D01*
X115379428Y-84335952D01*
X115427047Y-84383571D01*
X115474666Y-84478809D01*
X115474666Y-84716904D01*
X115427047Y-84812142D01*
X115379428Y-84859761D01*
X115284190Y-84907380D01*
X114998476Y-84907380D01*
X114903238Y-84859761D01*
X114855619Y-84812142D01*
X142160666Y-113625380D02*
X142160666Y-114339666D01*
X142113047Y-114482523D01*
X142017809Y-114577761D01*
X141874952Y-114625380D01*
X141779714Y-114625380D01*
X143065428Y-113958714D02*
X143065428Y-114625380D01*
X142827333Y-113577761D02*
X142589238Y-114292047D01*
X143208285Y-114292047D01*
X126364619Y-92678238D02*
X126317000Y-92773476D01*
X126221761Y-92868714D01*
X126078904Y-93011571D01*
X126031285Y-93106809D01*
X126031285Y-93202047D01*
X126269380Y-93154428D02*
X126221761Y-93249666D01*
X126126523Y-93344904D01*
X125936047Y-93392523D01*
X125602714Y-93392523D01*
X125412238Y-93344904D01*
X125317000Y-93249666D01*
X125269380Y-93154428D01*
X125269380Y-92963952D01*
X125317000Y-92868714D01*
X125412238Y-92773476D01*
X125602714Y-92725857D01*
X125936047Y-92725857D01*
X126126523Y-92773476D01*
X126221761Y-92868714D01*
X126269380Y-92963952D01*
X126269380Y-93154428D01*
X126269380Y-91773476D02*
X126269380Y-92344904D01*
X126269380Y-92059190D02*
X125269380Y-92059190D01*
X125412238Y-92154428D01*
X125507476Y-92249666D01*
X125555095Y-92344904D01*
X144761761Y-95371619D02*
X144666523Y-95324000D01*
X144571285Y-95228761D01*
X144428428Y-95085904D01*
X144333190Y-95038285D01*
X144237952Y-95038285D01*
X144285571Y-95276380D02*
X144190333Y-95228761D01*
X144095095Y-95133523D01*
X144047476Y-94943047D01*
X144047476Y-94609714D01*
X144095095Y-94419238D01*
X144190333Y-94324000D01*
X144285571Y-94276380D01*
X144476047Y-94276380D01*
X144571285Y-94324000D01*
X144666523Y-94419238D01*
X144714142Y-94609714D01*
X144714142Y-94943047D01*
X144666523Y-95133523D01*
X144571285Y-95228761D01*
X144476047Y-95276380D01*
X144285571Y-95276380D01*
X145095095Y-94371619D02*
X145142714Y-94324000D01*
X145237952Y-94276380D01*
X145476047Y-94276380D01*
X145571285Y-94324000D01*
X145618904Y-94371619D01*
X145666523Y-94466857D01*
X145666523Y-94562095D01*
X145618904Y-94704952D01*
X145047476Y-95276380D01*
X145666523Y-95276380D01*
X121072095Y-115716761D02*
X121214952Y-115764380D01*
X121453047Y-115764380D01*
X121548285Y-115716761D01*
X121595904Y-115669142D01*
X121643523Y-115573904D01*
X121643523Y-115478666D01*
X121595904Y-115383428D01*
X121548285Y-115335809D01*
X121453047Y-115288190D01*
X121262571Y-115240571D01*
X121167333Y-115192952D01*
X121119714Y-115145333D01*
X121072095Y-115050095D01*
X121072095Y-114954857D01*
X121119714Y-114859619D01*
X121167333Y-114812000D01*
X121262571Y-114764380D01*
X121500666Y-114764380D01*
X121643523Y-114812000D01*
X122595904Y-115764380D02*
X122024476Y-115764380D01*
X122310190Y-115764380D02*
X122310190Y-114764380D01*
X122214952Y-114907238D01*
X122119714Y-115002476D01*
X122024476Y-115050095D01*
X159504095Y-115716761D02*
X159646952Y-115764380D01*
X159885047Y-115764380D01*
X159980285Y-115716761D01*
X160027904Y-115669142D01*
X160075523Y-115573904D01*
X160075523Y-115478666D01*
X160027904Y-115383428D01*
X159980285Y-115335809D01*
X159885047Y-115288190D01*
X159694571Y-115240571D01*
X159599333Y-115192952D01*
X159551714Y-115145333D01*
X159504095Y-115050095D01*
X159504095Y-114954857D01*
X159551714Y-114859619D01*
X159599333Y-114812000D01*
X159694571Y-114764380D01*
X159932666Y-114764380D01*
X160075523Y-114812000D01*
X160456476Y-114859619D02*
X160504095Y-114812000D01*
X160599333Y-114764380D01*
X160837428Y-114764380D01*
X160932666Y-114812000D01*
X160980285Y-114859619D01*
X161027904Y-114954857D01*
X161027904Y-115050095D01*
X160980285Y-115192952D01*
X160408857Y-115764380D01*
X161027904Y-115764380D01*
X106561095Y-107532380D02*
X107132523Y-107532380D01*
X106846809Y-108532380D02*
X106846809Y-107532380D01*
X107465857Y-108532380D02*
X107465857Y-107532380D01*
X107846809Y-107532380D01*
X107942047Y-107580000D01*
X107989666Y-107627619D01*
X108037285Y-107722857D01*
X108037285Y-107865714D01*
X107989666Y-107960952D01*
X107942047Y-108008571D01*
X107846809Y-108056190D01*
X107465857Y-108056190D01*
X108989666Y-108532380D02*
X108418238Y-108532380D01*
X108703952Y-108532380D02*
X108703952Y-107532380D01*
X108608714Y-107675238D01*
X108513476Y-107770476D01*
X108418238Y-107818095D01*
X121039095Y-80354380D02*
X121610523Y-80354380D01*
X121324809Y-81354380D02*
X121324809Y-80354380D01*
X121943857Y-81354380D02*
X121943857Y-80354380D01*
X122324809Y-80354380D01*
X122420047Y-80402000D01*
X122467666Y-80449619D01*
X122515285Y-80544857D01*
X122515285Y-80687714D01*
X122467666Y-80782952D01*
X122420047Y-80830571D01*
X122324809Y-80878190D01*
X121943857Y-80878190D01*
X122896238Y-80449619D02*
X122943857Y-80402000D01*
X123039095Y-80354380D01*
X123277190Y-80354380D01*
X123372428Y-80402000D01*
X123420047Y-80449619D01*
X123467666Y-80544857D01*
X123467666Y-80640095D01*
X123420047Y-80782952D01*
X122848619Y-81354380D01*
X123467666Y-81354380D01*
X134755095Y-97115380D02*
X135326523Y-97115380D01*
X135040809Y-98115380D02*
X135040809Y-97115380D01*
X135659857Y-98115380D02*
X135659857Y-97115380D01*
X136040809Y-97115380D01*
X136136047Y-97163000D01*
X136183666Y-97210619D01*
X136231285Y-97305857D01*
X136231285Y-97448714D01*
X136183666Y-97543952D01*
X136136047Y-97591571D01*
X136040809Y-97639190D01*
X135659857Y-97639190D01*
X136564619Y-97115380D02*
X137183666Y-97115380D01*
X136850333Y-97496333D01*
X136993190Y-97496333D01*
X137088428Y-97543952D01*
X137136047Y-97591571D01*
X137183666Y-97686809D01*
X137183666Y-97924904D01*
X137136047Y-98020142D01*
X137088428Y-98067761D01*
X136993190Y-98115380D01*
X136707476Y-98115380D01*
X136612238Y-98067761D01*
X136564619Y-98020142D01*
X124595095Y-104859380D02*
X125166523Y-104859380D01*
X124880809Y-105859380D02*
X124880809Y-104859380D01*
X125499857Y-105859380D02*
X125499857Y-104859380D01*
X125880809Y-104859380D01*
X125976047Y-104907000D01*
X126023666Y-104954619D01*
X126071285Y-105049857D01*
X126071285Y-105192714D01*
X126023666Y-105287952D01*
X125976047Y-105335571D01*
X125880809Y-105383190D01*
X125499857Y-105383190D01*
X126928428Y-105192714D02*
X126928428Y-105859380D01*
X126690333Y-104811761D02*
X126452238Y-105526047D01*
X127071285Y-105526047D01*
X122944095Y-107913380D02*
X123515523Y-107913380D01*
X123229809Y-108913380D02*
X123229809Y-107913380D01*
X123848857Y-108913380D02*
X123848857Y-107913380D01*
X124229809Y-107913380D01*
X124325047Y-107961000D01*
X124372666Y-108008619D01*
X124420285Y-108103857D01*
X124420285Y-108246714D01*
X124372666Y-108341952D01*
X124325047Y-108389571D01*
X124229809Y-108437190D01*
X123848857Y-108437190D01*
X125325047Y-107913380D02*
X124848857Y-107913380D01*
X124801238Y-108389571D01*
X124848857Y-108341952D01*
X124944095Y-108294333D01*
X125182190Y-108294333D01*
X125277428Y-108341952D01*
X125325047Y-108389571D01*
X125372666Y-108484809D01*
X125372666Y-108722904D01*
X125325047Y-108818142D01*
X125277428Y-108865761D01*
X125182190Y-108913380D01*
X124944095Y-108913380D01*
X124848857Y-108865761D01*
X124801238Y-108818142D01*
X132723095Y-112104380D02*
X133294523Y-112104380D01*
X133008809Y-113104380D02*
X133008809Y-112104380D01*
X133627857Y-113104380D02*
X133627857Y-112104380D01*
X134008809Y-112104380D01*
X134104047Y-112152000D01*
X134151666Y-112199619D01*
X134199285Y-112294857D01*
X134199285Y-112437714D01*
X134151666Y-112532952D01*
X134104047Y-112580571D01*
X134008809Y-112628190D01*
X133627857Y-112628190D01*
X135056428Y-112104380D02*
X134865952Y-112104380D01*
X134770714Y-112152000D01*
X134723095Y-112199619D01*
X134627857Y-112342476D01*
X134580238Y-112532952D01*
X134580238Y-112913904D01*
X134627857Y-113009142D01*
X134675476Y-113056761D01*
X134770714Y-113104380D01*
X134961190Y-113104380D01*
X135056428Y-113056761D01*
X135104047Y-113009142D01*
X135151666Y-112913904D01*
X135151666Y-112675809D01*
X135104047Y-112580571D01*
X135056428Y-112532952D01*
X134961190Y-112485333D01*
X134770714Y-112485333D01*
X134675476Y-112532952D01*
X134627857Y-112580571D01*
X134580238Y-112675809D01*
X149360095Y-84545380D02*
X149931523Y-84545380D01*
X149645809Y-85545380D02*
X149645809Y-84545380D01*
X150264857Y-85545380D02*
X150264857Y-84545380D01*
X150645809Y-84545380D01*
X150741047Y-84593000D01*
X150788666Y-84640619D01*
X150836285Y-84735857D01*
X150836285Y-84878714D01*
X150788666Y-84973952D01*
X150741047Y-85021571D01*
X150645809Y-85069190D01*
X150264857Y-85069190D01*
X151169619Y-84545380D02*
X151836285Y-84545380D01*
X151407714Y-85545380D01*
X143772095Y-110958380D02*
X144343523Y-110958380D01*
X144057809Y-111958380D02*
X144057809Y-110958380D01*
X144676857Y-111958380D02*
X144676857Y-110958380D01*
X145057809Y-110958380D01*
X145153047Y-111006000D01*
X145200666Y-111053619D01*
X145248285Y-111148857D01*
X145248285Y-111291714D01*
X145200666Y-111386952D01*
X145153047Y-111434571D01*
X145057809Y-111482190D01*
X144676857Y-111482190D01*
X145819714Y-111386952D02*
X145724476Y-111339333D01*
X145676857Y-111291714D01*
X145629238Y-111196476D01*
X145629238Y-111148857D01*
X145676857Y-111053619D01*
X145724476Y-111006000D01*
X145819714Y-110958380D01*
X146010190Y-110958380D01*
X146105428Y-111006000D01*
X146153047Y-111053619D01*
X146200666Y-111148857D01*
X146200666Y-111196476D01*
X146153047Y-111291714D01*
X146105428Y-111339333D01*
X146010190Y-111386952D01*
X145819714Y-111386952D01*
X145724476Y-111434571D01*
X145676857Y-111482190D01*
X145629238Y-111577428D01*
X145629238Y-111767904D01*
X145676857Y-111863142D01*
X145724476Y-111910761D01*
X145819714Y-111958380D01*
X146010190Y-111958380D01*
X146105428Y-111910761D01*
X146153047Y-111863142D01*
X146200666Y-111767904D01*
X146200666Y-111577428D01*
X146153047Y-111482190D01*
X146105428Y-111434571D01*
X146010190Y-111386952D01*
X167775095Y-111720380D02*
X168346523Y-111720380D01*
X168060809Y-112720380D02*
X168060809Y-111720380D01*
X168679857Y-112720380D02*
X168679857Y-111720380D01*
X169060809Y-111720380D01*
X169156047Y-111768000D01*
X169203666Y-111815619D01*
X169251285Y-111910857D01*
X169251285Y-112053714D01*
X169203666Y-112148952D01*
X169156047Y-112196571D01*
X169060809Y-112244190D01*
X168679857Y-112244190D01*
X169727476Y-112720380D02*
X169917952Y-112720380D01*
X170013190Y-112672761D01*
X170060809Y-112625142D01*
X170156047Y-112482285D01*
X170203666Y-112291809D01*
X170203666Y-111910857D01*
X170156047Y-111815619D01*
X170108428Y-111768000D01*
X170013190Y-111720380D01*
X169822714Y-111720380D01*
X169727476Y-111768000D01*
X169679857Y-111815619D01*
X169632238Y-111910857D01*
X169632238Y-112148952D01*
X169679857Y-112244190D01*
X169727476Y-112291809D01*
X169822714Y-112339428D01*
X170013190Y-112339428D01*
X170108428Y-112291809D01*
X170156047Y-112244190D01*
X170203666Y-112148952D01*
X126000380Y-107949904D02*
X126809904Y-107949904D01*
X126905142Y-107902285D01*
X126952761Y-107854666D01*
X127000380Y-107759428D01*
X127000380Y-107568952D01*
X126952761Y-107473714D01*
X126905142Y-107426095D01*
X126809904Y-107378476D01*
X126000380Y-107378476D01*
X127000380Y-106378476D02*
X127000380Y-106949904D01*
X127000380Y-106664190D02*
X126000380Y-106664190D01*
X126143238Y-106759428D01*
X126238476Y-106854666D01*
X126286095Y-106949904D01*
X132675380Y-88024903D02*
X133484904Y-88024903D01*
X133580142Y-87977284D01*
X133627761Y-87929665D01*
X133675380Y-87834427D01*
X133675380Y-87643951D01*
X133627761Y-87548713D01*
X133580142Y-87501094D01*
X133484904Y-87453475D01*
X132675380Y-87453475D01*
X132770619Y-87024903D02*
X132723000Y-86977284D01*
X132675380Y-86882046D01*
X132675380Y-86643951D01*
X132723000Y-86548713D01*
X132770619Y-86501094D01*
X132865857Y-86453475D01*
X132961095Y-86453475D01*
X133103952Y-86501094D01*
X133675380Y-87072522D01*
X133675380Y-86453475D01*
X140462095Y-103555380D02*
X140462095Y-104364904D01*
X140509714Y-104460142D01*
X140557333Y-104507761D01*
X140652571Y-104555380D01*
X140843047Y-104555380D01*
X140938285Y-104507761D01*
X140985904Y-104460142D01*
X141033523Y-104364904D01*
X141033523Y-103555380D01*
X141414476Y-103555380D02*
X142033523Y-103555380D01*
X141700190Y-103936333D01*
X141843047Y-103936333D01*
X141938285Y-103983952D01*
X141985904Y-104031571D01*
X142033523Y-104126809D01*
X142033523Y-104364904D01*
X141985904Y-104460142D01*
X141938285Y-104507761D01*
X141843047Y-104555380D01*
X141557333Y-104555380D01*
X141462095Y-104507761D01*
X141414476Y-104460142D01*
X153035095Y-94702380D02*
X153035095Y-95511904D01*
X153082714Y-95607142D01*
X153130333Y-95654761D01*
X153225571Y-95702380D01*
X153416047Y-95702380D01*
X153511285Y-95654761D01*
X153558904Y-95607142D01*
X153606523Y-95511904D01*
X153606523Y-94702380D01*
X154511285Y-95035714D02*
X154511285Y-95702380D01*
X154273190Y-94654761D02*
X154035095Y-95369047D01*
X154654142Y-95369047D01*
X151638095Y-97802380D02*
X151638095Y-98611904D01*
X151685714Y-98707142D01*
X151733333Y-98754761D01*
X151828571Y-98802380D01*
X152019047Y-98802380D01*
X152114285Y-98754761D01*
X152161904Y-98707142D01*
X152209523Y-98611904D01*
X152209523Y-97802380D01*
X153114285Y-97802380D02*
X152923809Y-97802380D01*
X152828571Y-97850000D01*
X152780952Y-97897619D01*
X152685714Y-98040476D01*
X152638095Y-98230952D01*
X152638095Y-98611904D01*
X152685714Y-98707142D01*
X152733333Y-98754761D01*
X152828571Y-98802380D01*
X153019047Y-98802380D01*
X153114285Y-98754761D01*
X153161904Y-98707142D01*
X153209523Y-98611904D01*
X153209523Y-98373809D01*
X153161904Y-98278571D01*
X153114285Y-98230952D01*
X153019047Y-98183333D01*
X152828571Y-98183333D01*
X152733333Y-98230952D01*
X152685714Y-98278571D01*
X152638095Y-98373809D01*
X195072095Y-98732380D02*
X195072095Y-99541904D01*
X195119714Y-99637142D01*
X195167333Y-99684761D01*
X195262571Y-99732380D01*
X195453047Y-99732380D01*
X195548285Y-99684761D01*
X195595904Y-99637142D01*
X195643523Y-99541904D01*
X195643523Y-98732380D01*
X196024476Y-98732380D02*
X196691142Y-98732380D01*
X196262571Y-99732380D01*
X164493676Y-112863380D02*
X165160342Y-113863380D01*
X165160342Y-112863380D02*
X164493676Y-113863380D01*
X166065104Y-113863380D02*
X165493676Y-113863380D01*
X165779390Y-113863380D02*
X165779390Y-112863380D01*
X165684152Y-113006238D01*
X165588914Y-113101476D01*
X165493676Y-113149095D01*
X155860809Y-114530190D02*
X155860809Y-115006380D01*
X155527476Y-114006380D02*
X155860809Y-114530190D01*
X156194142Y-114006380D01*
X157051285Y-115006380D02*
X156479857Y-115006380D01*
X156765571Y-115006380D02*
X156765571Y-114006380D01*
X156670333Y-114149238D01*
X156575095Y-114244476D01*
X156479857Y-114292095D01*
X115657333Y-92526142D02*
X115609714Y-92573761D01*
X115466857Y-92621380D01*
X115371619Y-92621380D01*
X115228761Y-92573761D01*
X115133523Y-92478523D01*
X115085904Y-92383285D01*
X115038285Y-92192809D01*
X115038285Y-92049952D01*
X115085904Y-91859476D01*
X115133523Y-91764238D01*
X115228761Y-91669000D01*
X115371619Y-91621380D01*
X115466857Y-91621380D01*
X115609714Y-91669000D01*
X115657333Y-91716619D01*
X116609714Y-92621380D02*
X116038285Y-92621380D01*
X116324000Y-92621380D02*
X116324000Y-91621380D01*
X116228761Y-91764238D01*
X116133523Y-91859476D01*
X116038285Y-91907095D01*
X119594333Y-105386142D02*
X119546714Y-105433761D01*
X119403857Y-105481380D01*
X119308619Y-105481380D01*
X119165761Y-105433761D01*
X119070523Y-105338523D01*
X119022904Y-105243285D01*
X118975285Y-105052809D01*
X118975285Y-104909952D01*
X119022904Y-104719476D01*
X119070523Y-104624238D01*
X119165761Y-104529000D01*
X119308619Y-104481380D01*
X119403857Y-104481380D01*
X119546714Y-104529000D01*
X119594333Y-104576619D01*
X119975285Y-104576619D02*
X120022904Y-104529000D01*
X120118142Y-104481380D01*
X120356238Y-104481380D01*
X120451476Y-104529000D01*
X120499095Y-104576619D01*
X120546714Y-104671857D01*
X120546714Y-104767095D01*
X120499095Y-104909952D01*
X119927666Y-105481380D01*
X120546714Y-105481380D01*
X123039142Y-100750666D02*
X123086761Y-100798285D01*
X123134380Y-100941142D01*
X123134380Y-101036380D01*
X123086761Y-101179238D01*
X122991523Y-101274476D01*
X122896285Y-101322095D01*
X122705809Y-101369714D01*
X122562952Y-101369714D01*
X122372476Y-101322095D01*
X122277238Y-101274476D01*
X122182000Y-101179238D01*
X122134380Y-101036380D01*
X122134380Y-100941142D01*
X122182000Y-100798285D01*
X122229619Y-100750666D01*
X122134380Y-100417333D02*
X122134380Y-99798285D01*
X122515333Y-100131619D01*
X122515333Y-99988761D01*
X122562952Y-99893523D01*
X122610571Y-99845904D01*
X122705809Y-99798285D01*
X122943904Y-99798285D01*
X123039142Y-99845904D01*
X123086761Y-99893523D01*
X123134380Y-99988761D01*
X123134380Y-100274476D01*
X123086761Y-100369714D01*
X123039142Y-100417333D01*
X119594333Y-98528142D02*
X119546714Y-98575761D01*
X119403857Y-98623380D01*
X119308619Y-98623380D01*
X119165761Y-98575761D01*
X119070523Y-98480523D01*
X119022904Y-98385285D01*
X118975285Y-98194809D01*
X118975285Y-98051952D01*
X119022904Y-97861476D01*
X119070523Y-97766238D01*
X119165761Y-97671000D01*
X119308619Y-97623380D01*
X119403857Y-97623380D01*
X119546714Y-97671000D01*
X119594333Y-97718619D01*
X120451476Y-97956714D02*
X120451476Y-98623380D01*
X120213380Y-97575761D02*
X119975285Y-98290047D01*
X120594333Y-98290047D01*
X124690142Y-100750666D02*
X124737761Y-100798285D01*
X124785380Y-100941142D01*
X124785380Y-101036380D01*
X124737761Y-101179238D01*
X124642523Y-101274476D01*
X124547285Y-101322095D01*
X124356809Y-101369714D01*
X124213952Y-101369714D01*
X124023476Y-101322095D01*
X123928238Y-101274476D01*
X123833000Y-101179238D01*
X123785380Y-101036380D01*
X123785380Y-100941142D01*
X123833000Y-100798285D01*
X123880619Y-100750666D01*
X123785380Y-99845904D02*
X123785380Y-100322095D01*
X124261571Y-100369714D01*
X124213952Y-100322095D01*
X124166333Y-100226857D01*
X124166333Y-99988761D01*
X124213952Y-99893523D01*
X124261571Y-99845904D01*
X124356809Y-99798285D01*
X124594904Y-99798285D01*
X124690142Y-99845904D01*
X124737761Y-99893523D01*
X124785380Y-99988761D01*
X124785380Y-100226857D01*
X124737761Y-100322095D01*
X124690142Y-100369714D01*
X132658142Y-100750666D02*
X132705761Y-100798285D01*
X132753380Y-100941142D01*
X132753380Y-101036380D01*
X132705761Y-101179238D01*
X132610523Y-101274476D01*
X132515285Y-101322095D01*
X132324809Y-101369714D01*
X132181952Y-101369714D01*
X131991476Y-101322095D01*
X131896238Y-101274476D01*
X131801000Y-101179238D01*
X131753380Y-101036380D01*
X131753380Y-100941142D01*
X131801000Y-100798285D01*
X131848619Y-100750666D01*
X131753380Y-99893523D02*
X131753380Y-100084000D01*
X131801000Y-100179238D01*
X131848619Y-100226857D01*
X131991476Y-100322095D01*
X132181952Y-100369714D01*
X132562904Y-100369714D01*
X132658142Y-100322095D01*
X132705761Y-100274476D01*
X132753380Y-100179238D01*
X132753380Y-99988761D01*
X132705761Y-99893523D01*
X132658142Y-99845904D01*
X132562904Y-99798285D01*
X132324809Y-99798285D01*
X132229571Y-99845904D01*
X132181952Y-99893523D01*
X132134333Y-99988761D01*
X132134333Y-100179238D01*
X132181952Y-100274476D01*
X132229571Y-100322095D01*
X132324809Y-100369714D01*
X127263142Y-84240666D02*
X127310761Y-84288285D01*
X127358380Y-84431142D01*
X127358380Y-84526380D01*
X127310761Y-84669238D01*
X127215523Y-84764476D01*
X127120285Y-84812095D01*
X126929809Y-84859714D01*
X126786952Y-84859714D01*
X126596476Y-84812095D01*
X126501238Y-84764476D01*
X126406000Y-84669238D01*
X126358380Y-84526380D01*
X126358380Y-84431142D01*
X126406000Y-84288285D01*
X126453619Y-84240666D01*
X126358380Y-83907333D02*
X126358380Y-83240666D01*
X127358380Y-83669238D01*
X129643142Y-116244666D02*
X129690761Y-116292285D01*
X129738380Y-116435142D01*
X129738380Y-116530380D01*
X129690761Y-116673238D01*
X129595523Y-116768476D01*
X129500285Y-116816095D01*
X129309809Y-116863714D01*
X129166952Y-116863714D01*
X128976476Y-116816095D01*
X128881238Y-116768476D01*
X128786000Y-116673238D01*
X128738380Y-116530380D01*
X128738380Y-116435142D01*
X128786000Y-116292285D01*
X128833619Y-116244666D01*
X129738380Y-115768476D02*
X129738380Y-115578000D01*
X129690761Y-115482761D01*
X129643142Y-115435142D01*
X129500285Y-115339904D01*
X129309809Y-115292285D01*
X128928857Y-115292285D01*
X128833619Y-115339904D01*
X128786000Y-115387523D01*
X128738380Y-115482761D01*
X128738380Y-115673238D01*
X128786000Y-115768476D01*
X128833619Y-115816095D01*
X128928857Y-115863714D01*
X129166952Y-115863714D01*
X129262190Y-115816095D01*
X129309809Y-115768476D01*
X129357428Y-115673238D01*
X129357428Y-115482761D01*
X129309809Y-115387523D01*
X129262190Y-115339904D01*
X129166952Y-115292285D01*
X134629142Y-95130857D02*
X134676761Y-95178476D01*
X134724380Y-95321333D01*
X134724380Y-95416571D01*
X134676761Y-95559428D01*
X134581523Y-95654666D01*
X134486285Y-95702285D01*
X134295809Y-95749904D01*
X134152952Y-95749904D01*
X133962476Y-95702285D01*
X133867238Y-95654666D01*
X133772000Y-95559428D01*
X133724380Y-95416571D01*
X133724380Y-95321333D01*
X133772000Y-95178476D01*
X133819619Y-95130857D01*
X134724380Y-94178476D02*
X134724380Y-94749904D01*
X134724380Y-94464190D02*
X133724380Y-94464190D01*
X133867238Y-94559428D01*
X133962476Y-94654666D01*
X134010095Y-94749904D01*
X133724380Y-93559428D02*
X133724380Y-93464190D01*
X133772000Y-93368952D01*
X133819619Y-93321333D01*
X133914857Y-93273714D01*
X134105333Y-93226095D01*
X134343428Y-93226095D01*
X134533904Y-93273714D01*
X134629142Y-93321333D01*
X134676761Y-93368952D01*
X134724380Y-93464190D01*
X134724380Y-93559428D01*
X134676761Y-93654666D01*
X134629142Y-93702285D01*
X134533904Y-93749904D01*
X134343428Y-93797523D01*
X134105333Y-93797523D01*
X133914857Y-93749904D01*
X133819619Y-93702285D01*
X133772000Y-93654666D01*
X133724380Y-93559428D01*
X120896142Y-95353142D02*
X120848523Y-95400761D01*
X120705666Y-95448380D01*
X120610428Y-95448380D01*
X120467571Y-95400761D01*
X120372333Y-95305523D01*
X120324714Y-95210285D01*
X120277095Y-95019809D01*
X120277095Y-94876952D01*
X120324714Y-94686476D01*
X120372333Y-94591238D01*
X120467571Y-94496000D01*
X120610428Y-94448380D01*
X120705666Y-94448380D01*
X120848523Y-94496000D01*
X120896142Y-94543619D01*
X121848523Y-95448380D02*
X121277095Y-95448380D01*
X121562809Y-95448380D02*
X121562809Y-94448380D01*
X121467571Y-94591238D01*
X121372333Y-94686476D01*
X121277095Y-94734095D01*
X122800904Y-95448380D02*
X122229476Y-95448380D01*
X122515190Y-95448380D02*
X122515190Y-94448380D01*
X122419952Y-94591238D01*
X122324714Y-94686476D01*
X122229476Y-94734095D01*
X136882142Y-107195857D02*
X136929761Y-107243476D01*
X136977380Y-107386333D01*
X136977380Y-107481571D01*
X136929761Y-107624428D01*
X136834523Y-107719666D01*
X136739285Y-107767285D01*
X136548809Y-107814904D01*
X136405952Y-107814904D01*
X136215476Y-107767285D01*
X136120238Y-107719666D01*
X136025000Y-107624428D01*
X135977380Y-107481571D01*
X135977380Y-107386333D01*
X136025000Y-107243476D01*
X136072619Y-107195857D01*
X136977380Y-106243476D02*
X136977380Y-106814904D01*
X136977380Y-106529190D02*
X135977380Y-106529190D01*
X136120238Y-106624428D01*
X136215476Y-106719666D01*
X136263095Y-106814904D01*
X136072619Y-105862523D02*
X136025000Y-105814904D01*
X135977380Y-105719666D01*
X135977380Y-105481571D01*
X136025000Y-105386333D01*
X136072619Y-105338714D01*
X136167857Y-105291095D01*
X136263095Y-105291095D01*
X136405952Y-105338714D01*
X136977380Y-105910142D01*
X136977380Y-105291095D01*
X141343142Y-111007142D02*
X141295523Y-111054761D01*
X141152666Y-111102380D01*
X141057428Y-111102380D01*
X140914571Y-111054761D01*
X140819333Y-110959523D01*
X140771714Y-110864285D01*
X140724095Y-110673809D01*
X140724095Y-110530952D01*
X140771714Y-110340476D01*
X140819333Y-110245238D01*
X140914571Y-110150000D01*
X141057428Y-110102380D01*
X141152666Y-110102380D01*
X141295523Y-110150000D01*
X141343142Y-110197619D01*
X142295523Y-111102380D02*
X141724095Y-111102380D01*
X142009809Y-111102380D02*
X142009809Y-110102380D01*
X141914571Y-110245238D01*
X141819333Y-110340476D01*
X141724095Y-110388095D01*
X142628857Y-110102380D02*
X143247904Y-110102380D01*
X142914571Y-110483333D01*
X143057428Y-110483333D01*
X143152666Y-110530952D01*
X143200285Y-110578571D01*
X143247904Y-110673809D01*
X143247904Y-110911904D01*
X143200285Y-111007142D01*
X143152666Y-111054761D01*
X143057428Y-111102380D01*
X142771714Y-111102380D01*
X142676476Y-111054761D01*
X142628857Y-111007142D01*
X146186142Y-107195857D02*
X146233761Y-107243476D01*
X146281380Y-107386333D01*
X146281380Y-107481571D01*
X146233761Y-107624428D01*
X146138523Y-107719666D01*
X146043285Y-107767285D01*
X145852809Y-107814904D01*
X145709952Y-107814904D01*
X145519476Y-107767285D01*
X145424238Y-107719666D01*
X145329000Y-107624428D01*
X145281380Y-107481571D01*
X145281380Y-107386333D01*
X145329000Y-107243476D01*
X145376619Y-107195857D01*
X146281380Y-106243476D02*
X146281380Y-106814904D01*
X146281380Y-106529190D02*
X145281380Y-106529190D01*
X145424238Y-106624428D01*
X145519476Y-106719666D01*
X145567095Y-106814904D01*
X145614714Y-105386333D02*
X146281380Y-105386333D01*
X145233761Y-105624428D02*
X145948047Y-105862523D01*
X145948047Y-105243476D01*
X160537142Y-91066857D02*
X160584761Y-91114476D01*
X160632380Y-91257333D01*
X160632380Y-91352571D01*
X160584761Y-91495428D01*
X160489523Y-91590666D01*
X160394285Y-91638285D01*
X160203809Y-91685904D01*
X160060952Y-91685904D01*
X159870476Y-91638285D01*
X159775238Y-91590666D01*
X159680000Y-91495428D01*
X159632380Y-91352571D01*
X159632380Y-91257333D01*
X159680000Y-91114476D01*
X159727619Y-91066857D01*
X160632380Y-90114476D02*
X160632380Y-90685904D01*
X160632380Y-90400190D02*
X159632380Y-90400190D01*
X159775238Y-90495428D01*
X159870476Y-90590666D01*
X159918095Y-90685904D01*
X159632380Y-89209714D02*
X159632380Y-89685904D01*
X160108571Y-89733523D01*
X160060952Y-89685904D01*
X160013333Y-89590666D01*
X160013333Y-89352571D01*
X160060952Y-89257333D01*
X160108571Y-89209714D01*
X160203809Y-89162095D01*
X160441904Y-89162095D01*
X160537142Y-89209714D01*
X160584761Y-89257333D01*
X160632380Y-89352571D01*
X160632380Y-89590666D01*
X160584761Y-89685904D01*
X160537142Y-89733523D01*
X152122142Y-111894857D02*
X152169761Y-111942476D01*
X152217380Y-112085333D01*
X152217380Y-112180571D01*
X152169761Y-112323428D01*
X152074523Y-112418666D01*
X151979285Y-112466285D01*
X151788809Y-112513904D01*
X151645952Y-112513904D01*
X151455476Y-112466285D01*
X151360238Y-112418666D01*
X151265000Y-112323428D01*
X151217380Y-112180571D01*
X151217380Y-112085333D01*
X151265000Y-111942476D01*
X151312619Y-111894857D01*
X152217380Y-110942476D02*
X152217380Y-111513904D01*
X152217380Y-111228190D02*
X151217380Y-111228190D01*
X151360238Y-111323428D01*
X151455476Y-111418666D01*
X151503095Y-111513904D01*
X151217380Y-110085333D02*
X151217380Y-110275809D01*
X151265000Y-110371047D01*
X151312619Y-110418666D01*
X151455476Y-110513904D01*
X151645952Y-110561523D01*
X152026904Y-110561523D01*
X152122142Y-110513904D01*
X152169761Y-110466285D01*
X152217380Y-110371047D01*
X152217380Y-110180571D01*
X152169761Y-110085333D01*
X152122142Y-110037714D01*
X152026904Y-109990095D01*
X151788809Y-109990095D01*
X151693571Y-110037714D01*
X151645952Y-110085333D01*
X151598333Y-110180571D01*
X151598333Y-110371047D01*
X151645952Y-110466285D01*
X151693571Y-110513904D01*
X151788809Y-110561523D01*
X167505142Y-108561142D02*
X167457523Y-108608761D01*
X167314666Y-108656380D01*
X167219428Y-108656380D01*
X167076571Y-108608761D01*
X166981333Y-108513523D01*
X166933714Y-108418285D01*
X166886095Y-108227809D01*
X166886095Y-108084952D01*
X166933714Y-107894476D01*
X166981333Y-107799238D01*
X167076571Y-107704000D01*
X167219428Y-107656380D01*
X167314666Y-107656380D01*
X167457523Y-107704000D01*
X167505142Y-107751619D01*
X168457523Y-108656380D02*
X167886095Y-108656380D01*
X168171809Y-108656380D02*
X168171809Y-107656380D01*
X168076571Y-107799238D01*
X167981333Y-107894476D01*
X167886095Y-107942095D01*
X168790857Y-107656380D02*
X169457523Y-107656380D01*
X169028952Y-108656380D01*
X161266142Y-111894857D02*
X161313761Y-111942476D01*
X161361380Y-112085333D01*
X161361380Y-112180571D01*
X161313761Y-112323428D01*
X161218523Y-112418666D01*
X161123285Y-112466285D01*
X160932809Y-112513904D01*
X160789952Y-112513904D01*
X160599476Y-112466285D01*
X160504238Y-112418666D01*
X160409000Y-112323428D01*
X160361380Y-112180571D01*
X160361380Y-112085333D01*
X160409000Y-111942476D01*
X160456619Y-111894857D01*
X161361380Y-110942476D02*
X161361380Y-111513904D01*
X161361380Y-111228190D02*
X160361380Y-111228190D01*
X160504238Y-111323428D01*
X160599476Y-111418666D01*
X160647095Y-111513904D01*
X160789952Y-110371047D02*
X160742333Y-110466285D01*
X160694714Y-110513904D01*
X160599476Y-110561523D01*
X160551857Y-110561523D01*
X160456619Y-110513904D01*
X160409000Y-110466285D01*
X160361380Y-110371047D01*
X160361380Y-110180571D01*
X160409000Y-110085333D01*
X160456619Y-110037714D01*
X160551857Y-109990095D01*
X160599476Y-109990095D01*
X160694714Y-110037714D01*
X160742333Y-110085333D01*
X160789952Y-110180571D01*
X160789952Y-110371047D01*
X160837571Y-110466285D01*
X160885190Y-110513904D01*
X160980428Y-110561523D01*
X161170904Y-110561523D01*
X161266142Y-110513904D01*
X161313761Y-110466285D01*
X161361380Y-110371047D01*
X161361380Y-110180571D01*
X161313761Y-110085333D01*
X161266142Y-110037714D01*
X161170904Y-109990095D01*
X160980428Y-109990095D01*
X160885190Y-110037714D01*
X160837571Y-110085333D01*
X160789952Y-110180571D01*
X155076142Y-106306857D02*
X155123761Y-106354476D01*
X155171380Y-106497333D01*
X155171380Y-106592571D01*
X155123761Y-106735428D01*
X155028523Y-106830666D01*
X154933285Y-106878285D01*
X154742809Y-106925904D01*
X154599952Y-106925904D01*
X154409476Y-106878285D01*
X154314238Y-106830666D01*
X154219000Y-106735428D01*
X154171380Y-106592571D01*
X154171380Y-106497333D01*
X154219000Y-106354476D01*
X154266619Y-106306857D01*
X154266619Y-105925904D02*
X154219000Y-105878285D01*
X154171380Y-105783047D01*
X154171380Y-105544952D01*
X154219000Y-105449714D01*
X154266619Y-105402095D01*
X154361857Y-105354476D01*
X154457095Y-105354476D01*
X154599952Y-105402095D01*
X155171380Y-105973523D01*
X155171380Y-105354476D01*
X154599952Y-104783047D02*
X154552333Y-104878285D01*
X154504714Y-104925904D01*
X154409476Y-104973523D01*
X154361857Y-104973523D01*
X154266619Y-104925904D01*
X154219000Y-104878285D01*
X154171380Y-104783047D01*
X154171380Y-104592571D01*
X154219000Y-104497333D01*
X154266619Y-104449714D01*
X154361857Y-104402095D01*
X154409476Y-104402095D01*
X154504714Y-104449714D01*
X154552333Y-104497333D01*
X154599952Y-104592571D01*
X154599952Y-104783047D01*
X154647571Y-104878285D01*
X154695190Y-104925904D01*
X154790428Y-104973523D01*
X154980904Y-104973523D01*
X155076142Y-104925904D01*
X155123761Y-104878285D01*
X155171380Y-104783047D01*
X155171380Y-104592571D01*
X155123761Y-104497333D01*
X155076142Y-104449714D01*
X154980904Y-104402095D01*
X154790428Y-104402095D01*
X154695190Y-104449714D01*
X154647571Y-104497333D01*
X154599952Y-104592571D01*
X152282142Y-106306857D02*
X152329761Y-106354476D01*
X152377380Y-106497333D01*
X152377380Y-106592571D01*
X152329761Y-106735428D01*
X152234523Y-106830666D01*
X152139285Y-106878285D01*
X151948809Y-106925904D01*
X151805952Y-106925904D01*
X151615476Y-106878285D01*
X151520238Y-106830666D01*
X151425000Y-106735428D01*
X151377380Y-106592571D01*
X151377380Y-106497333D01*
X151425000Y-106354476D01*
X151472619Y-106306857D01*
X151472619Y-105925904D02*
X151425000Y-105878285D01*
X151377380Y-105783047D01*
X151377380Y-105544952D01*
X151425000Y-105449714D01*
X151472619Y-105402095D01*
X151567857Y-105354476D01*
X151663095Y-105354476D01*
X151805952Y-105402095D01*
X152377380Y-105973523D01*
X152377380Y-105354476D01*
X152377380Y-104878285D02*
X152377380Y-104687809D01*
X152329761Y-104592571D01*
X152282142Y-104544952D01*
X152139285Y-104449714D01*
X151948809Y-104402095D01*
X151567857Y-104402095D01*
X151472619Y-104449714D01*
X151425000Y-104497333D01*
X151377380Y-104592571D01*
X151377380Y-104783047D01*
X151425000Y-104878285D01*
X151472619Y-104925904D01*
X151567857Y-104973523D01*
X151805952Y-104973523D01*
X151901190Y-104925904D01*
X151948809Y-104878285D01*
X151996428Y-104783047D01*
X151996428Y-104592571D01*
X151948809Y-104497333D01*
X151901190Y-104449714D01*
X151805952Y-104402095D01*
X155805142Y-99194857D02*
X155852761Y-99242476D01*
X155900380Y-99385333D01*
X155900380Y-99480571D01*
X155852761Y-99623428D01*
X155757523Y-99718666D01*
X155662285Y-99766285D01*
X155471809Y-99813904D01*
X155328952Y-99813904D01*
X155138476Y-99766285D01*
X155043238Y-99718666D01*
X154948000Y-99623428D01*
X154900380Y-99480571D01*
X154900380Y-99385333D01*
X154948000Y-99242476D01*
X154995619Y-99194857D01*
X154900380Y-98861523D02*
X154900380Y-98242476D01*
X155281333Y-98575809D01*
X155281333Y-98432952D01*
X155328952Y-98337714D01*
X155376571Y-98290095D01*
X155471809Y-98242476D01*
X155709904Y-98242476D01*
X155805142Y-98290095D01*
X155852761Y-98337714D01*
X155900380Y-98432952D01*
X155900380Y-98718666D01*
X155852761Y-98813904D01*
X155805142Y-98861523D01*
X154900380Y-97623428D02*
X154900380Y-97528190D01*
X154948000Y-97432952D01*
X154995619Y-97385333D01*
X155090857Y-97337714D01*
X155281333Y-97290095D01*
X155519428Y-97290095D01*
X155709904Y-97337714D01*
X155805142Y-97385333D01*
X155852761Y-97432952D01*
X155900380Y-97528190D01*
X155900380Y-97623428D01*
X155852761Y-97718666D01*
X155805142Y-97766285D01*
X155709904Y-97813904D01*
X155519428Y-97861523D01*
X155281333Y-97861523D01*
X155090857Y-97813904D01*
X154995619Y-97766285D01*
X154948000Y-97718666D01*
X154900380Y-97623428D01*
X157456142Y-99067857D02*
X157503761Y-99115476D01*
X157551380Y-99258333D01*
X157551380Y-99353571D01*
X157503761Y-99496428D01*
X157408523Y-99591666D01*
X157313285Y-99639285D01*
X157122809Y-99686904D01*
X156979952Y-99686904D01*
X156789476Y-99639285D01*
X156694238Y-99591666D01*
X156599000Y-99496428D01*
X156551380Y-99353571D01*
X156551380Y-99258333D01*
X156599000Y-99115476D01*
X156646619Y-99067857D01*
X156551380Y-98734523D02*
X156551380Y-98115476D01*
X156932333Y-98448809D01*
X156932333Y-98305952D01*
X156979952Y-98210714D01*
X157027571Y-98163095D01*
X157122809Y-98115476D01*
X157360904Y-98115476D01*
X157456142Y-98163095D01*
X157503761Y-98210714D01*
X157551380Y-98305952D01*
X157551380Y-98591666D01*
X157503761Y-98686904D01*
X157456142Y-98734523D01*
X157551380Y-97163095D02*
X157551380Y-97734523D01*
X157551380Y-97448809D02*
X156551380Y-97448809D01*
X156694238Y-97544047D01*
X156789476Y-97639285D01*
X156837095Y-97734523D01*
X191762142Y-106181142D02*
X191714523Y-106228761D01*
X191571666Y-106276380D01*
X191476428Y-106276380D01*
X191333571Y-106228761D01*
X191238333Y-106133523D01*
X191190714Y-106038285D01*
X191143095Y-105847809D01*
X191143095Y-105704952D01*
X191190714Y-105514476D01*
X191238333Y-105419238D01*
X191333571Y-105324000D01*
X191476428Y-105276380D01*
X191571666Y-105276380D01*
X191714523Y-105324000D01*
X191762142Y-105371619D01*
X192095476Y-105276380D02*
X192714523Y-105276380D01*
X192381190Y-105657333D01*
X192524047Y-105657333D01*
X192619285Y-105704952D01*
X192666904Y-105752571D01*
X192714523Y-105847809D01*
X192714523Y-106085904D01*
X192666904Y-106181142D01*
X192619285Y-106228761D01*
X192524047Y-106276380D01*
X192238333Y-106276380D01*
X192143095Y-106228761D01*
X192095476Y-106181142D01*
X193095476Y-105371619D02*
X193143095Y-105324000D01*
X193238333Y-105276380D01*
X193476428Y-105276380D01*
X193571666Y-105324000D01*
X193619285Y-105371619D01*
X193666904Y-105466857D01*
X193666904Y-105562095D01*
X193619285Y-105704952D01*
X193047857Y-106276380D01*
X193666904Y-106276380D01*
X195318142Y-96336142D02*
X195270523Y-96383761D01*
X195127666Y-96431380D01*
X195032428Y-96431380D01*
X194889571Y-96383761D01*
X194794333Y-96288523D01*
X194746714Y-96193285D01*
X194699095Y-96002809D01*
X194699095Y-95859952D01*
X194746714Y-95669476D01*
X194794333Y-95574238D01*
X194889571Y-95479000D01*
X195032428Y-95431380D01*
X195127666Y-95431380D01*
X195270523Y-95479000D01*
X195318142Y-95526619D01*
X195651476Y-95431380D02*
X196270523Y-95431380D01*
X195937190Y-95812333D01*
X196080047Y-95812333D01*
X196175285Y-95859952D01*
X196222904Y-95907571D01*
X196270523Y-96002809D01*
X196270523Y-96240904D01*
X196222904Y-96336142D01*
X196175285Y-96383761D01*
X196080047Y-96431380D01*
X195794333Y-96431380D01*
X195699095Y-96383761D01*
X195651476Y-96336142D01*
X196603857Y-95431380D02*
X197222904Y-95431380D01*
X196889571Y-95812333D01*
X197032428Y-95812333D01*
X197127666Y-95859952D01*
X197175285Y-95907571D01*
X197222904Y-96002809D01*
X197222904Y-96240904D01*
X197175285Y-96336142D01*
X197127666Y-96383761D01*
X197032428Y-96431380D01*
X196746714Y-96431380D01*
X196651476Y-96383761D01*
X196603857Y-96336142D01*
X195318142Y-92907142D02*
X195270523Y-92954761D01*
X195127666Y-93002380D01*
X195032428Y-93002380D01*
X194889571Y-92954761D01*
X194794333Y-92859523D01*
X194746714Y-92764285D01*
X194699095Y-92573809D01*
X194699095Y-92430952D01*
X194746714Y-92240476D01*
X194794333Y-92145238D01*
X194889571Y-92050000D01*
X195032428Y-92002380D01*
X195127666Y-92002380D01*
X195270523Y-92050000D01*
X195318142Y-92097619D01*
X195651476Y-92002380D02*
X196270523Y-92002380D01*
X195937190Y-92383333D01*
X196080047Y-92383333D01*
X196175285Y-92430952D01*
X196222904Y-92478571D01*
X196270523Y-92573809D01*
X196270523Y-92811904D01*
X196222904Y-92907142D01*
X196175285Y-92954761D01*
X196080047Y-93002380D01*
X195794333Y-93002380D01*
X195699095Y-92954761D01*
X195651476Y-92907142D01*
X197127666Y-92335714D02*
X197127666Y-93002380D01*
X196889571Y-91954761D02*
X196651476Y-92669047D01*
X197270523Y-92669047D01*
X128214380Y-116244666D02*
X127738190Y-116578000D01*
X128214380Y-116816095D02*
X127214380Y-116816095D01*
X127214380Y-116435142D01*
X127262000Y-116339904D01*
X127309619Y-116292285D01*
X127404857Y-116244666D01*
X127547714Y-116244666D01*
X127642952Y-116292285D01*
X127690571Y-116339904D01*
X127738190Y-116435142D01*
X127738190Y-116816095D01*
X127214380Y-115911333D02*
X127214380Y-115244666D01*
X128214380Y-115673238D01*
X195032333Y-109291380D02*
X194699000Y-108815190D01*
X194460904Y-109291380D02*
X194460904Y-108291380D01*
X194841857Y-108291380D01*
X194937095Y-108339000D01*
X194984714Y-108386619D01*
X195032333Y-108481857D01*
X195032333Y-108624714D01*
X194984714Y-108719952D01*
X194937095Y-108767571D01*
X194841857Y-108815190D01*
X194460904Y-108815190D01*
X195603761Y-108719952D02*
X195508523Y-108672333D01*
X195460904Y-108624714D01*
X195413285Y-108529476D01*
X195413285Y-108481857D01*
X195460904Y-108386619D01*
X195508523Y-108339000D01*
X195603761Y-108291380D01*
X195794238Y-108291380D01*
X195889476Y-108339000D01*
X195937095Y-108386619D01*
X195984714Y-108481857D01*
X195984714Y-108529476D01*
X195937095Y-108624714D01*
X195889476Y-108672333D01*
X195794238Y-108719952D01*
X195603761Y-108719952D01*
X195508523Y-108767571D01*
X195460904Y-108815190D01*
X195413285Y-108910428D01*
X195413285Y-109100904D01*
X195460904Y-109196142D01*
X195508523Y-109243761D01*
X195603761Y-109291380D01*
X195794238Y-109291380D01*
X195889476Y-109243761D01*
X195937095Y-109196142D01*
X195984714Y-109100904D01*
X195984714Y-108910428D01*
X195937095Y-108815190D01*
X195889476Y-108767571D01*
X195794238Y-108719952D01*
X131262380Y-116244666D02*
X130786190Y-116578000D01*
X131262380Y-116816095D02*
X130262380Y-116816095D01*
X130262380Y-116435142D01*
X130310000Y-116339904D01*
X130357619Y-116292285D01*
X130452857Y-116244666D01*
X130595714Y-116244666D01*
X130690952Y-116292285D01*
X130738571Y-116339904D01*
X130786190Y-116435142D01*
X130786190Y-116816095D01*
X131262380Y-115768476D02*
X131262380Y-115578000D01*
X131214761Y-115482761D01*
X131167142Y-115435142D01*
X131024285Y-115339904D01*
X130833809Y-115292285D01*
X130452857Y-115292285D01*
X130357619Y-115339904D01*
X130310000Y-115387523D01*
X130262380Y-115482761D01*
X130262380Y-115673238D01*
X130310000Y-115768476D01*
X130357619Y-115816095D01*
X130452857Y-115863714D01*
X130690952Y-115863714D01*
X130786190Y-115816095D01*
X130833809Y-115768476D01*
X130881428Y-115673238D01*
X130881428Y-115482761D01*
X130833809Y-115387523D01*
X130786190Y-115339904D01*
X130690952Y-115292285D01*
X195064142Y-111577380D02*
X194730809Y-111101190D01*
X194492714Y-111577380D02*
X194492714Y-110577380D01*
X194873666Y-110577380D01*
X194968904Y-110625000D01*
X195016523Y-110672619D01*
X195064142Y-110767857D01*
X195064142Y-110910714D01*
X195016523Y-111005952D01*
X194968904Y-111053571D01*
X194873666Y-111101190D01*
X194492714Y-111101190D01*
X196016523Y-111577380D02*
X195445095Y-111577380D01*
X195730809Y-111577380D02*
X195730809Y-110577380D01*
X195635571Y-110720238D01*
X195540333Y-110815476D01*
X195445095Y-110863095D01*
X196635571Y-110577380D02*
X196730809Y-110577380D01*
X196826047Y-110625000D01*
X196873666Y-110672619D01*
X196921285Y-110767857D01*
X196968904Y-110958333D01*
X196968904Y-111196428D01*
X196921285Y-111386904D01*
X196873666Y-111482142D01*
X196826047Y-111529761D01*
X196730809Y-111577380D01*
X196635571Y-111577380D01*
X196540333Y-111529761D01*
X196492714Y-111482142D01*
X196445095Y-111386904D01*
X196397476Y-111196428D01*
X196397476Y-110958333D01*
X196445095Y-110767857D01*
X196492714Y-110672619D01*
X196540333Y-110625000D01*
X196635571Y-110577380D01*
X195064142Y-113863380D02*
X194730809Y-113387190D01*
X194492714Y-113863380D02*
X194492714Y-112863380D01*
X194873666Y-112863380D01*
X194968904Y-112911000D01*
X195016523Y-112958619D01*
X195064142Y-113053857D01*
X195064142Y-113196714D01*
X195016523Y-113291952D01*
X194968904Y-113339571D01*
X194873666Y-113387190D01*
X194492714Y-113387190D01*
X196016523Y-113863380D02*
X195445095Y-113863380D01*
X195730809Y-113863380D02*
X195730809Y-112863380D01*
X195635571Y-113006238D01*
X195540333Y-113101476D01*
X195445095Y-113149095D01*
X196968904Y-113863380D02*
X196397476Y-113863380D01*
X196683190Y-113863380D02*
X196683190Y-112863380D01*
X196587952Y-113006238D01*
X196492714Y-113101476D01*
X196397476Y-113149095D01*
X119499142Y-107767380D02*
X119165809Y-107291190D01*
X118927714Y-107767380D02*
X118927714Y-106767380D01*
X119308666Y-106767380D01*
X119403904Y-106815000D01*
X119451523Y-106862619D01*
X119499142Y-106957857D01*
X119499142Y-107100714D01*
X119451523Y-107195952D01*
X119403904Y-107243571D01*
X119308666Y-107291190D01*
X118927714Y-107291190D01*
X120451523Y-107767380D02*
X119880095Y-107767380D01*
X120165809Y-107767380D02*
X120165809Y-106767380D01*
X120070571Y-106910238D01*
X119975333Y-107005476D01*
X119880095Y-107053095D01*
X120832476Y-106862619D02*
X120880095Y-106815000D01*
X120975333Y-106767380D01*
X121213428Y-106767380D01*
X121308666Y-106815000D01*
X121356285Y-106862619D01*
X121403904Y-106957857D01*
X121403904Y-107053095D01*
X121356285Y-107195952D01*
X120784857Y-107767380D01*
X121403904Y-107767380D01*
X119499142Y-96845380D02*
X119165809Y-96369190D01*
X118927714Y-96845380D02*
X118927714Y-95845380D01*
X119308666Y-95845380D01*
X119403904Y-95893000D01*
X119451523Y-95940619D01*
X119499142Y-96035857D01*
X119499142Y-96178714D01*
X119451523Y-96273952D01*
X119403904Y-96321571D01*
X119308666Y-96369190D01*
X118927714Y-96369190D01*
X120451523Y-96845380D02*
X119880095Y-96845380D01*
X120165809Y-96845380D02*
X120165809Y-95845380D01*
X120070571Y-95988238D01*
X119975333Y-96083476D01*
X119880095Y-96131095D01*
X120784857Y-95845380D02*
X121403904Y-95845380D01*
X121070571Y-96226333D01*
X121213428Y-96226333D01*
X121308666Y-96273952D01*
X121356285Y-96321571D01*
X121403904Y-96416809D01*
X121403904Y-96654904D01*
X121356285Y-96750142D01*
X121308666Y-96797761D01*
X121213428Y-96845380D01*
X120927714Y-96845380D01*
X120832476Y-96797761D01*
X120784857Y-96750142D01*
X119499142Y-103322380D02*
X119165809Y-102846190D01*
X118927714Y-103322380D02*
X118927714Y-102322380D01*
X119308666Y-102322380D01*
X119403904Y-102370000D01*
X119451523Y-102417619D01*
X119499142Y-102512857D01*
X119499142Y-102655714D01*
X119451523Y-102750952D01*
X119403904Y-102798571D01*
X119308666Y-102846190D01*
X118927714Y-102846190D01*
X120451523Y-103322380D02*
X119880095Y-103322380D01*
X120165809Y-103322380D02*
X120165809Y-102322380D01*
X120070571Y-102465238D01*
X119975333Y-102560476D01*
X119880095Y-102608095D01*
X121308666Y-102655714D02*
X121308666Y-103322380D01*
X121070571Y-102274761D02*
X120832476Y-102989047D01*
X121451523Y-102989047D01*
X119499142Y-100909380D02*
X119165809Y-100433190D01*
X118927714Y-100909380D02*
X118927714Y-99909380D01*
X119308666Y-99909380D01*
X119403904Y-99957000D01*
X119451523Y-100004619D01*
X119499142Y-100099857D01*
X119499142Y-100242714D01*
X119451523Y-100337952D01*
X119403904Y-100385571D01*
X119308666Y-100433190D01*
X118927714Y-100433190D01*
X120451523Y-100909380D02*
X119880095Y-100909380D01*
X120165809Y-100909380D02*
X120165809Y-99909380D01*
X120070571Y-100052238D01*
X119975333Y-100147476D01*
X119880095Y-100195095D01*
X121356285Y-99909380D02*
X120880095Y-99909380D01*
X120832476Y-100385571D01*
X120880095Y-100337952D01*
X120975333Y-100290333D01*
X121213428Y-100290333D01*
X121308666Y-100337952D01*
X121356285Y-100385571D01*
X121403904Y-100480809D01*
X121403904Y-100718904D01*
X121356285Y-100814142D01*
X121308666Y-100861761D01*
X121213428Y-100909380D01*
X120975333Y-100909380D01*
X120880095Y-100861761D01*
X120832476Y-100814142D01*
X130802142Y-99258380D02*
X130468809Y-98782190D01*
X130230714Y-99258380D02*
X130230714Y-98258380D01*
X130611666Y-98258380D01*
X130706904Y-98306000D01*
X130754523Y-98353619D01*
X130802142Y-98448857D01*
X130802142Y-98591714D01*
X130754523Y-98686952D01*
X130706904Y-98734571D01*
X130611666Y-98782190D01*
X130230714Y-98782190D01*
X131754523Y-99258380D02*
X131183095Y-99258380D01*
X131468809Y-99258380D02*
X131468809Y-98258380D01*
X131373571Y-98401238D01*
X131278333Y-98496476D01*
X131183095Y-98544095D01*
X132611666Y-98258380D02*
X132421190Y-98258380D01*
X132325952Y-98306000D01*
X132278333Y-98353619D01*
X132183095Y-98496476D01*
X132135476Y-98686952D01*
X132135476Y-99067904D01*
X132183095Y-99163142D01*
X132230714Y-99210761D01*
X132325952Y-99258380D01*
X132516428Y-99258380D01*
X132611666Y-99210761D01*
X132659285Y-99163142D01*
X132706904Y-99067904D01*
X132706904Y-98829809D01*
X132659285Y-98734571D01*
X132611666Y-98686952D01*
X132516428Y-98639333D01*
X132325952Y-98639333D01*
X132230714Y-98686952D01*
X132183095Y-98734571D01*
X132135476Y-98829809D01*
X124960142Y-86812380D02*
X124626809Y-86336190D01*
X124388714Y-86812380D02*
X124388714Y-85812380D01*
X124769666Y-85812380D01*
X124864904Y-85860000D01*
X124912523Y-85907619D01*
X124960142Y-86002857D01*
X124960142Y-86145714D01*
X124912523Y-86240952D01*
X124864904Y-86288571D01*
X124769666Y-86336190D01*
X124388714Y-86336190D01*
X125912523Y-86812380D02*
X125341095Y-86812380D01*
X125626809Y-86812380D02*
X125626809Y-85812380D01*
X125531571Y-85955238D01*
X125436333Y-86050476D01*
X125341095Y-86098095D01*
X126245857Y-85812380D02*
X126912523Y-85812380D01*
X126483952Y-86812380D01*
X126309380Y-101607857D02*
X125833190Y-101941190D01*
X126309380Y-102179285D02*
X125309380Y-102179285D01*
X125309380Y-101798333D01*
X125357000Y-101703095D01*
X125404619Y-101655476D01*
X125499857Y-101607857D01*
X125642714Y-101607857D01*
X125737952Y-101655476D01*
X125785571Y-101703095D01*
X125833190Y-101798333D01*
X125833190Y-102179285D01*
X126309380Y-100655476D02*
X126309380Y-101226904D01*
X126309380Y-100941190D02*
X125309380Y-100941190D01*
X125452238Y-101036428D01*
X125547476Y-101131666D01*
X125595095Y-101226904D01*
X125737952Y-100084047D02*
X125690333Y-100179285D01*
X125642714Y-100226904D01*
X125547476Y-100274523D01*
X125499857Y-100274523D01*
X125404619Y-100226904D01*
X125357000Y-100179285D01*
X125309380Y-100084047D01*
X125309380Y-99893571D01*
X125357000Y-99798333D01*
X125404619Y-99750714D01*
X125499857Y-99703095D01*
X125547476Y-99703095D01*
X125642714Y-99750714D01*
X125690333Y-99798333D01*
X125737952Y-99893571D01*
X125737952Y-100084047D01*
X125785571Y-100179285D01*
X125833190Y-100226904D01*
X125928428Y-100274523D01*
X126118904Y-100274523D01*
X126214142Y-100226904D01*
X126261761Y-100179285D01*
X126309380Y-100084047D01*
X126309380Y-99893571D01*
X126261761Y-99798333D01*
X126214142Y-99750714D01*
X126118904Y-99703095D01*
X125928428Y-99703095D01*
X125833190Y-99750714D01*
X125785571Y-99798333D01*
X125737952Y-99893571D01*
X127754142Y-102339380D02*
X127420809Y-101863190D01*
X127182714Y-102339380D02*
X127182714Y-101339380D01*
X127563666Y-101339380D01*
X127658904Y-101387000D01*
X127706523Y-101434619D01*
X127754142Y-101529857D01*
X127754142Y-101672714D01*
X127706523Y-101767952D01*
X127658904Y-101815571D01*
X127563666Y-101863190D01*
X127182714Y-101863190D01*
X128706523Y-102339380D02*
X128135095Y-102339380D01*
X128420809Y-102339380D02*
X128420809Y-101339380D01*
X128325571Y-101482238D01*
X128230333Y-101577476D01*
X128135095Y-101625095D01*
X129182714Y-102339380D02*
X129373190Y-102339380D01*
X129468428Y-102291761D01*
X129516047Y-102244142D01*
X129611285Y-102101285D01*
X129658904Y-101910809D01*
X129658904Y-101529857D01*
X129611285Y-101434619D01*
X129563666Y-101387000D01*
X129468428Y-101339380D01*
X129277952Y-101339380D01*
X129182714Y-101387000D01*
X129135095Y-101434619D01*
X129087476Y-101529857D01*
X129087476Y-101767952D01*
X129135095Y-101863190D01*
X129182714Y-101910809D01*
X129277952Y-101958428D01*
X129468428Y-101958428D01*
X129563666Y-101910809D01*
X129611285Y-101863190D01*
X129658904Y-101767952D01*
X110528380Y-111894857D02*
X110052190Y-112228190D01*
X110528380Y-112466285D02*
X109528380Y-112466285D01*
X109528380Y-112085333D01*
X109576000Y-111990095D01*
X109623619Y-111942476D01*
X109718857Y-111894857D01*
X109861714Y-111894857D01*
X109956952Y-111942476D01*
X110004571Y-111990095D01*
X110052190Y-112085333D01*
X110052190Y-112466285D01*
X109623619Y-111513904D02*
X109576000Y-111466285D01*
X109528380Y-111371047D01*
X109528380Y-111132952D01*
X109576000Y-111037714D01*
X109623619Y-110990095D01*
X109718857Y-110942476D01*
X109814095Y-110942476D01*
X109956952Y-110990095D01*
X110528380Y-111561523D01*
X110528380Y-110942476D01*
X109528380Y-110323428D02*
X109528380Y-110228190D01*
X109576000Y-110132952D01*
X109623619Y-110085333D01*
X109718857Y-110037714D01*
X109909333Y-109990095D01*
X110147428Y-109990095D01*
X110337904Y-110037714D01*
X110433142Y-110085333D01*
X110480761Y-110132952D01*
X110528380Y-110228190D01*
X110528380Y-110323428D01*
X110480761Y-110418666D01*
X110433142Y-110466285D01*
X110337904Y-110513904D01*
X110147428Y-110561523D01*
X109909333Y-110561523D01*
X109718857Y-110513904D01*
X109623619Y-110466285D01*
X109576000Y-110418666D01*
X109528380Y-110323428D01*
X116878380Y-111894857D02*
X116402190Y-112228190D01*
X116878380Y-112466285D02*
X115878380Y-112466285D01*
X115878380Y-112085333D01*
X115926000Y-111990095D01*
X115973619Y-111942476D01*
X116068857Y-111894857D01*
X116211714Y-111894857D01*
X116306952Y-111942476D01*
X116354571Y-111990095D01*
X116402190Y-112085333D01*
X116402190Y-112466285D01*
X115973619Y-111513904D02*
X115926000Y-111466285D01*
X115878380Y-111371047D01*
X115878380Y-111132952D01*
X115926000Y-111037714D01*
X115973619Y-110990095D01*
X116068857Y-110942476D01*
X116164095Y-110942476D01*
X116306952Y-110990095D01*
X116878380Y-111561523D01*
X116878380Y-110942476D01*
X116878380Y-109990095D02*
X116878380Y-110561523D01*
X116878380Y-110275809D02*
X115878380Y-110275809D01*
X116021238Y-110371047D01*
X116116476Y-110466285D01*
X116164095Y-110561523D01*
X129390380Y-96781857D02*
X128914190Y-97115190D01*
X129390380Y-97353285D02*
X128390380Y-97353285D01*
X128390380Y-96972333D01*
X128438000Y-96877095D01*
X128485619Y-96829476D01*
X128580857Y-96781857D01*
X128723714Y-96781857D01*
X128818952Y-96829476D01*
X128866571Y-96877095D01*
X128914190Y-96972333D01*
X128914190Y-97353285D01*
X128485619Y-96400904D02*
X128438000Y-96353285D01*
X128390380Y-96258047D01*
X128390380Y-96019952D01*
X128438000Y-95924714D01*
X128485619Y-95877095D01*
X128580857Y-95829476D01*
X128676095Y-95829476D01*
X128818952Y-95877095D01*
X129390380Y-96448523D01*
X129390380Y-95829476D01*
X128485619Y-95448523D02*
X128438000Y-95400904D01*
X128390380Y-95305666D01*
X128390380Y-95067571D01*
X128438000Y-94972333D01*
X128485619Y-94924714D01*
X128580857Y-94877095D01*
X128676095Y-94877095D01*
X128818952Y-94924714D01*
X129390380Y-95496142D01*
X129390380Y-94877095D01*
X149329380Y-99448857D02*
X148853190Y-99782190D01*
X149329380Y-100020285D02*
X148329380Y-100020285D01*
X148329380Y-99639333D01*
X148377000Y-99544095D01*
X148424619Y-99496476D01*
X148519857Y-99448857D01*
X148662714Y-99448857D01*
X148757952Y-99496476D01*
X148805571Y-99544095D01*
X148853190Y-99639333D01*
X148853190Y-100020285D01*
X148424619Y-99067904D02*
X148377000Y-99020285D01*
X148329380Y-98925047D01*
X148329380Y-98686952D01*
X148377000Y-98591714D01*
X148424619Y-98544095D01*
X148519857Y-98496476D01*
X148615095Y-98496476D01*
X148757952Y-98544095D01*
X149329380Y-99115523D01*
X149329380Y-98496476D01*
X148329380Y-98163142D02*
X148329380Y-97544095D01*
X148710333Y-97877428D01*
X148710333Y-97734571D01*
X148757952Y-97639333D01*
X148805571Y-97591714D01*
X148900809Y-97544095D01*
X149138904Y-97544095D01*
X149234142Y-97591714D01*
X149281761Y-97639333D01*
X149329380Y-97734571D01*
X149329380Y-98020285D01*
X149281761Y-98115523D01*
X149234142Y-98163142D01*
X137787142Y-111102380D02*
X137453809Y-110626190D01*
X137215714Y-111102380D02*
X137215714Y-110102380D01*
X137596666Y-110102380D01*
X137691904Y-110150000D01*
X137739523Y-110197619D01*
X137787142Y-110292857D01*
X137787142Y-110435714D01*
X137739523Y-110530952D01*
X137691904Y-110578571D01*
X137596666Y-110626190D01*
X137215714Y-110626190D01*
X138168095Y-110197619D02*
X138215714Y-110150000D01*
X138310952Y-110102380D01*
X138549047Y-110102380D01*
X138644285Y-110150000D01*
X138691904Y-110197619D01*
X138739523Y-110292857D01*
X138739523Y-110388095D01*
X138691904Y-110530952D01*
X138120476Y-111102380D01*
X138739523Y-111102380D01*
X139596666Y-110435714D02*
X139596666Y-111102380D01*
X139358571Y-110054761D02*
X139120476Y-110769047D01*
X139739523Y-110769047D01*
X148821380Y-88653857D02*
X148345190Y-88987190D01*
X148821380Y-89225285D02*
X147821380Y-89225285D01*
X147821380Y-88844333D01*
X147869000Y-88749095D01*
X147916619Y-88701476D01*
X148011857Y-88653857D01*
X148154714Y-88653857D01*
X148249952Y-88701476D01*
X148297571Y-88749095D01*
X148345190Y-88844333D01*
X148345190Y-89225285D01*
X147916619Y-88272904D02*
X147869000Y-88225285D01*
X147821380Y-88130047D01*
X147821380Y-87891952D01*
X147869000Y-87796714D01*
X147916619Y-87749095D01*
X148011857Y-87701476D01*
X148107095Y-87701476D01*
X148249952Y-87749095D01*
X148821380Y-88320523D01*
X148821380Y-87701476D01*
X147821380Y-86796714D02*
X147821380Y-87272904D01*
X148297571Y-87320523D01*
X148249952Y-87272904D01*
X148202333Y-87177666D01*
X148202333Y-86939571D01*
X148249952Y-86844333D01*
X148297571Y-86796714D01*
X148392809Y-86749095D01*
X148630904Y-86749095D01*
X148726142Y-86796714D01*
X148773761Y-86844333D01*
X148821380Y-86939571D01*
X148821380Y-87177666D01*
X148773761Y-87272904D01*
X148726142Y-87320523D01*
X138534380Y-88653857D02*
X138058190Y-88987190D01*
X138534380Y-89225285D02*
X137534380Y-89225285D01*
X137534380Y-88844333D01*
X137582000Y-88749095D01*
X137629619Y-88701476D01*
X137724857Y-88653857D01*
X137867714Y-88653857D01*
X137962952Y-88701476D01*
X138010571Y-88749095D01*
X138058190Y-88844333D01*
X138058190Y-89225285D01*
X137629619Y-88272904D02*
X137582000Y-88225285D01*
X137534380Y-88130047D01*
X137534380Y-87891952D01*
X137582000Y-87796714D01*
X137629619Y-87749095D01*
X137724857Y-87701476D01*
X137820095Y-87701476D01*
X137962952Y-87749095D01*
X138534380Y-88320523D01*
X138534380Y-87701476D01*
X137534380Y-86844333D02*
X137534380Y-87034809D01*
X137582000Y-87130047D01*
X137629619Y-87177666D01*
X137772476Y-87272904D01*
X137962952Y-87320523D01*
X138343904Y-87320523D01*
X138439142Y-87272904D01*
X138486761Y-87225285D01*
X138534380Y-87130047D01*
X138534380Y-86939571D01*
X138486761Y-86844333D01*
X138439142Y-86796714D01*
X138343904Y-86749095D01*
X138105809Y-86749095D01*
X138010571Y-86796714D01*
X137962952Y-86844333D01*
X137915333Y-86939571D01*
X137915333Y-87130047D01*
X137962952Y-87225285D01*
X138010571Y-87272904D01*
X138105809Y-87320523D01*
X141963380Y-88653857D02*
X141487190Y-88987190D01*
X141963380Y-89225285D02*
X140963380Y-89225285D01*
X140963380Y-88844333D01*
X141011000Y-88749095D01*
X141058619Y-88701476D01*
X141153857Y-88653857D01*
X141296714Y-88653857D01*
X141391952Y-88701476D01*
X141439571Y-88749095D01*
X141487190Y-88844333D01*
X141487190Y-89225285D01*
X141058619Y-88272904D02*
X141011000Y-88225285D01*
X140963380Y-88130047D01*
X140963380Y-87891952D01*
X141011000Y-87796714D01*
X141058619Y-87749095D01*
X141153857Y-87701476D01*
X141249095Y-87701476D01*
X141391952Y-87749095D01*
X141963380Y-88320523D01*
X141963380Y-87701476D01*
X140963380Y-87368142D02*
X140963380Y-86701476D01*
X141963380Y-87130047D01*
X145392380Y-88653857D02*
X144916190Y-88987190D01*
X145392380Y-89225285D02*
X144392380Y-89225285D01*
X144392380Y-88844333D01*
X144440000Y-88749095D01*
X144487619Y-88701476D01*
X144582857Y-88653857D01*
X144725714Y-88653857D01*
X144820952Y-88701476D01*
X144868571Y-88749095D01*
X144916190Y-88844333D01*
X144916190Y-89225285D01*
X144487619Y-88272904D02*
X144440000Y-88225285D01*
X144392380Y-88130047D01*
X144392380Y-87891952D01*
X144440000Y-87796714D01*
X144487619Y-87749095D01*
X144582857Y-87701476D01*
X144678095Y-87701476D01*
X144820952Y-87749095D01*
X145392380Y-88320523D01*
X145392380Y-87701476D01*
X144820952Y-87130047D02*
X144773333Y-87225285D01*
X144725714Y-87272904D01*
X144630476Y-87320523D01*
X144582857Y-87320523D01*
X144487619Y-87272904D01*
X144440000Y-87225285D01*
X144392380Y-87130047D01*
X144392380Y-86939571D01*
X144440000Y-86844333D01*
X144487619Y-86796714D01*
X144582857Y-86749095D01*
X144630476Y-86749095D01*
X144725714Y-86796714D01*
X144773333Y-86844333D01*
X144820952Y-86939571D01*
X144820952Y-87130047D01*
X144868571Y-87225285D01*
X144916190Y-87272904D01*
X145011428Y-87320523D01*
X145201904Y-87320523D01*
X145297142Y-87272904D01*
X145344761Y-87225285D01*
X145392380Y-87130047D01*
X145392380Y-86939571D01*
X145344761Y-86844333D01*
X145297142Y-86796714D01*
X145201904Y-86749095D01*
X145011428Y-86749095D01*
X144916190Y-86796714D01*
X144868571Y-86844333D01*
X144820952Y-86939571D01*
X114879380Y-118244857D02*
X114403190Y-118578190D01*
X114879380Y-118816285D02*
X113879380Y-118816285D01*
X113879380Y-118435333D01*
X113927000Y-118340095D01*
X113974619Y-118292476D01*
X114069857Y-118244857D01*
X114212714Y-118244857D01*
X114307952Y-118292476D01*
X114355571Y-118340095D01*
X114403190Y-118435333D01*
X114403190Y-118816285D01*
X113974619Y-117863904D02*
X113927000Y-117816285D01*
X113879380Y-117721047D01*
X113879380Y-117482952D01*
X113927000Y-117387714D01*
X113974619Y-117340095D01*
X114069857Y-117292476D01*
X114165095Y-117292476D01*
X114307952Y-117340095D01*
X114879380Y-117911523D01*
X114879380Y-117292476D01*
X114879380Y-116816285D02*
X114879380Y-116625809D01*
X114831761Y-116530571D01*
X114784142Y-116482952D01*
X114641285Y-116387714D01*
X114450809Y-116340095D01*
X114069857Y-116340095D01*
X113974619Y-116387714D01*
X113927000Y-116435333D01*
X113879380Y-116530571D01*
X113879380Y-116721047D01*
X113927000Y-116816285D01*
X113974619Y-116863904D01*
X114069857Y-116911523D01*
X114307952Y-116911523D01*
X114403190Y-116863904D01*
X114450809Y-116816285D01*
X114498428Y-116721047D01*
X114498428Y-116530571D01*
X114450809Y-116435333D01*
X114403190Y-116387714D01*
X114307952Y-116340095D01*
X156075142Y-106751380D02*
X155741809Y-106275190D01*
X155503714Y-106751380D02*
X155503714Y-105751380D01*
X155884666Y-105751380D01*
X155979904Y-105799000D01*
X156027523Y-105846619D01*
X156075142Y-105941857D01*
X156075142Y-106084714D01*
X156027523Y-106179952D01*
X155979904Y-106227571D01*
X155884666Y-106275190D01*
X155503714Y-106275190D01*
X156408476Y-105751380D02*
X157027523Y-105751380D01*
X156694190Y-106132333D01*
X156837047Y-106132333D01*
X156932285Y-106179952D01*
X156979904Y-106227571D01*
X157027523Y-106322809D01*
X157027523Y-106560904D01*
X156979904Y-106656142D01*
X156932285Y-106703761D01*
X156837047Y-106751380D01*
X156551333Y-106751380D01*
X156456095Y-106703761D01*
X156408476Y-106656142D01*
X157646571Y-105751380D02*
X157741809Y-105751380D01*
X157837047Y-105799000D01*
X157884666Y-105846619D01*
X157932285Y-105941857D01*
X157979904Y-106132333D01*
X157979904Y-106370428D01*
X157932285Y-106560904D01*
X157884666Y-106656142D01*
X157837047Y-106703761D01*
X157741809Y-106751380D01*
X157646571Y-106751380D01*
X157551333Y-106703761D01*
X157503714Y-106656142D01*
X157456095Y-106560904D01*
X157408476Y-106370428D01*
X157408476Y-106132333D01*
X157456095Y-105941857D01*
X157503714Y-105846619D01*
X157551333Y-105799000D01*
X157646571Y-105751380D01*
X153154142Y-87033380D02*
X152820809Y-86557190D01*
X152582714Y-87033380D02*
X152582714Y-86033380D01*
X152963666Y-86033380D01*
X153058904Y-86081000D01*
X153106523Y-86128619D01*
X153154142Y-86223857D01*
X153154142Y-86366714D01*
X153106523Y-86461952D01*
X153058904Y-86509571D01*
X152963666Y-86557190D01*
X152582714Y-86557190D01*
X153487476Y-86033380D02*
X154106523Y-86033380D01*
X153773190Y-86414333D01*
X153916047Y-86414333D01*
X154011285Y-86461952D01*
X154058904Y-86509571D01*
X154106523Y-86604809D01*
X154106523Y-86842904D01*
X154058904Y-86938142D01*
X154011285Y-86985761D01*
X153916047Y-87033380D01*
X153630333Y-87033380D01*
X153535095Y-86985761D01*
X153487476Y-86938142D01*
X155058904Y-87033380D02*
X154487476Y-87033380D01*
X154773190Y-87033380D02*
X154773190Y-86033380D01*
X154677952Y-86176238D01*
X154582714Y-86271476D01*
X154487476Y-86319095D01*
X163680380Y-92082857D02*
X163204190Y-92416190D01*
X163680380Y-92654285D02*
X162680380Y-92654285D01*
X162680380Y-92273333D01*
X162728000Y-92178095D01*
X162775619Y-92130476D01*
X162870857Y-92082857D01*
X163013714Y-92082857D01*
X163108952Y-92130476D01*
X163156571Y-92178095D01*
X163204190Y-92273333D01*
X163204190Y-92654285D01*
X162680380Y-91749523D02*
X162680380Y-91130476D01*
X163061333Y-91463809D01*
X163061333Y-91320952D01*
X163108952Y-91225714D01*
X163156571Y-91178095D01*
X163251809Y-91130476D01*
X163489904Y-91130476D01*
X163585142Y-91178095D01*
X163632761Y-91225714D01*
X163680380Y-91320952D01*
X163680380Y-91606666D01*
X163632761Y-91701904D01*
X163585142Y-91749523D01*
X162775619Y-90749523D02*
X162728000Y-90701904D01*
X162680380Y-90606666D01*
X162680380Y-90368571D01*
X162728000Y-90273333D01*
X162775619Y-90225714D01*
X162870857Y-90178095D01*
X162966095Y-90178095D01*
X163108952Y-90225714D01*
X163680380Y-90797142D01*
X163680380Y-90178095D01*
X148328142Y-113863380D02*
X147994809Y-113387190D01*
X147756714Y-113863380D02*
X147756714Y-112863380D01*
X148137666Y-112863380D01*
X148232904Y-112911000D01*
X148280523Y-112958619D01*
X148328142Y-113053857D01*
X148328142Y-113196714D01*
X148280523Y-113291952D01*
X148232904Y-113339571D01*
X148137666Y-113387190D01*
X147756714Y-113387190D01*
X148661476Y-112863380D02*
X149280523Y-112863380D01*
X148947190Y-113244333D01*
X149090047Y-113244333D01*
X149185285Y-113291952D01*
X149232904Y-113339571D01*
X149280523Y-113434809D01*
X149280523Y-113672904D01*
X149232904Y-113768142D01*
X149185285Y-113815761D01*
X149090047Y-113863380D01*
X148804333Y-113863380D01*
X148709095Y-113815761D01*
X148661476Y-113768142D01*
X149613857Y-112863380D02*
X150232904Y-112863380D01*
X149899571Y-113244333D01*
X150042428Y-113244333D01*
X150137666Y-113291952D01*
X150185285Y-113339571D01*
X150232904Y-113434809D01*
X150232904Y-113672904D01*
X150185285Y-113768142D01*
X150137666Y-113815761D01*
X150042428Y-113863380D01*
X149756714Y-113863380D01*
X149661476Y-113815761D01*
X149613857Y-113768142D01*
X151884142Y-120246380D02*
X151550809Y-119770190D01*
X151312714Y-120246380D02*
X151312714Y-119246380D01*
X151693666Y-119246380D01*
X151788904Y-119294000D01*
X151836523Y-119341619D01*
X151884142Y-119436857D01*
X151884142Y-119579714D01*
X151836523Y-119674952D01*
X151788904Y-119722571D01*
X151693666Y-119770190D01*
X151312714Y-119770190D01*
X152217476Y-119246380D02*
X152836523Y-119246380D01*
X152503190Y-119627333D01*
X152646047Y-119627333D01*
X152741285Y-119674952D01*
X152788904Y-119722571D01*
X152836523Y-119817809D01*
X152836523Y-120055904D01*
X152788904Y-120151142D01*
X152741285Y-120198761D01*
X152646047Y-120246380D01*
X152360333Y-120246380D01*
X152265095Y-120198761D01*
X152217476Y-120151142D01*
X153693666Y-119579714D02*
X153693666Y-120246380D01*
X153455571Y-119198761D02*
X153217476Y-119913047D01*
X153836523Y-119913047D01*
X151630142Y-117165380D02*
X151296809Y-116689190D01*
X151058714Y-117165380D02*
X151058714Y-116165380D01*
X151439666Y-116165380D01*
X151534904Y-116213000D01*
X151582523Y-116260619D01*
X151630142Y-116355857D01*
X151630142Y-116498714D01*
X151582523Y-116593952D01*
X151534904Y-116641571D01*
X151439666Y-116689190D01*
X151058714Y-116689190D01*
X151963476Y-116165380D02*
X152582523Y-116165380D01*
X152249190Y-116546333D01*
X152392047Y-116546333D01*
X152487285Y-116593952D01*
X152534904Y-116641571D01*
X152582523Y-116736809D01*
X152582523Y-116974904D01*
X152534904Y-117070142D01*
X152487285Y-117117761D01*
X152392047Y-117165380D01*
X152106333Y-117165380D01*
X152011095Y-117117761D01*
X151963476Y-117070142D01*
X153487285Y-116165380D02*
X153011095Y-116165380D01*
X152963476Y-116641571D01*
X153011095Y-116593952D01*
X153106333Y-116546333D01*
X153344428Y-116546333D01*
X153439666Y-116593952D01*
X153487285Y-116641571D01*
X153534904Y-116736809D01*
X153534904Y-116974904D01*
X153487285Y-117070142D01*
X153439666Y-117117761D01*
X153344428Y-117165380D01*
X153106333Y-117165380D01*
X153011095Y-117117761D01*
X152963476Y-117070142D01*
X148201142Y-121610380D02*
X147867809Y-121134190D01*
X147629714Y-121610380D02*
X147629714Y-120610380D01*
X148010666Y-120610380D01*
X148105904Y-120658000D01*
X148153523Y-120705619D01*
X148201142Y-120800857D01*
X148201142Y-120943714D01*
X148153523Y-121038952D01*
X148105904Y-121086571D01*
X148010666Y-121134190D01*
X147629714Y-121134190D01*
X148534476Y-120610380D02*
X149153523Y-120610380D01*
X148820190Y-120991333D01*
X148963047Y-120991333D01*
X149058285Y-121038952D01*
X149105904Y-121086571D01*
X149153523Y-121181809D01*
X149153523Y-121419904D01*
X149105904Y-121515142D01*
X149058285Y-121562761D01*
X148963047Y-121610380D01*
X148677333Y-121610380D01*
X148582095Y-121562761D01*
X148534476Y-121515142D01*
X150010666Y-120610380D02*
X149820190Y-120610380D01*
X149724952Y-120658000D01*
X149677333Y-120705619D01*
X149582095Y-120848476D01*
X149534476Y-121038952D01*
X149534476Y-121419904D01*
X149582095Y-121515142D01*
X149629714Y-121562761D01*
X149724952Y-121610380D01*
X149915428Y-121610380D01*
X150010666Y-121562761D01*
X150058285Y-121515142D01*
X150105904Y-121419904D01*
X150105904Y-121181809D01*
X150058285Y-121086571D01*
X150010666Y-121038952D01*
X149915428Y-120991333D01*
X149724952Y-120991333D01*
X149629714Y-121038952D01*
X149582095Y-121086571D01*
X149534476Y-121181809D01*
X168219380Y-118244857D02*
X167743190Y-118578190D01*
X168219380Y-118816285D02*
X167219380Y-118816285D01*
X167219380Y-118435333D01*
X167267000Y-118340095D01*
X167314619Y-118292476D01*
X167409857Y-118244857D01*
X167552714Y-118244857D01*
X167647952Y-118292476D01*
X167695571Y-118340095D01*
X167743190Y-118435333D01*
X167743190Y-118816285D01*
X167219380Y-117911523D02*
X167219380Y-117292476D01*
X167600333Y-117625809D01*
X167600333Y-117482952D01*
X167647952Y-117387714D01*
X167695571Y-117340095D01*
X167790809Y-117292476D01*
X168028904Y-117292476D01*
X168124142Y-117340095D01*
X168171761Y-117387714D01*
X168219380Y-117482952D01*
X168219380Y-117768666D01*
X168171761Y-117863904D01*
X168124142Y-117911523D01*
X167219380Y-116959142D02*
X167219380Y-116292476D01*
X168219380Y-116721047D01*
X147693142Y-101892380D02*
X147359809Y-101416190D01*
X147121714Y-101892380D02*
X147121714Y-100892380D01*
X147502666Y-100892380D01*
X147597904Y-100940000D01*
X147645523Y-100987619D01*
X147693142Y-101082857D01*
X147693142Y-101225714D01*
X147645523Y-101320952D01*
X147597904Y-101368571D01*
X147502666Y-101416190D01*
X147121714Y-101416190D01*
X148550285Y-101225714D02*
X148550285Y-101892380D01*
X148312190Y-100844761D02*
X148074095Y-101559047D01*
X148693142Y-101559047D01*
X149121714Y-101892380D02*
X149312190Y-101892380D01*
X149407428Y-101844761D01*
X149455047Y-101797142D01*
X149550285Y-101654285D01*
X149597904Y-101463809D01*
X149597904Y-101082857D01*
X149550285Y-100987619D01*
X149502666Y-100940000D01*
X149407428Y-100892380D01*
X149216952Y-100892380D01*
X149121714Y-100940000D01*
X149074095Y-100987619D01*
X149026476Y-101082857D01*
X149026476Y-101320952D01*
X149074095Y-101416190D01*
X149121714Y-101463809D01*
X149216952Y-101511428D01*
X149407428Y-101511428D01*
X149502666Y-101463809D01*
X149550285Y-101416190D01*
X149597904Y-101320952D01*
X193779380Y-100337857D02*
X193303190Y-100671190D01*
X193779380Y-100909285D02*
X192779380Y-100909285D01*
X192779380Y-100528333D01*
X192827000Y-100433095D01*
X192874619Y-100385476D01*
X192969857Y-100337857D01*
X193112714Y-100337857D01*
X193207952Y-100385476D01*
X193255571Y-100433095D01*
X193303190Y-100528333D01*
X193303190Y-100909285D01*
X192779380Y-99433095D02*
X192779380Y-99909285D01*
X193255571Y-99956904D01*
X193207952Y-99909285D01*
X193160333Y-99814047D01*
X193160333Y-99575952D01*
X193207952Y-99480714D01*
X193255571Y-99433095D01*
X193350809Y-99385476D01*
X193588904Y-99385476D01*
X193684142Y-99433095D01*
X193731761Y-99480714D01*
X193779380Y-99575952D01*
X193779380Y-99814047D01*
X193731761Y-99909285D01*
X193684142Y-99956904D01*
X192779380Y-98766428D02*
X192779380Y-98671190D01*
X192827000Y-98575952D01*
X192874619Y-98528333D01*
X192969857Y-98480714D01*
X193160333Y-98433095D01*
X193398428Y-98433095D01*
X193588904Y-98480714D01*
X193684142Y-98528333D01*
X193731761Y-98575952D01*
X193779380Y-98671190D01*
X193779380Y-98766428D01*
X193731761Y-98861666D01*
X193684142Y-98909285D01*
X193588904Y-98956904D01*
X193398428Y-99004523D01*
X193160333Y-99004523D01*
X192969857Y-98956904D01*
X192874619Y-98909285D01*
X192827000Y-98861666D01*
X192779380Y-98766428D01*
X195191142Y-105702380D02*
X194857809Y-105226190D01*
X194619714Y-105702380D02*
X194619714Y-104702380D01*
X195000666Y-104702380D01*
X195095904Y-104750000D01*
X195143523Y-104797619D01*
X195191142Y-104892857D01*
X195191142Y-105035714D01*
X195143523Y-105130952D01*
X195095904Y-105178571D01*
X195000666Y-105226190D01*
X194619714Y-105226190D01*
X196095904Y-104702380D02*
X195619714Y-104702380D01*
X195572095Y-105178571D01*
X195619714Y-105130952D01*
X195714952Y-105083333D01*
X195953047Y-105083333D01*
X196048285Y-105130952D01*
X196095904Y-105178571D01*
X196143523Y-105273809D01*
X196143523Y-105511904D01*
X196095904Y-105607142D01*
X196048285Y-105654761D01*
X195953047Y-105702380D01*
X195714952Y-105702380D01*
X195619714Y-105654761D01*
X195572095Y-105607142D01*
X197095904Y-105702380D02*
X196524476Y-105702380D01*
X196810190Y-105702380D02*
X196810190Y-104702380D01*
X196714952Y-104845238D01*
X196619714Y-104940476D01*
X196524476Y-104988095D01*
X193286142Y-89573380D02*
X192952809Y-89097190D01*
X192714714Y-89573380D02*
X192714714Y-88573380D01*
X193095666Y-88573380D01*
X193190904Y-88621000D01*
X193238523Y-88668619D01*
X193286142Y-88763857D01*
X193286142Y-88906714D01*
X193238523Y-89001952D01*
X193190904Y-89049571D01*
X193095666Y-89097190D01*
X192714714Y-89097190D01*
X194190904Y-88573380D02*
X193714714Y-88573380D01*
X193667095Y-89049571D01*
X193714714Y-89001952D01*
X193809952Y-88954333D01*
X194048047Y-88954333D01*
X194143285Y-89001952D01*
X194190904Y-89049571D01*
X194238523Y-89144809D01*
X194238523Y-89382904D01*
X194190904Y-89478142D01*
X194143285Y-89525761D01*
X194048047Y-89573380D01*
X193809952Y-89573380D01*
X193714714Y-89525761D01*
X193667095Y-89478142D01*
X194619476Y-88668619D02*
X194667095Y-88621000D01*
X194762333Y-88573380D01*
X195000428Y-88573380D01*
X195095666Y-88621000D01*
X195143285Y-88668619D01*
X195190904Y-88763857D01*
X195190904Y-88859095D01*
X195143285Y-89001952D01*
X194571857Y-89573380D01*
X195190904Y-89573380D01*
M02*
