G04 #@! TF.GenerationSoftware,KiCad,Pcbnew,5.1.5*
G04 #@! TF.CreationDate,2020-03-06T22:13:42+01:00*
G04 #@! TF.ProjectId,himudev,68696d75-6465-4762-9e6b-696361645f70,rev?*
G04 #@! TF.SameCoordinates,Original*
G04 #@! TF.FileFunction,Soldermask,Bot*
G04 #@! TF.FilePolarity,Negative*
%FSLAX46Y46*%
G04 Gerber Fmt 4.6, Leading zero omitted, Abs format (unit mm)*
G04 Created by KiCad (PCBNEW 5.1.5) date 2020-03-06 22:13:42*
%MOMM*%
%LPD*%
G04 APERTURE LIST*
%ADD10C,0.100000*%
G04 APERTURE END LIST*
D10*
G36*
X178437157Y-114376395D02*
G01*
X178487639Y-114391708D01*
X178534168Y-114416578D01*
X178574951Y-114450049D01*
X178608422Y-114490832D01*
X178633292Y-114537361D01*
X178648605Y-114587843D01*
X178653900Y-114641601D01*
X178653900Y-115228399D01*
X178648605Y-115282157D01*
X178633292Y-115332639D01*
X178608422Y-115379168D01*
X178574951Y-115419951D01*
X178534168Y-115453422D01*
X178487639Y-115478292D01*
X178437157Y-115493605D01*
X178383399Y-115498900D01*
X177696601Y-115498900D01*
X177642843Y-115493605D01*
X177592361Y-115478292D01*
X177545832Y-115453422D01*
X177505049Y-115419951D01*
X177471578Y-115379168D01*
X177446708Y-115332639D01*
X177431395Y-115282157D01*
X177426100Y-115228399D01*
X177426100Y-114641601D01*
X177431395Y-114587843D01*
X177446708Y-114537361D01*
X177471578Y-114490832D01*
X177505049Y-114450049D01*
X177545832Y-114416578D01*
X177592361Y-114391708D01*
X177642843Y-114376395D01*
X177696601Y-114371100D01*
X178383399Y-114371100D01*
X178437157Y-114376395D01*
G37*
G36*
X176687157Y-114376395D02*
G01*
X176737639Y-114391708D01*
X176784168Y-114416578D01*
X176824951Y-114450049D01*
X176858422Y-114490832D01*
X176883292Y-114537361D01*
X176898605Y-114587843D01*
X176903900Y-114641601D01*
X176903900Y-115228399D01*
X176898605Y-115282157D01*
X176883292Y-115332639D01*
X176858422Y-115379168D01*
X176824951Y-115419951D01*
X176784168Y-115453422D01*
X176737639Y-115478292D01*
X176687157Y-115493605D01*
X176633399Y-115498900D01*
X175946601Y-115498900D01*
X175892843Y-115493605D01*
X175842361Y-115478292D01*
X175795832Y-115453422D01*
X175755049Y-115419951D01*
X175721578Y-115379168D01*
X175696708Y-115332639D01*
X175681395Y-115282157D01*
X175676100Y-115228399D01*
X175676100Y-114641601D01*
X175681395Y-114587843D01*
X175696708Y-114537361D01*
X175721578Y-114490832D01*
X175755049Y-114450049D01*
X175795832Y-114416578D01*
X175842361Y-114391708D01*
X175892843Y-114376395D01*
X175946601Y-114371100D01*
X176633399Y-114371100D01*
X176687157Y-114376395D01*
G37*
G36*
X176687157Y-112852395D02*
G01*
X176737639Y-112867708D01*
X176784168Y-112892578D01*
X176824951Y-112926049D01*
X176858422Y-112966832D01*
X176883292Y-113013361D01*
X176898605Y-113063843D01*
X176903900Y-113117601D01*
X176903900Y-113704399D01*
X176898605Y-113758157D01*
X176883292Y-113808639D01*
X176858422Y-113855168D01*
X176824951Y-113895951D01*
X176784168Y-113929422D01*
X176737639Y-113954292D01*
X176687157Y-113969605D01*
X176633399Y-113974900D01*
X175946601Y-113974900D01*
X175892843Y-113969605D01*
X175842361Y-113954292D01*
X175795832Y-113929422D01*
X175755049Y-113895951D01*
X175721578Y-113855168D01*
X175696708Y-113808639D01*
X175681395Y-113758157D01*
X175676100Y-113704399D01*
X175676100Y-113117601D01*
X175681395Y-113063843D01*
X175696708Y-113013361D01*
X175721578Y-112966832D01*
X175755049Y-112926049D01*
X175795832Y-112892578D01*
X175842361Y-112867708D01*
X175892843Y-112852395D01*
X175946601Y-112847100D01*
X176633399Y-112847100D01*
X176687157Y-112852395D01*
G37*
G36*
X178437157Y-112852395D02*
G01*
X178487639Y-112867708D01*
X178534168Y-112892578D01*
X178574951Y-112926049D01*
X178608422Y-112966832D01*
X178633292Y-113013361D01*
X178648605Y-113063843D01*
X178653900Y-113117601D01*
X178653900Y-113704399D01*
X178648605Y-113758157D01*
X178633292Y-113808639D01*
X178608422Y-113855168D01*
X178574951Y-113895951D01*
X178534168Y-113929422D01*
X178487639Y-113954292D01*
X178437157Y-113969605D01*
X178383399Y-113974900D01*
X177696601Y-113974900D01*
X177642843Y-113969605D01*
X177592361Y-113954292D01*
X177545832Y-113929422D01*
X177505049Y-113895951D01*
X177471578Y-113855168D01*
X177446708Y-113808639D01*
X177431395Y-113758157D01*
X177426100Y-113704399D01*
X177426100Y-113117601D01*
X177431395Y-113063843D01*
X177446708Y-113013361D01*
X177471578Y-112966832D01*
X177505049Y-112926049D01*
X177545832Y-112892578D01*
X177592361Y-112867708D01*
X177642843Y-112852395D01*
X177696601Y-112847100D01*
X178383399Y-112847100D01*
X178437157Y-112852395D01*
G37*
G36*
X176687157Y-111328395D02*
G01*
X176737639Y-111343708D01*
X176784168Y-111368578D01*
X176824951Y-111402049D01*
X176858422Y-111442832D01*
X176883292Y-111489361D01*
X176898605Y-111539843D01*
X176903900Y-111593601D01*
X176903900Y-112180399D01*
X176898605Y-112234157D01*
X176883292Y-112284639D01*
X176858422Y-112331168D01*
X176824951Y-112371951D01*
X176784168Y-112405422D01*
X176737639Y-112430292D01*
X176687157Y-112445605D01*
X176633399Y-112450900D01*
X175946601Y-112450900D01*
X175892843Y-112445605D01*
X175842361Y-112430292D01*
X175795832Y-112405422D01*
X175755049Y-112371951D01*
X175721578Y-112331168D01*
X175696708Y-112284639D01*
X175681395Y-112234157D01*
X175676100Y-112180399D01*
X175676100Y-111593601D01*
X175681395Y-111539843D01*
X175696708Y-111489361D01*
X175721578Y-111442832D01*
X175755049Y-111402049D01*
X175795832Y-111368578D01*
X175842361Y-111343708D01*
X175892843Y-111328395D01*
X175946601Y-111323100D01*
X176633399Y-111323100D01*
X176687157Y-111328395D01*
G37*
G36*
X178437157Y-111328395D02*
G01*
X178487639Y-111343708D01*
X178534168Y-111368578D01*
X178574951Y-111402049D01*
X178608422Y-111442832D01*
X178633292Y-111489361D01*
X178648605Y-111539843D01*
X178653900Y-111593601D01*
X178653900Y-112180399D01*
X178648605Y-112234157D01*
X178633292Y-112284639D01*
X178608422Y-112331168D01*
X178574951Y-112371951D01*
X178534168Y-112405422D01*
X178487639Y-112430292D01*
X178437157Y-112445605D01*
X178383399Y-112450900D01*
X177696601Y-112450900D01*
X177642843Y-112445605D01*
X177592361Y-112430292D01*
X177545832Y-112405422D01*
X177505049Y-112371951D01*
X177471578Y-112331168D01*
X177446708Y-112284639D01*
X177431395Y-112234157D01*
X177426100Y-112180399D01*
X177426100Y-111593601D01*
X177431395Y-111539843D01*
X177446708Y-111489361D01*
X177471578Y-111442832D01*
X177505049Y-111402049D01*
X177545832Y-111368578D01*
X177592361Y-111343708D01*
X177642843Y-111328395D01*
X177696601Y-111323100D01*
X178383399Y-111323100D01*
X178437157Y-111328395D01*
G37*
G36*
X176687157Y-109804395D02*
G01*
X176737639Y-109819708D01*
X176784168Y-109844578D01*
X176824951Y-109878049D01*
X176858422Y-109918832D01*
X176883292Y-109965361D01*
X176898605Y-110015843D01*
X176903900Y-110069601D01*
X176903900Y-110656399D01*
X176898605Y-110710157D01*
X176883292Y-110760639D01*
X176858422Y-110807168D01*
X176824951Y-110847951D01*
X176784168Y-110881422D01*
X176737639Y-110906292D01*
X176687157Y-110921605D01*
X176633399Y-110926900D01*
X175946601Y-110926900D01*
X175892843Y-110921605D01*
X175842361Y-110906292D01*
X175795832Y-110881422D01*
X175755049Y-110847951D01*
X175721578Y-110807168D01*
X175696708Y-110760639D01*
X175681395Y-110710157D01*
X175676100Y-110656399D01*
X175676100Y-110069601D01*
X175681395Y-110015843D01*
X175696708Y-109965361D01*
X175721578Y-109918832D01*
X175755049Y-109878049D01*
X175795832Y-109844578D01*
X175842361Y-109819708D01*
X175892843Y-109804395D01*
X175946601Y-109799100D01*
X176633399Y-109799100D01*
X176687157Y-109804395D01*
G37*
G36*
X178437157Y-109804395D02*
G01*
X178487639Y-109819708D01*
X178534168Y-109844578D01*
X178574951Y-109878049D01*
X178608422Y-109918832D01*
X178633292Y-109965361D01*
X178648605Y-110015843D01*
X178653900Y-110069601D01*
X178653900Y-110656399D01*
X178648605Y-110710157D01*
X178633292Y-110760639D01*
X178608422Y-110807168D01*
X178574951Y-110847951D01*
X178534168Y-110881422D01*
X178487639Y-110906292D01*
X178437157Y-110921605D01*
X178383399Y-110926900D01*
X177696601Y-110926900D01*
X177642843Y-110921605D01*
X177592361Y-110906292D01*
X177545832Y-110881422D01*
X177505049Y-110847951D01*
X177471578Y-110807168D01*
X177446708Y-110760639D01*
X177431395Y-110710157D01*
X177426100Y-110656399D01*
X177426100Y-110069601D01*
X177431395Y-110015843D01*
X177446708Y-109965361D01*
X177471578Y-109918832D01*
X177505049Y-109878049D01*
X177545832Y-109844578D01*
X177592361Y-109819708D01*
X177642843Y-109804395D01*
X177696601Y-109799100D01*
X178383399Y-109799100D01*
X178437157Y-109804395D01*
G37*
G36*
X176687157Y-108280395D02*
G01*
X176737639Y-108295708D01*
X176784168Y-108320578D01*
X176824951Y-108354049D01*
X176858422Y-108394832D01*
X176883292Y-108441361D01*
X176898605Y-108491843D01*
X176903900Y-108545601D01*
X176903900Y-109132399D01*
X176898605Y-109186157D01*
X176883292Y-109236639D01*
X176858422Y-109283168D01*
X176824951Y-109323951D01*
X176784168Y-109357422D01*
X176737639Y-109382292D01*
X176687157Y-109397605D01*
X176633399Y-109402900D01*
X175946601Y-109402900D01*
X175892843Y-109397605D01*
X175842361Y-109382292D01*
X175795832Y-109357422D01*
X175755049Y-109323951D01*
X175721578Y-109283168D01*
X175696708Y-109236639D01*
X175681395Y-109186157D01*
X175676100Y-109132399D01*
X175676100Y-108545601D01*
X175681395Y-108491843D01*
X175696708Y-108441361D01*
X175721578Y-108394832D01*
X175755049Y-108354049D01*
X175795832Y-108320578D01*
X175842361Y-108295708D01*
X175892843Y-108280395D01*
X175946601Y-108275100D01*
X176633399Y-108275100D01*
X176687157Y-108280395D01*
G37*
G36*
X178437157Y-108280395D02*
G01*
X178487639Y-108295708D01*
X178534168Y-108320578D01*
X178574951Y-108354049D01*
X178608422Y-108394832D01*
X178633292Y-108441361D01*
X178648605Y-108491843D01*
X178653900Y-108545601D01*
X178653900Y-109132399D01*
X178648605Y-109186157D01*
X178633292Y-109236639D01*
X178608422Y-109283168D01*
X178574951Y-109323951D01*
X178534168Y-109357422D01*
X178487639Y-109382292D01*
X178437157Y-109397605D01*
X178383399Y-109402900D01*
X177696601Y-109402900D01*
X177642843Y-109397605D01*
X177592361Y-109382292D01*
X177545832Y-109357422D01*
X177505049Y-109323951D01*
X177471578Y-109283168D01*
X177446708Y-109236639D01*
X177431395Y-109186157D01*
X177426100Y-109132399D01*
X177426100Y-108545601D01*
X177431395Y-108491843D01*
X177446708Y-108441361D01*
X177471578Y-108394832D01*
X177505049Y-108354049D01*
X177545832Y-108320578D01*
X177592361Y-108295708D01*
X177642843Y-108280395D01*
X177696601Y-108275100D01*
X178383399Y-108275100D01*
X178437157Y-108280395D01*
G37*
G36*
X178437157Y-106756395D02*
G01*
X178487639Y-106771708D01*
X178534168Y-106796578D01*
X178574951Y-106830049D01*
X178608422Y-106870832D01*
X178633292Y-106917361D01*
X178648605Y-106967843D01*
X178653900Y-107021601D01*
X178653900Y-107608399D01*
X178648605Y-107662157D01*
X178633292Y-107712639D01*
X178608422Y-107759168D01*
X178574951Y-107799951D01*
X178534168Y-107833422D01*
X178487639Y-107858292D01*
X178437157Y-107873605D01*
X178383399Y-107878900D01*
X177696601Y-107878900D01*
X177642843Y-107873605D01*
X177592361Y-107858292D01*
X177545832Y-107833422D01*
X177505049Y-107799951D01*
X177471578Y-107759168D01*
X177446708Y-107712639D01*
X177431395Y-107662157D01*
X177426100Y-107608399D01*
X177426100Y-107021601D01*
X177431395Y-106967843D01*
X177446708Y-106917361D01*
X177471578Y-106870832D01*
X177505049Y-106830049D01*
X177545832Y-106796578D01*
X177592361Y-106771708D01*
X177642843Y-106756395D01*
X177696601Y-106751100D01*
X178383399Y-106751100D01*
X178437157Y-106756395D01*
G37*
G36*
X176687157Y-106756395D02*
G01*
X176737639Y-106771708D01*
X176784168Y-106796578D01*
X176824951Y-106830049D01*
X176858422Y-106870832D01*
X176883292Y-106917361D01*
X176898605Y-106967843D01*
X176903900Y-107021601D01*
X176903900Y-107608399D01*
X176898605Y-107662157D01*
X176883292Y-107712639D01*
X176858422Y-107759168D01*
X176824951Y-107799951D01*
X176784168Y-107833422D01*
X176737639Y-107858292D01*
X176687157Y-107873605D01*
X176633399Y-107878900D01*
X175946601Y-107878900D01*
X175892843Y-107873605D01*
X175842361Y-107858292D01*
X175795832Y-107833422D01*
X175755049Y-107799951D01*
X175721578Y-107759168D01*
X175696708Y-107712639D01*
X175681395Y-107662157D01*
X175676100Y-107608399D01*
X175676100Y-107021601D01*
X175681395Y-106967843D01*
X175696708Y-106917361D01*
X175721578Y-106870832D01*
X175755049Y-106830049D01*
X175795832Y-106796578D01*
X175842361Y-106771708D01*
X175892843Y-106756395D01*
X175946601Y-106751100D01*
X176633399Y-106751100D01*
X176687157Y-106756395D01*
G37*
G36*
X157764157Y-106121395D02*
G01*
X157814639Y-106136708D01*
X157861168Y-106161578D01*
X157901951Y-106195049D01*
X157935422Y-106235832D01*
X157960292Y-106282361D01*
X157975605Y-106332843D01*
X157980900Y-106386601D01*
X157980900Y-106973399D01*
X157975605Y-107027157D01*
X157960292Y-107077639D01*
X157935422Y-107124168D01*
X157901951Y-107164951D01*
X157861168Y-107198422D01*
X157814639Y-107223292D01*
X157764157Y-107238605D01*
X157710399Y-107243900D01*
X157023601Y-107243900D01*
X156969843Y-107238605D01*
X156919361Y-107223292D01*
X156872832Y-107198422D01*
X156832049Y-107164951D01*
X156798578Y-107124168D01*
X156773708Y-107077639D01*
X156758395Y-107027157D01*
X156753100Y-106973399D01*
X156753100Y-106386601D01*
X156758395Y-106332843D01*
X156773708Y-106282361D01*
X156798578Y-106235832D01*
X156832049Y-106195049D01*
X156872832Y-106161578D01*
X156919361Y-106136708D01*
X156969843Y-106121395D01*
X157023601Y-106116100D01*
X157710399Y-106116100D01*
X157764157Y-106121395D01*
G37*
G36*
X159514157Y-106121395D02*
G01*
X159564639Y-106136708D01*
X159611168Y-106161578D01*
X159651951Y-106195049D01*
X159685422Y-106235832D01*
X159710292Y-106282361D01*
X159725605Y-106332843D01*
X159730900Y-106386601D01*
X159730900Y-106973399D01*
X159725605Y-107027157D01*
X159710292Y-107077639D01*
X159685422Y-107124168D01*
X159651951Y-107164951D01*
X159611168Y-107198422D01*
X159564639Y-107223292D01*
X159514157Y-107238605D01*
X159460399Y-107243900D01*
X158773601Y-107243900D01*
X158719843Y-107238605D01*
X158669361Y-107223292D01*
X158622832Y-107198422D01*
X158582049Y-107164951D01*
X158548578Y-107124168D01*
X158523708Y-107077639D01*
X158508395Y-107027157D01*
X158503100Y-106973399D01*
X158503100Y-106386601D01*
X158508395Y-106332843D01*
X158523708Y-106282361D01*
X158548578Y-106235832D01*
X158582049Y-106195049D01*
X158622832Y-106161578D01*
X158669361Y-106136708D01*
X158719843Y-106121395D01*
X158773601Y-106116100D01*
X159460399Y-106116100D01*
X159514157Y-106121395D01*
G37*
G36*
X166082157Y-105803395D02*
G01*
X166132639Y-105818708D01*
X166179168Y-105843578D01*
X166219951Y-105877049D01*
X166253422Y-105917832D01*
X166278292Y-105964361D01*
X166293605Y-106014843D01*
X166298900Y-106068601D01*
X166298900Y-106755399D01*
X166293605Y-106809157D01*
X166278292Y-106859639D01*
X166253422Y-106906168D01*
X166219951Y-106946951D01*
X166179168Y-106980422D01*
X166132639Y-107005292D01*
X166082157Y-107020605D01*
X166028399Y-107025900D01*
X165441601Y-107025900D01*
X165387843Y-107020605D01*
X165337361Y-107005292D01*
X165290832Y-106980422D01*
X165250049Y-106946951D01*
X165216578Y-106906168D01*
X165191708Y-106859639D01*
X165176395Y-106809157D01*
X165171100Y-106755399D01*
X165171100Y-106068601D01*
X165176395Y-106014843D01*
X165191708Y-105964361D01*
X165216578Y-105917832D01*
X165250049Y-105877049D01*
X165290832Y-105843578D01*
X165337361Y-105818708D01*
X165387843Y-105803395D01*
X165441601Y-105798100D01*
X166028399Y-105798100D01*
X166082157Y-105803395D01*
G37*
G36*
X111725366Y-105329959D02*
G01*
X111838222Y-105364193D01*
X111942231Y-105419787D01*
X112033395Y-105494604D01*
X112108212Y-105585768D01*
X112163806Y-105689777D01*
X112198040Y-105802633D01*
X112209600Y-105919999D01*
X112209600Y-105920001D01*
X112198040Y-106037367D01*
X112163806Y-106150223D01*
X112108212Y-106254232D01*
X112033395Y-106345396D01*
X111942231Y-106420213D01*
X111838222Y-106475807D01*
X111725366Y-106510041D01*
X111608000Y-106521601D01*
X110508000Y-106521601D01*
X110390634Y-106510041D01*
X110277778Y-106475807D01*
X110173769Y-106420213D01*
X110082605Y-106345396D01*
X110007788Y-106254232D01*
X109952194Y-106150223D01*
X109917960Y-106037367D01*
X109906400Y-105920001D01*
X109906400Y-105919999D01*
X109917960Y-105802633D01*
X109952194Y-105689777D01*
X110007788Y-105585768D01*
X110082605Y-105494604D01*
X110173769Y-105419787D01*
X110277778Y-105364193D01*
X110390634Y-105329959D01*
X110508000Y-105318399D01*
X111608000Y-105318399D01*
X111725366Y-105329959D01*
G37*
G36*
X107295366Y-105329959D02*
G01*
X107408222Y-105364193D01*
X107512231Y-105419787D01*
X107603395Y-105494604D01*
X107678212Y-105585768D01*
X107733806Y-105689777D01*
X107768040Y-105802633D01*
X107779600Y-105919999D01*
X107779600Y-105920001D01*
X107768040Y-106037367D01*
X107733806Y-106150223D01*
X107678212Y-106254232D01*
X107603395Y-106345396D01*
X107512231Y-106420213D01*
X107408222Y-106475807D01*
X107295366Y-106510041D01*
X107178000Y-106521601D01*
X106578000Y-106521601D01*
X106460634Y-106510041D01*
X106347778Y-106475807D01*
X106243769Y-106420213D01*
X106152605Y-106345396D01*
X106077788Y-106254232D01*
X106022194Y-106150223D01*
X105987960Y-106037367D01*
X105976400Y-105920001D01*
X105976400Y-105919999D01*
X105987960Y-105802633D01*
X106022194Y-105689777D01*
X106077788Y-105585768D01*
X106152605Y-105494604D01*
X106243769Y-105419787D01*
X106347778Y-105364193D01*
X106460634Y-105329959D01*
X106578000Y-105318399D01*
X107178000Y-105318399D01*
X107295366Y-105329959D01*
G37*
G36*
X157764157Y-104597395D02*
G01*
X157814639Y-104612708D01*
X157861168Y-104637578D01*
X157901951Y-104671049D01*
X157935422Y-104711832D01*
X157960292Y-104758361D01*
X157975605Y-104808843D01*
X157980900Y-104862601D01*
X157980900Y-105449399D01*
X157975605Y-105503157D01*
X157960292Y-105553639D01*
X157935422Y-105600168D01*
X157901951Y-105640951D01*
X157861168Y-105674422D01*
X157814639Y-105699292D01*
X157764157Y-105714605D01*
X157710399Y-105719900D01*
X157023601Y-105719900D01*
X156969843Y-105714605D01*
X156919361Y-105699292D01*
X156872832Y-105674422D01*
X156832049Y-105640951D01*
X156798578Y-105600168D01*
X156773708Y-105553639D01*
X156758395Y-105503157D01*
X156753100Y-105449399D01*
X156753100Y-104862601D01*
X156758395Y-104808843D01*
X156773708Y-104758361D01*
X156798578Y-104711832D01*
X156832049Y-104671049D01*
X156872832Y-104637578D01*
X156919361Y-104612708D01*
X156969843Y-104597395D01*
X157023601Y-104592100D01*
X157710399Y-104592100D01*
X157764157Y-104597395D01*
G37*
G36*
X159514157Y-104597395D02*
G01*
X159564639Y-104612708D01*
X159611168Y-104637578D01*
X159651951Y-104671049D01*
X159685422Y-104711832D01*
X159710292Y-104758361D01*
X159725605Y-104808843D01*
X159730900Y-104862601D01*
X159730900Y-105449399D01*
X159725605Y-105503157D01*
X159710292Y-105553639D01*
X159685422Y-105600168D01*
X159651951Y-105640951D01*
X159611168Y-105674422D01*
X159564639Y-105699292D01*
X159514157Y-105714605D01*
X159460399Y-105719900D01*
X158773601Y-105719900D01*
X158719843Y-105714605D01*
X158669361Y-105699292D01*
X158622832Y-105674422D01*
X158582049Y-105640951D01*
X158548578Y-105600168D01*
X158523708Y-105553639D01*
X158508395Y-105503157D01*
X158503100Y-105449399D01*
X158503100Y-104862601D01*
X158508395Y-104808843D01*
X158523708Y-104758361D01*
X158548578Y-104711832D01*
X158582049Y-104671049D01*
X158622832Y-104637578D01*
X158669361Y-104612708D01*
X158719843Y-104597395D01*
X158773601Y-104592100D01*
X159460399Y-104592100D01*
X159514157Y-104597395D01*
G37*
G36*
X166082157Y-104053395D02*
G01*
X166132639Y-104068708D01*
X166179168Y-104093578D01*
X166219951Y-104127049D01*
X166253422Y-104167832D01*
X166278292Y-104214361D01*
X166293605Y-104264843D01*
X166298900Y-104318601D01*
X166298900Y-105005399D01*
X166293605Y-105059157D01*
X166278292Y-105109639D01*
X166253422Y-105156168D01*
X166219951Y-105196951D01*
X166179168Y-105230422D01*
X166132639Y-105255292D01*
X166082157Y-105270605D01*
X166028399Y-105275900D01*
X165441601Y-105275900D01*
X165387843Y-105270605D01*
X165337361Y-105255292D01*
X165290832Y-105230422D01*
X165250049Y-105196951D01*
X165216578Y-105156168D01*
X165191708Y-105109639D01*
X165176395Y-105059157D01*
X165171100Y-105005399D01*
X165171100Y-104318601D01*
X165176395Y-104264843D01*
X165191708Y-104214361D01*
X165216578Y-104167832D01*
X165250049Y-104127049D01*
X165290832Y-104093578D01*
X165337361Y-104068708D01*
X165387843Y-104053395D01*
X165441601Y-104048100D01*
X166028399Y-104048100D01*
X166082157Y-104053395D01*
G37*
G36*
X164594157Y-104089395D02*
G01*
X164644639Y-104104708D01*
X164691168Y-104129578D01*
X164731951Y-104163049D01*
X164765422Y-104203832D01*
X164790292Y-104250361D01*
X164805605Y-104300843D01*
X164810900Y-104354601D01*
X164810900Y-104941399D01*
X164805605Y-104995157D01*
X164790292Y-105045639D01*
X164765422Y-105092168D01*
X164731951Y-105132951D01*
X164691168Y-105166422D01*
X164644639Y-105191292D01*
X164594157Y-105206605D01*
X164540399Y-105211900D01*
X163853601Y-105211900D01*
X163799843Y-105206605D01*
X163749361Y-105191292D01*
X163702832Y-105166422D01*
X163662049Y-105132951D01*
X163628578Y-105092168D01*
X163603708Y-105045639D01*
X163588395Y-104995157D01*
X163583100Y-104941399D01*
X163583100Y-104354601D01*
X163588395Y-104300843D01*
X163603708Y-104250361D01*
X163628578Y-104203832D01*
X163662049Y-104163049D01*
X163702832Y-104129578D01*
X163749361Y-104104708D01*
X163799843Y-104089395D01*
X163853601Y-104084100D01*
X164540399Y-104084100D01*
X164594157Y-104089395D01*
G37*
G36*
X162844157Y-104089395D02*
G01*
X162894639Y-104104708D01*
X162941168Y-104129578D01*
X162981951Y-104163049D01*
X163015422Y-104203832D01*
X163040292Y-104250361D01*
X163055605Y-104300843D01*
X163060900Y-104354601D01*
X163060900Y-104941399D01*
X163055605Y-104995157D01*
X163040292Y-105045639D01*
X163015422Y-105092168D01*
X162981951Y-105132951D01*
X162941168Y-105166422D01*
X162894639Y-105191292D01*
X162844157Y-105206605D01*
X162790399Y-105211900D01*
X162103601Y-105211900D01*
X162049843Y-105206605D01*
X161999361Y-105191292D01*
X161952832Y-105166422D01*
X161912049Y-105132951D01*
X161878578Y-105092168D01*
X161853708Y-105045639D01*
X161838395Y-104995157D01*
X161833100Y-104941399D01*
X161833100Y-104354601D01*
X161838395Y-104300843D01*
X161853708Y-104250361D01*
X161878578Y-104203832D01*
X161912049Y-104163049D01*
X161952832Y-104129578D01*
X161999361Y-104104708D01*
X162049843Y-104089395D01*
X162103601Y-104084100D01*
X162790399Y-104084100D01*
X162844157Y-104089395D01*
G37*
G36*
X110648730Y-104092006D02*
G01*
X110724055Y-104123206D01*
X110791846Y-104168503D01*
X110849497Y-104226154D01*
X110894794Y-104293945D01*
X110925994Y-104369270D01*
X110941900Y-104449234D01*
X110941900Y-104530766D01*
X110925994Y-104610730D01*
X110894794Y-104686055D01*
X110849497Y-104753846D01*
X110791846Y-104811497D01*
X110724055Y-104856794D01*
X110648730Y-104887994D01*
X110568766Y-104903900D01*
X110487234Y-104903900D01*
X110407270Y-104887994D01*
X110331945Y-104856794D01*
X110264154Y-104811497D01*
X110206503Y-104753846D01*
X110161206Y-104686055D01*
X110130006Y-104610730D01*
X110114100Y-104530766D01*
X110114100Y-104449234D01*
X110130006Y-104369270D01*
X110161206Y-104293945D01*
X110206503Y-104226154D01*
X110264154Y-104168503D01*
X110331945Y-104123206D01*
X110407270Y-104092006D01*
X110487234Y-104076100D01*
X110568766Y-104076100D01*
X110648730Y-104092006D01*
G37*
G36*
X161129157Y-103136395D02*
G01*
X161179639Y-103151708D01*
X161226168Y-103176578D01*
X161266951Y-103210049D01*
X161300422Y-103250832D01*
X161325292Y-103297361D01*
X161340605Y-103347843D01*
X161345900Y-103401601D01*
X161345900Y-104088399D01*
X161340605Y-104142157D01*
X161325292Y-104192639D01*
X161300422Y-104239168D01*
X161266951Y-104279951D01*
X161226168Y-104313422D01*
X161179639Y-104338292D01*
X161129157Y-104353605D01*
X161075399Y-104358900D01*
X160488601Y-104358900D01*
X160434843Y-104353605D01*
X160384361Y-104338292D01*
X160337832Y-104313422D01*
X160297049Y-104279951D01*
X160263578Y-104239168D01*
X160238708Y-104192639D01*
X160223395Y-104142157D01*
X160218100Y-104088399D01*
X160218100Y-103401601D01*
X160223395Y-103347843D01*
X160238708Y-103297361D01*
X160263578Y-103250832D01*
X160297049Y-103210049D01*
X160337832Y-103176578D01*
X160384361Y-103151708D01*
X160434843Y-103136395D01*
X160488601Y-103131100D01*
X161075399Y-103131100D01*
X161129157Y-103136395D01*
G37*
G36*
X176687157Y-102565395D02*
G01*
X176737639Y-102580708D01*
X176784168Y-102605578D01*
X176824951Y-102639049D01*
X176858422Y-102679832D01*
X176883292Y-102726361D01*
X176898605Y-102776843D01*
X176903900Y-102830601D01*
X176903900Y-103417399D01*
X176898605Y-103471157D01*
X176883292Y-103521639D01*
X176858422Y-103568168D01*
X176824951Y-103608951D01*
X176784168Y-103642422D01*
X176737639Y-103667292D01*
X176687157Y-103682605D01*
X176633399Y-103687900D01*
X175946601Y-103687900D01*
X175892843Y-103682605D01*
X175842361Y-103667292D01*
X175795832Y-103642422D01*
X175755049Y-103608951D01*
X175721578Y-103568168D01*
X175696708Y-103521639D01*
X175681395Y-103471157D01*
X175676100Y-103417399D01*
X175676100Y-102830601D01*
X175681395Y-102776843D01*
X175696708Y-102726361D01*
X175721578Y-102679832D01*
X175755049Y-102639049D01*
X175795832Y-102605578D01*
X175842361Y-102580708D01*
X175892843Y-102565395D01*
X175946601Y-102560100D01*
X176633399Y-102560100D01*
X176687157Y-102565395D01*
G37*
G36*
X178437157Y-102565395D02*
G01*
X178487639Y-102580708D01*
X178534168Y-102605578D01*
X178574951Y-102639049D01*
X178608422Y-102679832D01*
X178633292Y-102726361D01*
X178648605Y-102776843D01*
X178653900Y-102830601D01*
X178653900Y-103417399D01*
X178648605Y-103471157D01*
X178633292Y-103521639D01*
X178608422Y-103568168D01*
X178574951Y-103608951D01*
X178534168Y-103642422D01*
X178487639Y-103667292D01*
X178437157Y-103682605D01*
X178383399Y-103687900D01*
X177696601Y-103687900D01*
X177642843Y-103682605D01*
X177592361Y-103667292D01*
X177545832Y-103642422D01*
X177505049Y-103608951D01*
X177471578Y-103568168D01*
X177446708Y-103521639D01*
X177431395Y-103471157D01*
X177426100Y-103417399D01*
X177426100Y-102830601D01*
X177431395Y-102776843D01*
X177446708Y-102726361D01*
X177471578Y-102679832D01*
X177505049Y-102639049D01*
X177545832Y-102605578D01*
X177592361Y-102580708D01*
X177642843Y-102565395D01*
X177696601Y-102560100D01*
X178383399Y-102560100D01*
X178437157Y-102565395D01*
G37*
G36*
X169166157Y-102565395D02*
G01*
X169216639Y-102580708D01*
X169263168Y-102605578D01*
X169303951Y-102639049D01*
X169337422Y-102679832D01*
X169362292Y-102726361D01*
X169377605Y-102776843D01*
X169382900Y-102830601D01*
X169382900Y-103417399D01*
X169377605Y-103471157D01*
X169362292Y-103521639D01*
X169337422Y-103568168D01*
X169303951Y-103608951D01*
X169263168Y-103642422D01*
X169216639Y-103667292D01*
X169166157Y-103682605D01*
X169112399Y-103687900D01*
X168425601Y-103687900D01*
X168371843Y-103682605D01*
X168321361Y-103667292D01*
X168274832Y-103642422D01*
X168234049Y-103608951D01*
X168200578Y-103568168D01*
X168175708Y-103521639D01*
X168160395Y-103471157D01*
X168155100Y-103417399D01*
X168155100Y-102830601D01*
X168160395Y-102776843D01*
X168175708Y-102726361D01*
X168200578Y-102679832D01*
X168234049Y-102639049D01*
X168274832Y-102605578D01*
X168321361Y-102580708D01*
X168371843Y-102565395D01*
X168425601Y-102560100D01*
X169112399Y-102560100D01*
X169166157Y-102565395D01*
G37*
G36*
X167416157Y-102565395D02*
G01*
X167466639Y-102580708D01*
X167513168Y-102605578D01*
X167553951Y-102639049D01*
X167587422Y-102679832D01*
X167612292Y-102726361D01*
X167627605Y-102776843D01*
X167632900Y-102830601D01*
X167632900Y-103417399D01*
X167627605Y-103471157D01*
X167612292Y-103521639D01*
X167587422Y-103568168D01*
X167553951Y-103608951D01*
X167513168Y-103642422D01*
X167466639Y-103667292D01*
X167416157Y-103682605D01*
X167362399Y-103687900D01*
X166675601Y-103687900D01*
X166621843Y-103682605D01*
X166571361Y-103667292D01*
X166524832Y-103642422D01*
X166484049Y-103608951D01*
X166450578Y-103568168D01*
X166425708Y-103521639D01*
X166410395Y-103471157D01*
X166405100Y-103417399D01*
X166405100Y-102830601D01*
X166410395Y-102776843D01*
X166425708Y-102726361D01*
X166450578Y-102679832D01*
X166484049Y-102639049D01*
X166524832Y-102605578D01*
X166571361Y-102580708D01*
X166621843Y-102565395D01*
X166675601Y-102560100D01*
X167362399Y-102560100D01*
X167416157Y-102565395D01*
G37*
G36*
X164420465Y-100072161D02*
G01*
X164709626Y-100191935D01*
X164969865Y-100365821D01*
X165191179Y-100587135D01*
X165365065Y-100847374D01*
X165484839Y-101136535D01*
X165545900Y-101443507D01*
X165545900Y-101756493D01*
X165484839Y-102063465D01*
X165365065Y-102352626D01*
X165191179Y-102612865D01*
X164969865Y-102834179D01*
X164709626Y-103008065D01*
X164420465Y-103127839D01*
X164113493Y-103188900D01*
X163800507Y-103188900D01*
X163493535Y-103127839D01*
X163204374Y-103008065D01*
X162944135Y-102834179D01*
X162722821Y-102612865D01*
X162548935Y-102352626D01*
X162429161Y-102063465D01*
X162368100Y-101756493D01*
X162368100Y-101443507D01*
X162429161Y-101136535D01*
X162548935Y-100847374D01*
X162722821Y-100587135D01*
X162944135Y-100365821D01*
X163204374Y-100191935D01*
X163493535Y-100072161D01*
X163800507Y-100011100D01*
X164113493Y-100011100D01*
X164420465Y-100072161D01*
G37*
G36*
X161129157Y-101386395D02*
G01*
X161179639Y-101401708D01*
X161226168Y-101426578D01*
X161266951Y-101460049D01*
X161300422Y-101500832D01*
X161325292Y-101547361D01*
X161340605Y-101597843D01*
X161345900Y-101651601D01*
X161345900Y-102338399D01*
X161340605Y-102392157D01*
X161325292Y-102442639D01*
X161300422Y-102489168D01*
X161266951Y-102529951D01*
X161226168Y-102563422D01*
X161179639Y-102588292D01*
X161129157Y-102603605D01*
X161075399Y-102608900D01*
X160488601Y-102608900D01*
X160434843Y-102603605D01*
X160384361Y-102588292D01*
X160337832Y-102563422D01*
X160297049Y-102529951D01*
X160263578Y-102489168D01*
X160238708Y-102442639D01*
X160223395Y-102392157D01*
X160218100Y-102338399D01*
X160218100Y-101651601D01*
X160223395Y-101597843D01*
X160238708Y-101547361D01*
X160263578Y-101500832D01*
X160297049Y-101460049D01*
X160337832Y-101426578D01*
X160384361Y-101401708D01*
X160434843Y-101386395D01*
X160488601Y-101381100D01*
X161075399Y-101381100D01*
X161129157Y-101386395D01*
G37*
G36*
X157446157Y-101358395D02*
G01*
X157496639Y-101373708D01*
X157543168Y-101398578D01*
X157583951Y-101432049D01*
X157617422Y-101472832D01*
X157642292Y-101519361D01*
X157657605Y-101569843D01*
X157662900Y-101623601D01*
X157662900Y-102310399D01*
X157657605Y-102364157D01*
X157642292Y-102414639D01*
X157617422Y-102461168D01*
X157583951Y-102501951D01*
X157543168Y-102535422D01*
X157496639Y-102560292D01*
X157446157Y-102575605D01*
X157392399Y-102580900D01*
X156805601Y-102580900D01*
X156751843Y-102575605D01*
X156701361Y-102560292D01*
X156654832Y-102535422D01*
X156614049Y-102501951D01*
X156580578Y-102461168D01*
X156555708Y-102414639D01*
X156540395Y-102364157D01*
X156535100Y-102310399D01*
X156535100Y-101623601D01*
X156540395Y-101569843D01*
X156555708Y-101519361D01*
X156580578Y-101472832D01*
X156614049Y-101432049D01*
X156654832Y-101398578D01*
X156701361Y-101373708D01*
X156751843Y-101358395D01*
X156805601Y-101353100D01*
X157392399Y-101353100D01*
X157446157Y-101358395D01*
G37*
G36*
X176687157Y-101041395D02*
G01*
X176737639Y-101056708D01*
X176784168Y-101081578D01*
X176824951Y-101115049D01*
X176858422Y-101155832D01*
X176883292Y-101202361D01*
X176898605Y-101252843D01*
X176903900Y-101306601D01*
X176903900Y-101893399D01*
X176898605Y-101947157D01*
X176883292Y-101997639D01*
X176858422Y-102044168D01*
X176824951Y-102084951D01*
X176784168Y-102118422D01*
X176737639Y-102143292D01*
X176687157Y-102158605D01*
X176633399Y-102163900D01*
X175946601Y-102163900D01*
X175892843Y-102158605D01*
X175842361Y-102143292D01*
X175795832Y-102118422D01*
X175755049Y-102084951D01*
X175721578Y-102044168D01*
X175696708Y-101997639D01*
X175681395Y-101947157D01*
X175676100Y-101893399D01*
X175676100Y-101306601D01*
X175681395Y-101252843D01*
X175696708Y-101202361D01*
X175721578Y-101155832D01*
X175755049Y-101115049D01*
X175795832Y-101081578D01*
X175842361Y-101056708D01*
X175892843Y-101041395D01*
X175946601Y-101036100D01*
X176633399Y-101036100D01*
X176687157Y-101041395D01*
G37*
G36*
X178437157Y-101041395D02*
G01*
X178487639Y-101056708D01*
X178534168Y-101081578D01*
X178574951Y-101115049D01*
X178608422Y-101155832D01*
X178633292Y-101202361D01*
X178648605Y-101252843D01*
X178653900Y-101306601D01*
X178653900Y-101893399D01*
X178648605Y-101947157D01*
X178633292Y-101997639D01*
X178608422Y-102044168D01*
X178574951Y-102084951D01*
X178534168Y-102118422D01*
X178487639Y-102143292D01*
X178437157Y-102158605D01*
X178383399Y-102163900D01*
X177696601Y-102163900D01*
X177642843Y-102158605D01*
X177592361Y-102143292D01*
X177545832Y-102118422D01*
X177505049Y-102084951D01*
X177471578Y-102044168D01*
X177446708Y-101997639D01*
X177431395Y-101947157D01*
X177426100Y-101893399D01*
X177426100Y-101306601D01*
X177431395Y-101252843D01*
X177446708Y-101202361D01*
X177471578Y-101155832D01*
X177505049Y-101115049D01*
X177545832Y-101081578D01*
X177592361Y-101056708D01*
X177642843Y-101041395D01*
X177696601Y-101036100D01*
X178383399Y-101036100D01*
X178437157Y-101041395D01*
G37*
G36*
X167416157Y-100406395D02*
G01*
X167466639Y-100421708D01*
X167513168Y-100446578D01*
X167553951Y-100480049D01*
X167587422Y-100520832D01*
X167612292Y-100567361D01*
X167627605Y-100617843D01*
X167632900Y-100671601D01*
X167632900Y-101258399D01*
X167627605Y-101312157D01*
X167612292Y-101362639D01*
X167587422Y-101409168D01*
X167553951Y-101449951D01*
X167513168Y-101483422D01*
X167466639Y-101508292D01*
X167416157Y-101523605D01*
X167362399Y-101528900D01*
X166675601Y-101528900D01*
X166621843Y-101523605D01*
X166571361Y-101508292D01*
X166524832Y-101483422D01*
X166484049Y-101449951D01*
X166450578Y-101409168D01*
X166425708Y-101362639D01*
X166410395Y-101312157D01*
X166405100Y-101258399D01*
X166405100Y-100671601D01*
X166410395Y-100617843D01*
X166425708Y-100567361D01*
X166450578Y-100520832D01*
X166484049Y-100480049D01*
X166524832Y-100446578D01*
X166571361Y-100421708D01*
X166621843Y-100406395D01*
X166675601Y-100401100D01*
X167362399Y-100401100D01*
X167416157Y-100406395D01*
G37*
G36*
X169166157Y-100406395D02*
G01*
X169216639Y-100421708D01*
X169263168Y-100446578D01*
X169303951Y-100480049D01*
X169337422Y-100520832D01*
X169362292Y-100567361D01*
X169377605Y-100617843D01*
X169382900Y-100671601D01*
X169382900Y-101258399D01*
X169377605Y-101312157D01*
X169362292Y-101362639D01*
X169337422Y-101409168D01*
X169303951Y-101449951D01*
X169263168Y-101483422D01*
X169216639Y-101508292D01*
X169166157Y-101523605D01*
X169112399Y-101528900D01*
X168425601Y-101528900D01*
X168371843Y-101523605D01*
X168321361Y-101508292D01*
X168274832Y-101483422D01*
X168234049Y-101449951D01*
X168200578Y-101409168D01*
X168175708Y-101362639D01*
X168160395Y-101312157D01*
X168155100Y-101258399D01*
X168155100Y-100671601D01*
X168160395Y-100617843D01*
X168175708Y-100567361D01*
X168200578Y-100520832D01*
X168234049Y-100480049D01*
X168274832Y-100446578D01*
X168321361Y-100421708D01*
X168371843Y-100406395D01*
X168425601Y-100401100D01*
X169112399Y-100401100D01*
X169166157Y-100406395D01*
G37*
G36*
X161383157Y-99834395D02*
G01*
X161433639Y-99849708D01*
X161480168Y-99874578D01*
X161520951Y-99908049D01*
X161554422Y-99948832D01*
X161579292Y-99995361D01*
X161594605Y-100045843D01*
X161599900Y-100099601D01*
X161599900Y-100786399D01*
X161594605Y-100840157D01*
X161579292Y-100890639D01*
X161554422Y-100937168D01*
X161520951Y-100977951D01*
X161480168Y-101011422D01*
X161433639Y-101036292D01*
X161383157Y-101051605D01*
X161329399Y-101056900D01*
X160742601Y-101056900D01*
X160688843Y-101051605D01*
X160638361Y-101036292D01*
X160591832Y-101011422D01*
X160551049Y-100977951D01*
X160517578Y-100937168D01*
X160492708Y-100890639D01*
X160477395Y-100840157D01*
X160472100Y-100786399D01*
X160472100Y-100099601D01*
X160477395Y-100045843D01*
X160492708Y-99995361D01*
X160517578Y-99948832D01*
X160551049Y-99908049D01*
X160591832Y-99874578D01*
X160638361Y-99849708D01*
X160688843Y-99834395D01*
X160742601Y-99829100D01*
X161329399Y-99829100D01*
X161383157Y-99834395D01*
G37*
G36*
X157446157Y-99608395D02*
G01*
X157496639Y-99623708D01*
X157543168Y-99648578D01*
X157583951Y-99682049D01*
X157617422Y-99722832D01*
X157642292Y-99769361D01*
X157657605Y-99819843D01*
X157662900Y-99873601D01*
X157662900Y-100560399D01*
X157657605Y-100614157D01*
X157642292Y-100664639D01*
X157617422Y-100711168D01*
X157583951Y-100751951D01*
X157543168Y-100785422D01*
X157496639Y-100810292D01*
X157446157Y-100825605D01*
X157392399Y-100830900D01*
X156805601Y-100830900D01*
X156751843Y-100825605D01*
X156701361Y-100810292D01*
X156654832Y-100785422D01*
X156614049Y-100751951D01*
X156580578Y-100711168D01*
X156555708Y-100664639D01*
X156540395Y-100614157D01*
X156535100Y-100560399D01*
X156535100Y-99873601D01*
X156540395Y-99819843D01*
X156555708Y-99769361D01*
X156580578Y-99722832D01*
X156614049Y-99682049D01*
X156654832Y-99648578D01*
X156701361Y-99623708D01*
X156751843Y-99608395D01*
X156805601Y-99603100D01*
X157392399Y-99603100D01*
X157446157Y-99608395D01*
G37*
G36*
X161383157Y-98084395D02*
G01*
X161433639Y-98099708D01*
X161480168Y-98124578D01*
X161520951Y-98158049D01*
X161554422Y-98198832D01*
X161579292Y-98245361D01*
X161594605Y-98295843D01*
X161599900Y-98349601D01*
X161599900Y-99036399D01*
X161594605Y-99090157D01*
X161579292Y-99140639D01*
X161554422Y-99187168D01*
X161520951Y-99227951D01*
X161480168Y-99261422D01*
X161433639Y-99286292D01*
X161383157Y-99301605D01*
X161329399Y-99306900D01*
X160742601Y-99306900D01*
X160688843Y-99301605D01*
X160638361Y-99286292D01*
X160591832Y-99261422D01*
X160551049Y-99227951D01*
X160517578Y-99187168D01*
X160492708Y-99140639D01*
X160477395Y-99090157D01*
X160472100Y-99036399D01*
X160472100Y-98349601D01*
X160477395Y-98295843D01*
X160492708Y-98245361D01*
X160517578Y-98198832D01*
X160551049Y-98158049D01*
X160591832Y-98124578D01*
X160638361Y-98099708D01*
X160688843Y-98084395D01*
X160742601Y-98079100D01*
X161329399Y-98079100D01*
X161383157Y-98084395D01*
G37*
G36*
X110648730Y-98312006D02*
G01*
X110724055Y-98343206D01*
X110791846Y-98388503D01*
X110849497Y-98446154D01*
X110894794Y-98513945D01*
X110925994Y-98589270D01*
X110941900Y-98669234D01*
X110941900Y-98750766D01*
X110925994Y-98830730D01*
X110894794Y-98906055D01*
X110849497Y-98973846D01*
X110791846Y-99031497D01*
X110724055Y-99076794D01*
X110648730Y-99107994D01*
X110568766Y-99123900D01*
X110487234Y-99123900D01*
X110407270Y-99107994D01*
X110331945Y-99076794D01*
X110264154Y-99031497D01*
X110206503Y-98973846D01*
X110161206Y-98906055D01*
X110130006Y-98830730D01*
X110114100Y-98750766D01*
X110114100Y-98669234D01*
X110130006Y-98589270D01*
X110161206Y-98513945D01*
X110206503Y-98446154D01*
X110264154Y-98388503D01*
X110331945Y-98343206D01*
X110407270Y-98312006D01*
X110487234Y-98296100D01*
X110568766Y-98296100D01*
X110648730Y-98312006D01*
G37*
G36*
X163860157Y-97993395D02*
G01*
X163910639Y-98008708D01*
X163957168Y-98033578D01*
X163997951Y-98067049D01*
X164031422Y-98107832D01*
X164056292Y-98154361D01*
X164071605Y-98204843D01*
X164076900Y-98258601D01*
X164076900Y-98845399D01*
X164071605Y-98899157D01*
X164056292Y-98949639D01*
X164031422Y-98996168D01*
X163997951Y-99036951D01*
X163957168Y-99070422D01*
X163910639Y-99095292D01*
X163860157Y-99110605D01*
X163806399Y-99115900D01*
X163119601Y-99115900D01*
X163065843Y-99110605D01*
X163015361Y-99095292D01*
X162968832Y-99070422D01*
X162928049Y-99036951D01*
X162894578Y-98996168D01*
X162869708Y-98949639D01*
X162854395Y-98899157D01*
X162849100Y-98845399D01*
X162849100Y-98258601D01*
X162854395Y-98204843D01*
X162869708Y-98154361D01*
X162894578Y-98107832D01*
X162928049Y-98067049D01*
X162968832Y-98033578D01*
X163015361Y-98008708D01*
X163065843Y-97993395D01*
X163119601Y-97988100D01*
X163806399Y-97988100D01*
X163860157Y-97993395D01*
G37*
G36*
X165610157Y-97993395D02*
G01*
X165660639Y-98008708D01*
X165707168Y-98033578D01*
X165747951Y-98067049D01*
X165781422Y-98107832D01*
X165806292Y-98154361D01*
X165821605Y-98204843D01*
X165826900Y-98258601D01*
X165826900Y-98845399D01*
X165821605Y-98899157D01*
X165806292Y-98949639D01*
X165781422Y-98996168D01*
X165747951Y-99036951D01*
X165707168Y-99070422D01*
X165660639Y-99095292D01*
X165610157Y-99110605D01*
X165556399Y-99115900D01*
X164869601Y-99115900D01*
X164815843Y-99110605D01*
X164765361Y-99095292D01*
X164718832Y-99070422D01*
X164678049Y-99036951D01*
X164644578Y-98996168D01*
X164619708Y-98949639D01*
X164604395Y-98899157D01*
X164599100Y-98845399D01*
X164599100Y-98258601D01*
X164604395Y-98204843D01*
X164619708Y-98154361D01*
X164644578Y-98107832D01*
X164678049Y-98067049D01*
X164718832Y-98033578D01*
X164765361Y-98008708D01*
X164815843Y-97993395D01*
X164869601Y-97988100D01*
X165556399Y-97988100D01*
X165610157Y-97993395D01*
G37*
G36*
X111725366Y-96689959D02*
G01*
X111838222Y-96724193D01*
X111942231Y-96779787D01*
X112033395Y-96854604D01*
X112108212Y-96945768D01*
X112163806Y-97049777D01*
X112198040Y-97162633D01*
X112209600Y-97279999D01*
X112209600Y-97280001D01*
X112198040Y-97397367D01*
X112163806Y-97510223D01*
X112108212Y-97614232D01*
X112033395Y-97705396D01*
X111942231Y-97780213D01*
X111838222Y-97835807D01*
X111725366Y-97870041D01*
X111608000Y-97881601D01*
X110508000Y-97881601D01*
X110390634Y-97870041D01*
X110277778Y-97835807D01*
X110173769Y-97780213D01*
X110082605Y-97705396D01*
X110007788Y-97614232D01*
X109952194Y-97510223D01*
X109917960Y-97397367D01*
X109906400Y-97280001D01*
X109906400Y-97279999D01*
X109917960Y-97162633D01*
X109952194Y-97049777D01*
X110007788Y-96945768D01*
X110082605Y-96854604D01*
X110173769Y-96779787D01*
X110277778Y-96724193D01*
X110390634Y-96689959D01*
X110508000Y-96678399D01*
X111608000Y-96678399D01*
X111725366Y-96689959D01*
G37*
G36*
X107295366Y-96689959D02*
G01*
X107408222Y-96724193D01*
X107512231Y-96779787D01*
X107603395Y-96854604D01*
X107678212Y-96945768D01*
X107733806Y-97049777D01*
X107768040Y-97162633D01*
X107779600Y-97279999D01*
X107779600Y-97280001D01*
X107768040Y-97397367D01*
X107733806Y-97510223D01*
X107678212Y-97614232D01*
X107603395Y-97705396D01*
X107512231Y-97780213D01*
X107408222Y-97835807D01*
X107295366Y-97870041D01*
X107178000Y-97881601D01*
X106578000Y-97881601D01*
X106460634Y-97870041D01*
X106347778Y-97835807D01*
X106243769Y-97780213D01*
X106152605Y-97705396D01*
X106077788Y-97614232D01*
X106022194Y-97510223D01*
X105987960Y-97397367D01*
X105976400Y-97280001D01*
X105976400Y-97279999D01*
X105987960Y-97162633D01*
X106022194Y-97049777D01*
X106077788Y-96945768D01*
X106152605Y-96854604D01*
X106243769Y-96779787D01*
X106347778Y-96724193D01*
X106460634Y-96689959D01*
X106578000Y-96678399D01*
X107178000Y-96678399D01*
X107295366Y-96689959D01*
G37*
G36*
X170146157Y-93230395D02*
G01*
X170196639Y-93245708D01*
X170243168Y-93270578D01*
X170283951Y-93304049D01*
X170317422Y-93344832D01*
X170342292Y-93391361D01*
X170357605Y-93441843D01*
X170362900Y-93495601D01*
X170362900Y-94182399D01*
X170357605Y-94236157D01*
X170342292Y-94286639D01*
X170317422Y-94333168D01*
X170283951Y-94373951D01*
X170243168Y-94407422D01*
X170196639Y-94432292D01*
X170146157Y-94447605D01*
X170092399Y-94452900D01*
X169505601Y-94452900D01*
X169451843Y-94447605D01*
X169401361Y-94432292D01*
X169354832Y-94407422D01*
X169314049Y-94373951D01*
X169280578Y-94333168D01*
X169255708Y-94286639D01*
X169240395Y-94236157D01*
X169235100Y-94182399D01*
X169235100Y-93495601D01*
X169240395Y-93441843D01*
X169255708Y-93391361D01*
X169280578Y-93344832D01*
X169314049Y-93304049D01*
X169354832Y-93270578D01*
X169401361Y-93245708D01*
X169451843Y-93230395D01*
X169505601Y-93225100D01*
X170092399Y-93225100D01*
X170146157Y-93230395D01*
G37*
G36*
X166209157Y-93230395D02*
G01*
X166259639Y-93245708D01*
X166306168Y-93270578D01*
X166346951Y-93304049D01*
X166380422Y-93344832D01*
X166405292Y-93391361D01*
X166420605Y-93441843D01*
X166425900Y-93495601D01*
X166425900Y-94182399D01*
X166420605Y-94236157D01*
X166405292Y-94286639D01*
X166380422Y-94333168D01*
X166346951Y-94373951D01*
X166306168Y-94407422D01*
X166259639Y-94432292D01*
X166209157Y-94447605D01*
X166155399Y-94452900D01*
X165568601Y-94452900D01*
X165514843Y-94447605D01*
X165464361Y-94432292D01*
X165417832Y-94407422D01*
X165377049Y-94373951D01*
X165343578Y-94333168D01*
X165318708Y-94286639D01*
X165303395Y-94236157D01*
X165298100Y-94182399D01*
X165298100Y-93495601D01*
X165303395Y-93441843D01*
X165318708Y-93391361D01*
X165343578Y-93344832D01*
X165377049Y-93304049D01*
X165417832Y-93270578D01*
X165464361Y-93245708D01*
X165514843Y-93230395D01*
X165568601Y-93225100D01*
X166155399Y-93225100D01*
X166209157Y-93230395D01*
G37*
G36*
X178655157Y-93103395D02*
G01*
X178705639Y-93118708D01*
X178752168Y-93143578D01*
X178792951Y-93177049D01*
X178826422Y-93217832D01*
X178851292Y-93264361D01*
X178866605Y-93314843D01*
X178871900Y-93368601D01*
X178871900Y-94055399D01*
X178866605Y-94109157D01*
X178851292Y-94159639D01*
X178826422Y-94206168D01*
X178792951Y-94246951D01*
X178752168Y-94280422D01*
X178705639Y-94305292D01*
X178655157Y-94320605D01*
X178601399Y-94325900D01*
X178014601Y-94325900D01*
X177960843Y-94320605D01*
X177910361Y-94305292D01*
X177863832Y-94280422D01*
X177823049Y-94246951D01*
X177789578Y-94206168D01*
X177764708Y-94159639D01*
X177749395Y-94109157D01*
X177744100Y-94055399D01*
X177744100Y-93368601D01*
X177749395Y-93314843D01*
X177764708Y-93264361D01*
X177789578Y-93217832D01*
X177823049Y-93177049D01*
X177863832Y-93143578D01*
X177910361Y-93118708D01*
X177960843Y-93103395D01*
X178014601Y-93098100D01*
X178601399Y-93098100D01*
X178655157Y-93103395D01*
G37*
G36*
X174337157Y-93103395D02*
G01*
X174387639Y-93118708D01*
X174434168Y-93143578D01*
X174474951Y-93177049D01*
X174508422Y-93217832D01*
X174533292Y-93264361D01*
X174548605Y-93314843D01*
X174553900Y-93368601D01*
X174553900Y-94055399D01*
X174548605Y-94109157D01*
X174533292Y-94159639D01*
X174508422Y-94206168D01*
X174474951Y-94246951D01*
X174434168Y-94280422D01*
X174387639Y-94305292D01*
X174337157Y-94320605D01*
X174283399Y-94325900D01*
X173696601Y-94325900D01*
X173642843Y-94320605D01*
X173592361Y-94305292D01*
X173545832Y-94280422D01*
X173505049Y-94246951D01*
X173471578Y-94206168D01*
X173446708Y-94159639D01*
X173431395Y-94109157D01*
X173426100Y-94055399D01*
X173426100Y-93368601D01*
X173431395Y-93314843D01*
X173446708Y-93264361D01*
X173471578Y-93217832D01*
X173505049Y-93177049D01*
X173545832Y-93143578D01*
X173592361Y-93118708D01*
X173642843Y-93103395D01*
X173696601Y-93098100D01*
X174283399Y-93098100D01*
X174337157Y-93103395D01*
G37*
G36*
X166209157Y-91480395D02*
G01*
X166259639Y-91495708D01*
X166306168Y-91520578D01*
X166346951Y-91554049D01*
X166380422Y-91594832D01*
X166405292Y-91641361D01*
X166420605Y-91691843D01*
X166425900Y-91745601D01*
X166425900Y-92432399D01*
X166420605Y-92486157D01*
X166405292Y-92536639D01*
X166380422Y-92583168D01*
X166346951Y-92623951D01*
X166306168Y-92657422D01*
X166259639Y-92682292D01*
X166209157Y-92697605D01*
X166155399Y-92702900D01*
X165568601Y-92702900D01*
X165514843Y-92697605D01*
X165464361Y-92682292D01*
X165417832Y-92657422D01*
X165377049Y-92623951D01*
X165343578Y-92583168D01*
X165318708Y-92536639D01*
X165303395Y-92486157D01*
X165298100Y-92432399D01*
X165298100Y-91745601D01*
X165303395Y-91691843D01*
X165318708Y-91641361D01*
X165343578Y-91594832D01*
X165377049Y-91554049D01*
X165417832Y-91520578D01*
X165464361Y-91495708D01*
X165514843Y-91480395D01*
X165568601Y-91475100D01*
X166155399Y-91475100D01*
X166209157Y-91480395D01*
G37*
G36*
X170146157Y-91480395D02*
G01*
X170196639Y-91495708D01*
X170243168Y-91520578D01*
X170283951Y-91554049D01*
X170317422Y-91594832D01*
X170342292Y-91641361D01*
X170357605Y-91691843D01*
X170362900Y-91745601D01*
X170362900Y-92432399D01*
X170357605Y-92486157D01*
X170342292Y-92536639D01*
X170317422Y-92583168D01*
X170283951Y-92623951D01*
X170243168Y-92657422D01*
X170196639Y-92682292D01*
X170146157Y-92697605D01*
X170092399Y-92702900D01*
X169505601Y-92702900D01*
X169451843Y-92697605D01*
X169401361Y-92682292D01*
X169354832Y-92657422D01*
X169314049Y-92623951D01*
X169280578Y-92583168D01*
X169255708Y-92536639D01*
X169240395Y-92486157D01*
X169235100Y-92432399D01*
X169235100Y-91745601D01*
X169240395Y-91691843D01*
X169255708Y-91641361D01*
X169280578Y-91594832D01*
X169314049Y-91554049D01*
X169354832Y-91520578D01*
X169401361Y-91495708D01*
X169451843Y-91480395D01*
X169505601Y-91475100D01*
X170092399Y-91475100D01*
X170146157Y-91480395D01*
G37*
G36*
X178655157Y-91353395D02*
G01*
X178705639Y-91368708D01*
X178752168Y-91393578D01*
X178792951Y-91427049D01*
X178826422Y-91467832D01*
X178851292Y-91514361D01*
X178866605Y-91564843D01*
X178871900Y-91618601D01*
X178871900Y-92305399D01*
X178866605Y-92359157D01*
X178851292Y-92409639D01*
X178826422Y-92456168D01*
X178792951Y-92496951D01*
X178752168Y-92530422D01*
X178705639Y-92555292D01*
X178655157Y-92570605D01*
X178601399Y-92575900D01*
X178014601Y-92575900D01*
X177960843Y-92570605D01*
X177910361Y-92555292D01*
X177863832Y-92530422D01*
X177823049Y-92496951D01*
X177789578Y-92456168D01*
X177764708Y-92409639D01*
X177749395Y-92359157D01*
X177744100Y-92305399D01*
X177744100Y-91618601D01*
X177749395Y-91564843D01*
X177764708Y-91514361D01*
X177789578Y-91467832D01*
X177823049Y-91427049D01*
X177863832Y-91393578D01*
X177910361Y-91368708D01*
X177960843Y-91353395D01*
X178014601Y-91348100D01*
X178601399Y-91348100D01*
X178655157Y-91353395D01*
G37*
G36*
X174337157Y-91353395D02*
G01*
X174387639Y-91368708D01*
X174434168Y-91393578D01*
X174474951Y-91427049D01*
X174508422Y-91467832D01*
X174533292Y-91514361D01*
X174548605Y-91564843D01*
X174553900Y-91618601D01*
X174553900Y-92305399D01*
X174548605Y-92359157D01*
X174533292Y-92409639D01*
X174508422Y-92456168D01*
X174474951Y-92496951D01*
X174434168Y-92530422D01*
X174387639Y-92555292D01*
X174337157Y-92570605D01*
X174283399Y-92575900D01*
X173696601Y-92575900D01*
X173642843Y-92570605D01*
X173592361Y-92555292D01*
X173545832Y-92530422D01*
X173505049Y-92496951D01*
X173471578Y-92456168D01*
X173446708Y-92409639D01*
X173431395Y-92359157D01*
X173426100Y-92305399D01*
X173426100Y-91618601D01*
X173431395Y-91564843D01*
X173446708Y-91514361D01*
X173471578Y-91467832D01*
X173505049Y-91427049D01*
X173545832Y-91393578D01*
X173592361Y-91368708D01*
X173642843Y-91353395D01*
X173696601Y-91348100D01*
X174283399Y-91348100D01*
X174337157Y-91353395D01*
G37*
G36*
X163324157Y-90881395D02*
G01*
X163374639Y-90896708D01*
X163421168Y-90921578D01*
X163461951Y-90955049D01*
X163495422Y-90995832D01*
X163520292Y-91042361D01*
X163535605Y-91092843D01*
X163540900Y-91146601D01*
X163540900Y-91733399D01*
X163535605Y-91787157D01*
X163520292Y-91837639D01*
X163495422Y-91884168D01*
X163461951Y-91924951D01*
X163421168Y-91958422D01*
X163374639Y-91983292D01*
X163324157Y-91998605D01*
X163270399Y-92003900D01*
X162583601Y-92003900D01*
X162529843Y-91998605D01*
X162479361Y-91983292D01*
X162432832Y-91958422D01*
X162392049Y-91924951D01*
X162358578Y-91884168D01*
X162333708Y-91837639D01*
X162318395Y-91787157D01*
X162313100Y-91733399D01*
X162313100Y-91146601D01*
X162318395Y-91092843D01*
X162333708Y-91042361D01*
X162358578Y-90995832D01*
X162392049Y-90955049D01*
X162432832Y-90921578D01*
X162479361Y-90896708D01*
X162529843Y-90881395D01*
X162583601Y-90876100D01*
X163270399Y-90876100D01*
X163324157Y-90881395D01*
G37*
G36*
X161574157Y-90881395D02*
G01*
X161624639Y-90896708D01*
X161671168Y-90921578D01*
X161711951Y-90955049D01*
X161745422Y-90995832D01*
X161770292Y-91042361D01*
X161785605Y-91092843D01*
X161790900Y-91146601D01*
X161790900Y-91733399D01*
X161785605Y-91787157D01*
X161770292Y-91837639D01*
X161745422Y-91884168D01*
X161711951Y-91924951D01*
X161671168Y-91958422D01*
X161624639Y-91983292D01*
X161574157Y-91998605D01*
X161520399Y-92003900D01*
X160833601Y-92003900D01*
X160779843Y-91998605D01*
X160729361Y-91983292D01*
X160682832Y-91958422D01*
X160642049Y-91924951D01*
X160608578Y-91884168D01*
X160583708Y-91837639D01*
X160568395Y-91787157D01*
X160563100Y-91733399D01*
X160563100Y-91146601D01*
X160568395Y-91092843D01*
X160583708Y-91042361D01*
X160608578Y-90995832D01*
X160642049Y-90955049D01*
X160682832Y-90921578D01*
X160729361Y-90896708D01*
X160779843Y-90881395D01*
X160833601Y-90876100D01*
X161520399Y-90876100D01*
X161574157Y-90881395D01*
G37*
G36*
X166825900Y-90592900D02*
G01*
X166198100Y-90592900D01*
X166198100Y-89715100D01*
X166825900Y-89715100D01*
X166825900Y-90592900D01*
G37*
G36*
X165525900Y-90592900D02*
G01*
X164898100Y-90592900D01*
X164898100Y-89715100D01*
X165525900Y-89715100D01*
X165525900Y-90592900D01*
G37*
G36*
X169589900Y-90592900D02*
G01*
X168962100Y-90592900D01*
X168962100Y-89715100D01*
X169589900Y-89715100D01*
X169589900Y-90592900D01*
G37*
G36*
X170889900Y-90592900D02*
G01*
X170262100Y-90592900D01*
X170262100Y-89715100D01*
X170889900Y-89715100D01*
X170889900Y-90592900D01*
G37*
G36*
X177717900Y-90465900D02*
G01*
X177090100Y-90465900D01*
X177090100Y-89588100D01*
X177717900Y-89588100D01*
X177717900Y-90465900D01*
G37*
G36*
X179017900Y-90465900D02*
G01*
X178390100Y-90465900D01*
X178390100Y-89588100D01*
X179017900Y-89588100D01*
X179017900Y-90465900D01*
G37*
G36*
X173653900Y-90465900D02*
G01*
X173026100Y-90465900D01*
X173026100Y-89588100D01*
X173653900Y-89588100D01*
X173653900Y-90465900D01*
G37*
G36*
X174953900Y-90465900D02*
G01*
X174326100Y-90465900D01*
X174326100Y-89588100D01*
X174953900Y-89588100D01*
X174953900Y-90465900D01*
G37*
G36*
X163324157Y-87960395D02*
G01*
X163374639Y-87975708D01*
X163421168Y-88000578D01*
X163461951Y-88034049D01*
X163495422Y-88074832D01*
X163520292Y-88121361D01*
X163535605Y-88171843D01*
X163540900Y-88225601D01*
X163540900Y-88812399D01*
X163535605Y-88866157D01*
X163520292Y-88916639D01*
X163495422Y-88963168D01*
X163461951Y-89003951D01*
X163421168Y-89037422D01*
X163374639Y-89062292D01*
X163324157Y-89077605D01*
X163270399Y-89082900D01*
X162583601Y-89082900D01*
X162529843Y-89077605D01*
X162479361Y-89062292D01*
X162432832Y-89037422D01*
X162392049Y-89003951D01*
X162358578Y-88963168D01*
X162333708Y-88916639D01*
X162318395Y-88866157D01*
X162313100Y-88812399D01*
X162313100Y-88225601D01*
X162318395Y-88171843D01*
X162333708Y-88121361D01*
X162358578Y-88074832D01*
X162392049Y-88034049D01*
X162432832Y-88000578D01*
X162479361Y-87975708D01*
X162529843Y-87960395D01*
X162583601Y-87955100D01*
X163270399Y-87955100D01*
X163324157Y-87960395D01*
G37*
G36*
X161574157Y-87960395D02*
G01*
X161624639Y-87975708D01*
X161671168Y-88000578D01*
X161711951Y-88034049D01*
X161745422Y-88074832D01*
X161770292Y-88121361D01*
X161785605Y-88171843D01*
X161790900Y-88225601D01*
X161790900Y-88812399D01*
X161785605Y-88866157D01*
X161770292Y-88916639D01*
X161745422Y-88963168D01*
X161711951Y-89003951D01*
X161671168Y-89037422D01*
X161624639Y-89062292D01*
X161574157Y-89077605D01*
X161520399Y-89082900D01*
X160833601Y-89082900D01*
X160779843Y-89077605D01*
X160729361Y-89062292D01*
X160682832Y-89037422D01*
X160642049Y-89003951D01*
X160608578Y-88963168D01*
X160583708Y-88916639D01*
X160568395Y-88866157D01*
X160563100Y-88812399D01*
X160563100Y-88225601D01*
X160568395Y-88171843D01*
X160583708Y-88121361D01*
X160608578Y-88074832D01*
X160642049Y-88034049D01*
X160682832Y-88000578D01*
X160729361Y-87975708D01*
X160779843Y-87960395D01*
X160833601Y-87955100D01*
X161520399Y-87955100D01*
X161574157Y-87960395D01*
G37*
G36*
X166175900Y-88592900D02*
G01*
X165548100Y-88592900D01*
X165548100Y-87715100D01*
X166175900Y-87715100D01*
X166175900Y-88592900D01*
G37*
G36*
X170239900Y-88592900D02*
G01*
X169612100Y-88592900D01*
X169612100Y-87715100D01*
X170239900Y-87715100D01*
X170239900Y-88592900D01*
G37*
G36*
X178367900Y-88465900D02*
G01*
X177740100Y-88465900D01*
X177740100Y-87588100D01*
X178367900Y-87588100D01*
X178367900Y-88465900D01*
G37*
G36*
X174303900Y-88465900D02*
G01*
X173676100Y-88465900D01*
X173676100Y-87588100D01*
X174303900Y-87588100D01*
X174303900Y-88465900D01*
G37*
G36*
X163324157Y-85039395D02*
G01*
X163374639Y-85054708D01*
X163421168Y-85079578D01*
X163461951Y-85113049D01*
X163495422Y-85153832D01*
X163520292Y-85200361D01*
X163535605Y-85250843D01*
X163540900Y-85304601D01*
X163540900Y-85891399D01*
X163535605Y-85945157D01*
X163520292Y-85995639D01*
X163495422Y-86042168D01*
X163461951Y-86082951D01*
X163421168Y-86116422D01*
X163374639Y-86141292D01*
X163324157Y-86156605D01*
X163270399Y-86161900D01*
X162583601Y-86161900D01*
X162529843Y-86156605D01*
X162479361Y-86141292D01*
X162432832Y-86116422D01*
X162392049Y-86082951D01*
X162358578Y-86042168D01*
X162333708Y-85995639D01*
X162318395Y-85945157D01*
X162313100Y-85891399D01*
X162313100Y-85304601D01*
X162318395Y-85250843D01*
X162333708Y-85200361D01*
X162358578Y-85153832D01*
X162392049Y-85113049D01*
X162432832Y-85079578D01*
X162479361Y-85054708D01*
X162529843Y-85039395D01*
X162583601Y-85034100D01*
X163270399Y-85034100D01*
X163324157Y-85039395D01*
G37*
G36*
X161574157Y-85039395D02*
G01*
X161624639Y-85054708D01*
X161671168Y-85079578D01*
X161711951Y-85113049D01*
X161745422Y-85153832D01*
X161770292Y-85200361D01*
X161785605Y-85250843D01*
X161790900Y-85304601D01*
X161790900Y-85891399D01*
X161785605Y-85945157D01*
X161770292Y-85995639D01*
X161745422Y-86042168D01*
X161711951Y-86082951D01*
X161671168Y-86116422D01*
X161624639Y-86141292D01*
X161574157Y-86156605D01*
X161520399Y-86161900D01*
X160833601Y-86161900D01*
X160779843Y-86156605D01*
X160729361Y-86141292D01*
X160682832Y-86116422D01*
X160642049Y-86082951D01*
X160608578Y-86042168D01*
X160583708Y-85995639D01*
X160568395Y-85945157D01*
X160563100Y-85891399D01*
X160563100Y-85304601D01*
X160568395Y-85250843D01*
X160583708Y-85200361D01*
X160608578Y-85153832D01*
X160642049Y-85113049D01*
X160682832Y-85079578D01*
X160729361Y-85054708D01*
X160779843Y-85039395D01*
X160833601Y-85034100D01*
X161520399Y-85034100D01*
X161574157Y-85039395D01*
G37*
G36*
X163324157Y-82118395D02*
G01*
X163374639Y-82133708D01*
X163421168Y-82158578D01*
X163461951Y-82192049D01*
X163495422Y-82232832D01*
X163520292Y-82279361D01*
X163535605Y-82329843D01*
X163540900Y-82383601D01*
X163540900Y-82970399D01*
X163535605Y-83024157D01*
X163520292Y-83074639D01*
X163495422Y-83121168D01*
X163461951Y-83161951D01*
X163421168Y-83195422D01*
X163374639Y-83220292D01*
X163324157Y-83235605D01*
X163270399Y-83240900D01*
X162583601Y-83240900D01*
X162529843Y-83235605D01*
X162479361Y-83220292D01*
X162432832Y-83195422D01*
X162392049Y-83161951D01*
X162358578Y-83121168D01*
X162333708Y-83074639D01*
X162318395Y-83024157D01*
X162313100Y-82970399D01*
X162313100Y-82383601D01*
X162318395Y-82329843D01*
X162333708Y-82279361D01*
X162358578Y-82232832D01*
X162392049Y-82192049D01*
X162432832Y-82158578D01*
X162479361Y-82133708D01*
X162529843Y-82118395D01*
X162583601Y-82113100D01*
X163270399Y-82113100D01*
X163324157Y-82118395D01*
G37*
G36*
X161574157Y-82118395D02*
G01*
X161624639Y-82133708D01*
X161671168Y-82158578D01*
X161711951Y-82192049D01*
X161745422Y-82232832D01*
X161770292Y-82279361D01*
X161785605Y-82329843D01*
X161790900Y-82383601D01*
X161790900Y-82970399D01*
X161785605Y-83024157D01*
X161770292Y-83074639D01*
X161745422Y-83121168D01*
X161711951Y-83161951D01*
X161671168Y-83195422D01*
X161624639Y-83220292D01*
X161574157Y-83235605D01*
X161520399Y-83240900D01*
X160833601Y-83240900D01*
X160779843Y-83235605D01*
X160729361Y-83220292D01*
X160682832Y-83195422D01*
X160642049Y-83161951D01*
X160608578Y-83121168D01*
X160583708Y-83074639D01*
X160568395Y-83024157D01*
X160563100Y-82970399D01*
X160563100Y-82383601D01*
X160568395Y-82329843D01*
X160583708Y-82279361D01*
X160608578Y-82232832D01*
X160642049Y-82192049D01*
X160682832Y-82158578D01*
X160729361Y-82133708D01*
X160779843Y-82118395D01*
X160833601Y-82113100D01*
X161520399Y-82113100D01*
X161574157Y-82118395D01*
G37*
M02*
