M48
; DRILL file {KiCad 5.1.5} date sob, 7 mar 2020, 11:26:47
; FORMAT={-:-/ absolute / inch / decimal}
; #@! TF.CreationDate,2020-03-07T11:26:47+01:00
; #@! TF.GenerationSoftware,Kicad,Pcbnew,5.1.5
; #@! TF.FileFunction,Plated,1,4,PTH
FMAT,2
INCH
T1C0.0118
T2C0.0787
%
G90
G05
T1
X4.22Y-4.445
X4.23Y-3.715
X4.25Y-3.91
X4.25Y-4.07
X4.35Y-3.58
X4.4252Y-3.7648
X4.45Y-4.24
X4.455Y-4.55
X4.47Y-3.83
X4.48Y-3.615
X4.48Y-4.145
X4.485Y-3.9
X4.485Y-4.105
X4.5808Y-3.3508
X4.64Y-4.485
X4.64Y-4.735
X4.65Y-4.29
X4.665Y-3.71
X4.72Y-4.605
X4.725Y-3.25
X4.735Y-3.91
X4.805Y-4.765
X4.81Y-4.235
X4.825Y-3.345
X4.835Y-4.42
X4.86Y-4.005
X4.86Y-4.54
X4.87Y-4.115
X4.885Y-3.55
X4.975Y-3.59
X4.98Y-3.7
X4.98Y-4.37
X4.99Y-4.0
X5.015Y-4.055
X5.025Y-4.77
X5.03Y-4.625
X5.06Y-4.06
X5.07Y-4.18
X5.08Y-4.265
X5.09Y-4.635
X5.11Y-4.185
X5.115Y-3.785
X5.12Y-3.525
X5.135Y-4.27
X5.14Y-3.48
X5.145Y-4.165
X5.15Y-4.625
X5.165Y-3.72
X5.185Y-3.525
X5.19Y-3.85
X5.195Y-4.22
X5.205Y-4.38
X5.215Y-4.045
X5.215Y-4.72
X5.25Y-3.355
X5.31Y-3.29
X5.32Y-4.28
X5.35Y-4.465
X5.39Y-4.085
X5.4Y-3.91
X5.4Y-4.705
X5.445Y-3.355
X5.445Y-3.7
X5.45Y-4.56
X5.53Y-4.455
X5.555Y-4.195
X5.56Y-4.15
X5.58Y-3.72
X5.585Y-3.905
X5.63Y-4.09
X5.645Y-4.435
X5.715Y-3.385
X5.72Y-3.69
X5.79Y-4.445
X5.815Y-4.205
X5.8325Y-4.105
X5.845Y-3.37
X5.88Y-3.81
X5.905Y-3.935
X5.915Y-3.905
X5.915Y-4.395
X5.98Y-3.725
X5.98Y-4.105
X5.99Y-3.905
X6.045Y-3.855
X6.055Y-3.395
X6.055Y-3.56
X6.0815Y-4.1075
X6.09Y-4.075
X6.09Y-4.19
X6.11Y-3.7691
X6.15Y-4.1
X6.21Y-3.48
X6.215Y-3.75
X6.24Y-3.985
X6.255Y-4.015
X6.255Y-4.045
X6.275Y-3.79
X6.275Y-4.2575
X6.285Y-3.645
X6.3Y-3.425
X6.31Y-4.135
X6.315Y-4.69
X6.335Y-3.73
X6.36Y-3.84
X6.39Y-4.605
X6.405Y-3.425
X6.405Y-3.795
X6.455Y-3.71
X6.465Y-4.73
X6.4741Y-4.1759
X6.475Y-3.59
X6.495Y-3.42
X6.51Y-4.365
X6.575Y-4.165
X6.58Y-3.61
X6.59Y-3.85
X6.615Y-3.825
X6.625Y-3.59
X6.66Y-4.735
X6.675Y-4.015
X6.705Y-3.405
X6.705Y-4.6
X6.7241Y-3.9959
X6.725Y-4.415
X6.725Y-4.5
X6.74Y-3.61
X6.74Y-4.08
X6.775Y-3.58
X6.8Y-4.6
X6.84Y-3.405
X6.87Y-4.705
X6.88Y-4.15
X6.9Y-3.61
X6.9Y-4.6
X6.91Y-3.425
X6.935Y-3.59
X6.94Y-3.8
X6.94Y-3.295
X6.975Y-3.405
X6.995Y-4.63
X7.05Y-3.185
X7.05Y-3.25
X7.05Y-3.35
X7.05Y-4.57
X7.065Y-3.7
X7.065Y-3.75
X7.065Y-3.9
X7.065Y-4.0
X7.065Y-4.05
X7.065Y-4.25
X7.065Y-4.3
X7.065Y-4.35
X7.065Y-4.4
X7.065Y-4.45
X7.065Y-4.5
X7.065Y-4.65
X7.065Y-4.75
X7.25Y-3.415
X7.25Y-3.515
X7.26Y-3.85
X7.27Y-4.16
X7.27Y-4.235
X7.27Y-4.35
X7.27Y-4.455
X7.27Y-4.55
X7.27Y-4.77
X7.29Y-3.385
X7.29Y-3.485
X7.29Y-3.585
X7.48Y-3.295
X7.48Y-4.715
X7.52Y-4.575
X7.535Y-3.65
X7.535Y-3.77
X7.55Y-3.445
X7.555Y-4.035
X7.605Y-4.215
X7.615Y-4.045
X7.755Y-3.61
X7.765Y-4.09
X7.78Y-3.505
X7.79Y-4.425
X7.795Y-3.915
X7.805Y-3.765
X6.393Y-3.938
X6.393Y-3.9793
X6.393Y-4.0207
X6.393Y-4.062
X6.4343Y-3.938
X6.4343Y-4.062
X6.4757Y-3.938
X6.4757Y-4.062
X6.517Y-3.938
X6.517Y-3.9793
X6.517Y-4.0207
X6.517Y-4.062
T2
X6.455Y-4.0
T0
M30
